STARTFONT 2.1
COMMENT
COMMENT Converted from OpenType font "Q:\font stuff\winfont\Ubuntu-R.ttf" by "otf2bdf 3.0".
COMMENT
FONT -FreeType-Ubuntu-Medium-R-Normal--22-220-72-72-P-119-ISO10646-1
SIZE 22 72 72
FONTBOUNDINGBOX 81 28 -4 -6
STARTPROPERTIES 19
FOUNDRY "FreeType"
FAMILY_NAME "Ubuntu"
WEIGHT_NAME "Medium"
SLANT "R"
SETWIDTH_NAME "Normal"
ADD_STYLE_NAME ""
PIXEL_SIZE 22
POINT_SIZE 220
RESOLUTION_X 72
RESOLUTION_Y 72
SPACING "P"
AVERAGE_WIDTH 119
CHARSET_REGISTRY "ISO10646"
CHARSET_ENCODING "1"
FONT_ASCENT 20
FONT_DESCENT 4
COPYRIGHT "Copyright 2011 Canonical Ltd.  Licensed under the Ubuntu Font Licence 1.0"
_OTF_FONTFILE "Q:\font stuff\winfont\Ubuntu-R.ttf"
_OTF_PSNAME "Ubuntu"
ENDPROPERTIES
CHARS 1193
STARTCHAR 0008
ENCODING 8
SWIDTH 0 0
DWIDTH 0 0
BBX 0 0 0 0
BITMAP
ENDCHAR
STARTCHAR 0009
ENCODING 9
SWIDTH 227 0
DWIDTH 5 0
BBX 0 0 0 0
BITMAP
ENDCHAR
STARTCHAR 000D
ENCODING 13
SWIDTH 227 0
DWIDTH 5 0
BBX 0 0 0 0
BITMAP
ENDCHAR
STARTCHAR 001D
ENCODING 29
SWIDTH 0 0
DWIDTH 0 0
BBX 0 0 0 0
BITMAP
ENDCHAR
STARTCHAR 0020
ENCODING 32
SWIDTH 227 0
DWIDTH 5 0
BBX 0 0 0 0
BITMAP
ENDCHAR
STARTCHAR 0021
ENCODING 33
SWIDTH 272 0
DWIDTH 6 0
BBX 2 15 2 0
BITMAP
C0
C0
C0
C0
C0
C0
C0
C0
C0
C0
00
00
C0
C0
C0
ENDCHAR
STARTCHAR 0022
ENCODING 34
SWIDTH 409 0
DWIDTH 9 0
BBX 6 6 1 11
BITMAP
CC
CC
CC
CC
CC
CC
ENDCHAR
STARTCHAR 0023
ENCODING 35
SWIDTH 681 0
DWIDTH 15 0
BBX 13 15 1 0
BITMAP
0C30
0C30
0C70
1860
FFF8
FFF8
1860
38E0
30C0
FFF8
FFF8
30C0
7180
6180
6180
ENDCHAR
STARTCHAR 0024
ENCODING 36
SWIDTH 545 0
DWIDTH 12 0
BBX 10 20 1 -3
BITMAP
0C00
0C00
3F80
7F80
E080
C000
C000
E000
7800
1E00
0780
01C0
00C0
00C0
81C0
FF80
7F00
0C00
0C00
0C00
ENDCHAR
STARTCHAR 0025
ENCODING 37
SWIDTH 863 0
DWIDTH 19 0
BBX 17 15 1 0
BITMAP
3C0C00
7E1800
E73800
C33000
C36000
C36000
E7DE00
7FFF00
3DF380
036180
036180
066180
0E7380
0C3F00
181E00
ENDCHAR
STARTCHAR 0026
ENCODING 38
SWIDTH 681 0
DWIDTH 15 0
BBX 13 15 1 0
BITMAP
0F00
1F80
38C0
30C0
30C0
3980
1F00
1C00
7618
E318
C1B0
C0E0
E060
7FF0
3F18
ENDCHAR
STARTCHAR 0027
ENCODING 39
SWIDTH 227 0
DWIDTH 5 0
BBX 2 6 1 11
BITMAP
C0
C0
C0
C0
C0
C0
ENDCHAR
STARTCHAR 0028
ENCODING 40
SWIDTH 318 0
DWIDTH 7 0
BBX 5 21 2 -4
BITMAP
08
18
30
20
60
60
40
C0
C0
C0
C0
C0
C0
C0
40
60
60
20
30
18
08
ENDCHAR
STARTCHAR 0029
ENCODING 41
SWIDTH 318 0
DWIDTH 7 0
BBX 5 21 0 -4
BITMAP
80
C0
60
20
30
30
10
18
18
18
18
18
18
18
10
30
30
20
60
C0
80
ENDCHAR
STARTCHAR 002A
ENCODING 42
SWIDTH 500 0
DWIDTH 11 0
BBX 9 8 1 7
BITMAP
0800
0800
C980
FF80
0800
3600
7700
2200
ENDCHAR
STARTCHAR 002B
ENCODING 43
SWIDTH 545 0
DWIDTH 12 0
BBX 10 10 1 2
BITMAP
0C00
0C00
0C00
0C00
FFC0
FFC0
0C00
0C00
0C00
0C00
ENDCHAR
STARTCHAR 002C
ENCODING 44
SWIDTH 227 0
DWIDTH 5 0
BBX 3 7 1 -4
BITMAP
60
60
60
60
40
C0
C0
ENDCHAR
STARTCHAR 002D
ENCODING 45
SWIDTH 318 0
DWIDTH 7 0
BBX 5 2 1 6
BITMAP
F8
F8
ENDCHAR
STARTCHAR 002E
ENCODING 46
SWIDTH 227 0
DWIDTH 5 0
BBX 3 3 1 0
BITMAP
E0
E0
E0
ENDCHAR
STARTCHAR 002F
ENCODING 47
SWIDTH 363 0
DWIDTH 8 0
BBX 10 21 -1 -4
BITMAP
00C0
0180
0180
0180
0300
0300
0700
0600
0600
0C00
0C00
0C00
1800
1800
3800
3000
3000
6000
6000
6000
C000
ENDCHAR
STARTCHAR 0030
ENCODING 48
SWIDTH 545 0
DWIDTH 12 0
BBX 10 15 1 0
BITMAP
1E00
3F00
7180
6180
C0C0
C0C0
C0C0
C0C0
C0C0
C0C0
C0C0
6180
7180
3F00
1E00
ENDCHAR
STARTCHAR 0031
ENCODING 49
SWIDTH 545 0
DWIDTH 12 0
BBX 6 15 2 0
BITMAP
0C
1C
7C
FC
CC
0C
0C
0C
0C
0C
0C
0C
0C
0C
0C
ENDCHAR
STARTCHAR 0032
ENCODING 50
SWIDTH 545 0
DWIDTH 12 0
BBX 9 15 2 0
BITMAP
3C00
FE00
C700
0300
0300
0300
0600
0E00
1C00
3800
6000
6000
C000
FF80
FF80
ENDCHAR
STARTCHAR 0033
ENCODING 51
SWIDTH 545 0
DWIDTH 12 0
BBX 9 15 1 0
BITMAP
7C00
FE00
4700
0300
0300
0700
1E00
1E00
0300
0180
0180
0180
8380
FF00
7C00
ENDCHAR
STARTCHAR 0034
ENCODING 52
SWIDTH 545 0
DWIDTH 12 0
BBX 10 15 1 0
BITMAP
0300
0700
0F00
1F00
1B00
3300
6300
6300
C300
FFC0
FFC0
0300
0300
0300
0300
ENDCHAR
STARTCHAR 0035
ENCODING 53
SWIDTH 545 0
DWIDTH 12 0
BBX 9 15 1 0
BITMAP
7F00
7F00
6000
6000
6000
7C00
7F00
0700
0380
0180
0180
0180
8380
FF00
7C00
ENDCHAR
STARTCHAR 0036
ENCODING 54
SWIDTH 545 0
DWIDTH 12 0
BBX 10 15 1 0
BITMAP
0780
1F80
3800
7000
6000
DF00
FF80
C1C0
C0C0
C0C0
C0C0
E0C0
6180
7F80
1E00
ENDCHAR
STARTCHAR 0037
ENCODING 55
SWIDTH 545 0
DWIDTH 12 0
BBX 10 15 1 0
BITMAP
FFC0
FFC0
0080
0180
0300
0600
0600
0C00
0C00
1800
1800
1800
3000
3000
3000
ENDCHAR
STARTCHAR 0038
ENCODING 56
SWIDTH 545 0
DWIDTH 12 0
BBX 10 15 1 0
BITMAP
3F00
7F80
E1C0
C0C0
C0C0
F180
7B80
1E00
7780
41C0
C0C0
C0C0
E1C0
7F80
3F00
ENDCHAR
STARTCHAR 0039
ENCODING 57
SWIDTH 545 0
DWIDTH 12 0
BBX 10 15 1 0
BITMAP
1E00
7F80
6180
C0C0
C0C0
C0C0
E0C0
7FC0
3FC0
01C0
0180
0380
0F00
7E00
7800
ENDCHAR
STARTCHAR 003A
ENCODING 58
SWIDTH 227 0
DWIDTH 5 0
BBX 3 12 1 0
BITMAP
E0
E0
E0
00
00
00
00
00
00
E0
E0
E0
ENDCHAR
STARTCHAR 003B
ENCODING 59
SWIDTH 227 0
DWIDTH 5 0
BBX 3 16 1 -4
BITMAP
E0
E0
E0
00
00
00
00
00
00
60
60
60
60
40
C0
C0
ENDCHAR
STARTCHAR 003C
ENCODING 60
SWIDTH 545 0
DWIDTH 12 0
BBX 10 9 1 2
BITMAP
00C0
07C0
3F00
F800
C000
F800
3F00
07C0
00C0
ENDCHAR
STARTCHAR 003D
ENCODING 61
SWIDTH 545 0
DWIDTH 12 0
BBX 10 7 1 3
BITMAP
FFC0
FFC0
0000
0000
0000
FFC0
FFC0
ENDCHAR
STARTCHAR 003E
ENCODING 62
SWIDTH 545 0
DWIDTH 12 0
BBX 9 9 2 2
BITMAP
8000
F000
7E00
0F80
0180
0F80
7E00
F000
8000
ENDCHAR
STARTCHAR 003F
ENCODING 63
SWIDTH 409 0
DWIDTH 9 0
BBX 7 15 1 0
BITMAP
78
FE
8E
06
06
0C
18
18
30
30
00
00
30
30
30
ENDCHAR
STARTCHAR 0040
ENCODING 64
SWIDTH 954 0
DWIDTH 21 0
BBX 19 20 1 -4
BITMAP
03F800
0FFE00
1E0700
380180
7000C0
60FCC0
E3FC60
C30C60
C60C60
C60C60
C60C60
C60C60
C30CC0
E3FFC0
60F780
700000
380000
1E0000
0FFC00
01FC00
ENDCHAR
STARTCHAR 0041
ENCODING 65
SWIDTH 681 0
DWIDTH 15 0
BBX 15 15 0 0
BITMAP
0380
0380
06C0
06C0
0C60
0C60
1C60
1830
1830
3FF8
3FF8
701C
600C
600C
C006
ENDCHAR
STARTCHAR 0042
ENCODING 66
SWIDTH 636 0
DWIDTH 14 0
BBX 11 15 2 0
BITMAP
FF00
FF80
C1C0
C0C0
C0C0
C1C0
FF00
FF80
C0E0
C060
C060
C060
C0E0
FFC0
FF00
ENDCHAR
STARTCHAR 0043
ENCODING 67
SWIDTH 636 0
DWIDTH 14 0
BBX 12 15 1 0
BITMAP
07E0
1FF0
3830
6000
6000
C000
C000
C000
C000
C000
E000
6000
3810
1FF0
0FE0
ENDCHAR
STARTCHAR 0044
ENCODING 68
SWIDTH 727 0
DWIDTH 16 0
BBX 13 15 2 0
BITMAP
FF00
FFC0
C0E0
C070
C030
C018
C018
C018
C018
C018
C030
C070
C0E0
FFC0
FF00
ENDCHAR
STARTCHAR 0045
ENCODING 69
SWIDTH 590 0
DWIDTH 13 0
BBX 10 15 2 0
BITMAP
FF80
FF80
C000
C000
C000
C000
FF80
FF80
C000
C000
C000
C000
C000
FFC0
FFC0
ENDCHAR
STARTCHAR 0046
ENCODING 70
SWIDTH 545 0
DWIDTH 12 0
BBX 9 15 2 0
BITMAP
FF80
FF80
C000
C000
C000
C000
FF00
FF00
C000
C000
C000
C000
C000
C000
C000
ENDCHAR
STARTCHAR 0047
ENCODING 71
SWIDTH 681 0
DWIDTH 15 0
BBX 12 15 1 0
BITMAP
0FE0
1FF0
3820
6000
6000
C000
C000
C000
C030
C030
E030
6030
7830
3FF0
0FE0
ENDCHAR
STARTCHAR 0048
ENCODING 72
SWIDTH 727 0
DWIDTH 16 0
BBX 12 15 2 0
BITMAP
C030
C030
C030
C030
C030
C030
FFF0
FFF0
C030
C030
C030
C030
C030
C030
C030
ENDCHAR
STARTCHAR 0049
ENCODING 73
SWIDTH 272 0
DWIDTH 6 0
BBX 2 15 2 0
BITMAP
C0
C0
C0
C0
C0
C0
C0
C0
C0
C0
C0
C0
C0
C0
C0
ENDCHAR
STARTCHAR 004A
ENCODING 74
SWIDTH 500 0
DWIDTH 11 0
BBX 9 15 0 0
BITMAP
0180
0180
0180
0180
0180
0180
0180
0180
0180
0180
0180
0180
4380
FF00
7E00
ENDCHAR
STARTCHAR 004B
ENCODING 75
SWIDTH 636 0
DWIDTH 14 0
BBX 12 15 2 0
BITMAP
C0E0
C1C0
C380
C700
CE00
DC00
F800
F000
FC00
DE00
CF00
C380
C1C0
C0E0
C070
ENDCHAR
STARTCHAR 004C
ENCODING 76
SWIDTH 500 0
DWIDTH 11 0
BBX 9 15 2 0
BITMAP
C000
C000
C000
C000
C000
C000
C000
C000
C000
C000
C000
C000
C000
FF80
FF80
ENDCHAR
STARTCHAR 004D
ENCODING 77
SWIDTH 818 0
DWIDTH 18 0
BBX 16 15 1 0
BITMAP
6006
700E
700E
781E
6816
6C36
C423
C663
C663
C243
C3C3
C3C3
C183
C003
C003
ENDCHAR
STARTCHAR 004E
ENCODING 78
SWIDTH 727 0
DWIDTH 16 0
BBX 12 15 2 0
BITMAP
C030
E030
F030
F830
D830
CC30
C630
C730
C330
C1B0
C0F0
C0F0
C070
C030
C030
ENDCHAR
STARTCHAR 004F
ENCODING 79
SWIDTH 772 0
DWIDTH 17 0
BBX 15 15 1 0
BITMAP
07C0
1FF0
3838
600C
E00C
C006
C006
C006
C006
C006
E00C
600C
3838
1FF0
07C0
ENDCHAR
STARTCHAR 0050
ENCODING 80
SWIDTH 590 0
DWIDTH 13 0
BBX 10 15 2 0
BITMAP
FE00
FF80
C1C0
C0C0
C0C0
C0C0
C1C0
FF80
FE00
C000
C000
C000
C000
C000
C000
ENDCHAR
STARTCHAR 0051
ENCODING 81
SWIDTH 772 0
DWIDTH 17 0
BBX 15 19 1 -4
BITMAP
07C0
1FF0
3838
600C
E00C
C006
C006
C006
C006
C006
600C
600C
3838
1FF0
07C0
0180
00E0
0078
0018
ENDCHAR
STARTCHAR 0052
ENCODING 82
SWIDTH 636 0
DWIDTH 14 0
BBX 12 15 2 0
BITMAP
FF00
FFC0
C0E0
C060
C060
C060
C0E0
FFC0
FF00
C380
C180
C0C0
C0E0
C070
C030
ENDCHAR
STARTCHAR 0053
ENCODING 83
SWIDTH 545 0
DWIDTH 12 0
BBX 10 15 1 0
BITMAP
3F00
7F80
E000
C000
C000
E000
7800
3F00
0780
01C0
00C0
00C0
C1C0
FF80
7F00
ENDCHAR
STARTCHAR 0054
ENCODING 84
SWIDTH 545 0
DWIDTH 12 0
BBX 12 15 0 0
BITMAP
FFF0
FFF0
0600
0600
0600
0600
0600
0600
0600
0600
0600
0600
0600
0600
0600
ENDCHAR
STARTCHAR 0055
ENCODING 85
SWIDTH 681 0
DWIDTH 15 0
BBX 11 15 2 0
BITMAP
C060
C060
C060
C060
C060
C060
C060
C060
C060
C060
C060
E0E0
71C0
7FC0
1F00
ENDCHAR
STARTCHAR 0056
ENCODING 86
SWIDTH 590 0
DWIDTH 13 0
BBX 13 15 0 0
BITMAP
C018
6030
6030
6030
3060
3060
3060
18C0
18C0
0D80
0D80
0F80
0700
0700
0200
ENDCHAR
STARTCHAR 0057
ENCODING 87
SWIDTH 954 0
DWIDTH 21 0
BBX 19 15 1 0
BITMAP
C00060
C00060
C0E060
60E0C0
60E0C0
61B0C0
61B0C0
61B0C0
7319C0
331980
360D80
360D80
3E0F80
1C0700
1C0700
ENDCHAR
STARTCHAR 0058
ENCODING 88
SWIDTH 636 0
DWIDTH 14 0
BBX 13 15 1 0
BITMAP
E038
6030
3060
18C0
18C0
0D80
0700
0700
0700
0D80
18C0
38E0
3060
6030
E038
ENDCHAR
STARTCHAR 0059
ENCODING 89
SWIDTH 545 0
DWIDTH 12 0
BBX 12 15 0 0
BITMAP
C030
6060
6060
30C0
39C0
1980
0F00
0F00
0600
0600
0600
0600
0600
0600
0600
ENDCHAR
STARTCHAR 005A
ENCODING 90
SWIDTH 590 0
DWIDTH 13 0
BBX 11 15 1 0
BITMAP
FFE0
FFE0
00E0
01C0
0380
0300
0600
0C00
1C00
3800
3000
6000
E000
FFE0
FFE0
ENDCHAR
STARTCHAR 005B
ENCODING 91
SWIDTH 318 0
DWIDTH 7 0
BBX 5 21 2 -4
BITMAP
F8
F8
C0
C0
C0
C0
C0
C0
C0
C0
C0
C0
C0
C0
C0
C0
C0
C0
C0
F8
F8
ENDCHAR
STARTCHAR 005C
ENCODING 92
SWIDTH 363 0
DWIDTH 8 0
BBX 10 21 -1 -4
BITMAP
C000
6000
6000
6000
3000
3000
3800
1800
1800
0C00
0C00
0C00
0600
0600
0700
0300
0300
0180
0180
0180
00C0
ENDCHAR
STARTCHAR 005D
ENCODING 93
SWIDTH 318 0
DWIDTH 7 0
BBX 5 21 0 -4
BITMAP
F8
F8
18
18
18
18
18
18
18
18
18
18
18
18
18
18
18
18
18
F8
F8
ENDCHAR
STARTCHAR 005E
ENCODING 94
SWIDTH 545 0
DWIDTH 12 0
BBX 11 8 1 7
BITMAP
0400
0E00
1B00
1B00
3180
60C0
E0E0
4040
ENDCHAR
STARTCHAR 005F
ENCODING 95
SWIDTH 500 0
DWIDTH 11 0
BBX 11 2 0 -4
BITMAP
FFE0
FFE0
ENDCHAR
STARTCHAR 0060
ENCODING 96
SWIDTH 363 0
DWIDTH 8 0
BBX 4 4 1 13
BITMAP
40
E0
70
20
ENDCHAR
STARTCHAR 0061
ENCODING 97
SWIDTH 500 0
DWIDTH 11 0
BBX 8 12 1 0
BITMAP
7C
7E
07
03
3F
7F
E3
C3
C3
E3
7F
3F
ENDCHAR
STARTCHAR 0062
ENCODING 98
SWIDTH 590 0
DWIDTH 13 0
BBX 10 17 2 0
BITMAP
C000
C000
C000
C000
C000
DE00
FF80
E180
C1C0
C0C0
C0C0
C0C0
C0C0
C1C0
C380
FF00
FE00
ENDCHAR
STARTCHAR 0063
ENCODING 99
SWIDTH 500 0
DWIDTH 11 0
BBX 9 12 1 0
BITMAP
1F80
3F80
7000
E000
C000
C000
C000
C000
E000
7000
3F80
1F80
ENDCHAR
STARTCHAR 0064
ENCODING 100
SWIDTH 590 0
DWIDTH 13 0
BBX 10 17 1 0
BITMAP
00C0
00C0
00C0
00C0
00C0
1EC0
7FC0
61C0
E0C0
C0C0
C0C0
C0C0
C0C0
E0C0
70C0
3FC0
1FC0
ENDCHAR
STARTCHAR 0065
ENCODING 101
SWIDTH 545 0
DWIDTH 12 0
BBX 10 12 1 0
BITMAP
1F00
3F80
6180
C0C0
C0C0
FFC0
FFC0
C000
C000
6000
3F80
1F80
ENDCHAR
STARTCHAR 0066
ENCODING 102
SWIDTH 363 0
DWIDTH 8 0
BBX 6 17 2 0
BITMAP
3C
7C
E0
C0
C0
FC
FC
C0
C0
C0
C0
C0
C0
C0
C0
C0
C0
ENDCHAR
STARTCHAR 0067
ENCODING 103
SWIDTH 590 0
DWIDTH 13 0
BBX 10 16 1 -4
BITMAP
1FC0
3FC0
70C0
E0C0
C0C0
C0C0
C0C0
C0C0
E0C0
70C0
7FC0
1FC0
00C0
41C0
7F80
7F00
ENDCHAR
STARTCHAR 0068
ENCODING 104
SWIDTH 590 0
DWIDTH 13 0
BBX 9 17 2 0
BITMAP
C000
C000
C000
C000
C000
FE00
FF00
C380
C180
C180
C180
C180
C180
C180
C180
C180
C180
ENDCHAR
STARTCHAR 0069
ENCODING 105
SWIDTH 272 0
DWIDTH 6 0
BBX 2 16 2 0
BITMAP
C0
C0
00
00
C0
C0
C0
C0
C0
C0
C0
C0
C0
C0
C0
C0
ENDCHAR
STARTCHAR 006A
ENCODING 106
SWIDTH 272 0
DWIDTH 6 0
BBX 5 20 -1 -4
BITMAP
18
18
00
00
18
18
18
18
18
18
18
18
18
18
18
18
18
38
F0
E0
ENDCHAR
STARTCHAR 006B
ENCODING 107
SWIDTH 500 0
DWIDTH 11 0
BBX 9 17 2 0
BITMAP
C000
C000
C000
C000
C000
C380
C700
CE00
DC00
F800
F000
F800
DC00
CE00
C600
C300
C180
ENDCHAR
STARTCHAR 006C
ENCODING 108
SWIDTH 318 0
DWIDTH 7 0
BBX 4 17 2 0
BITMAP
C0
C0
C0
C0
C0
C0
C0
C0
C0
C0
C0
C0
C0
C0
C0
F0
70
ENDCHAR
STARTCHAR 006D
ENCODING 109
SWIDTH 909 0
DWIDTH 20 0
BBX 16 12 2 0
BITMAP
FE7C
FFFE
C387
C183
C183
C183
C183
C183
C183
C183
C183
C183
ENDCHAR
STARTCHAR 006E
ENCODING 110
SWIDTH 590 0
DWIDTH 13 0
BBX 9 12 2 0
BITMAP
FE00
FF00
C380
C180
C180
C180
C180
C180
C180
C180
C180
C180
ENDCHAR
STARTCHAR 006F
ENCODING 111
SWIDTH 590 0
DWIDTH 13 0
BBX 11 12 1 0
BITMAP
1F00
3F80
71C0
E0E0
C060
C060
C060
C060
E0E0
71C0
3F80
1F00
ENDCHAR
STARTCHAR 0070
ENCODING 112
SWIDTH 590 0
DWIDTH 13 0
BBX 10 16 2 -4
BITMAP
FE00
FF00
C380
C1C0
C0C0
C0C0
C0C0
C0C0
C1C0
E180
FF80
DE00
C000
C000
C000
C000
ENDCHAR
STARTCHAR 0071
ENCODING 113
SWIDTH 590 0
DWIDTH 13 0
BBX 10 16 1 -4
BITMAP
1FC0
3FC0
70C0
E0C0
C0C0
C0C0
C0C0
C0C0
E0C0
61C0
7FC0
1EC0
00C0
00C0
00C0
00C0
ENDCHAR
STARTCHAR 0072
ENCODING 114
SWIDTH 363 0
DWIDTH 8 0
BBX 6 12 2 0
BITMAP
7C
FC
C0
C0
C0
C0
C0
C0
C0
C0
C0
C0
ENDCHAR
STARTCHAR 0073
ENCODING 115
SWIDTH 454 0
DWIDTH 10 0
BBX 8 12 1 0
BITMAP
3E
7E
C0
C0
E0
7C
3E
07
03
83
FE
FC
ENDCHAR
STARTCHAR 0074
ENCODING 116
SWIDTH 409 0
DWIDTH 9 0
BBX 6 16 2 0
BITMAP
C0
C0
C0
C0
FC
FC
C0
C0
C0
C0
C0
C0
C0
C0
7C
7C
ENDCHAR
STARTCHAR 0075
ENCODING 117
SWIDTH 590 0
DWIDTH 13 0
BBX 9 12 2 0
BITMAP
C180
C180
C180
C180
C180
C180
C180
C180
C180
E180
7F80
3F80
ENDCHAR
STARTCHAR 0076
ENCODING 118
SWIDTH 454 0
DWIDTH 10 0
BBX 10 12 0 0
BITMAP
C0C0
C0C0
6180
6180
6180
3300
3300
3300
1E00
1E00
1E00
0C00
ENDCHAR
STARTCHAR 0077
ENCODING 119
SWIDTH 772 0
DWIDTH 17 0
BBX 17 12 0 0
BITMAP
C0C180
C0C180
60C300
61E300
616300
636300
327600
363600
363600
1C3C00
1C1C00
181C00
ENDCHAR
STARTCHAR 0078
ENCODING 120
SWIDTH 500 0
DWIDTH 11 0
BBX 11 12 0 0
BITMAP
E0E0
60C0
3180
1B00
1F00
0E00
0E00
1F00
3B80
3180
60C0
E0E0
ENDCHAR
STARTCHAR 0079
ENCODING 121
SWIDTH 454 0
DWIDTH 10 0
BBX 10 16 0 -4
BITMAP
C0C0
60C0
6180
6180
3180
3300
3300
1B00
1B00
1E00
0E00
0E00
0C00
0C00
F800
F000
ENDCHAR
STARTCHAR 007A
ENCODING 122
SWIDTH 454 0
DWIDTH 10 0
BBX 8 12 1 0
BITMAP
FF
FF
07
0E
0C
18
38
30
60
E0
FF
FF
ENDCHAR
STARTCHAR 007B
ENCODING 123
SWIDTH 318 0
DWIDTH 7 0
BBX 6 21 1 -4
BITMAP
1C
3C
30
30
30
30
30
30
30
70
E0
F0
70
30
30
30
30
30
30
3C
1C
ENDCHAR
STARTCHAR 007C
ENCODING 124
SWIDTH 272 0
DWIDTH 6 0
BBX 2 21 2 -4
BITMAP
C0
C0
C0
C0
C0
C0
C0
C0
C0
C0
C0
C0
C0
C0
C0
C0
C0
C0
C0
C0
C0
ENDCHAR
STARTCHAR 007D
ENCODING 125
SWIDTH 318 0
DWIDTH 7 0
BBX 6 21 0 -4
BITMAP
E0
F0
30
30
30
30
30
30
30
38
1C
3C
38
30
30
30
30
30
30
F0
E0
ENDCHAR
STARTCHAR 007E
ENCODING 126
SWIDTH 545 0
DWIDTH 12 0
BBX 11 4 1 5
BITMAP
3860
7CE0
E7C0
C3C0
ENDCHAR
STARTCHAR 00A0
ENCODING 160
SWIDTH 227 0
DWIDTH 5 0
BBX 0 0 0 0
BITMAP
ENDCHAR
STARTCHAR 00A1
ENCODING 161
SWIDTH 272 0
DWIDTH 6 0
BBX 2 16 2 -4
BITMAP
C0
C0
C0
00
00
C0
C0
C0
C0
C0
C0
C0
C0
C0
C0
C0
ENDCHAR
STARTCHAR 00A2
ENCODING 162
SWIDTH 545 0
DWIDTH 12 0
BBX 8 18 2 -3
BITMAP
0C
0C
0C
1F
3F
60
E0
C0
C0
C0
C0
E0
60
7F
1F
0C
0C
0C
ENDCHAR
STARTCHAR 00A3
ENCODING 163
SWIDTH 545 0
DWIDTH 12 0
BBX 10 15 1 0
BITMAP
0FC0
1FC0
3840
3000
3000
3000
3000
FF00
FF00
3000
3000
3000
3000
7FC0
7FC0
ENDCHAR
STARTCHAR 00A4
ENCODING 164
SWIDTH 545 0
DWIDTH 12 0
BBX 11 10 1 2
BITMAP
4040
FFE0
7FC0
71C0
60C0
60C0
71C0
7FC0
FFE0
4040
ENDCHAR
STARTCHAR 00A5
ENCODING 165
SWIDTH 545 0
DWIDTH 12 0
BBX 12 15 0 0
BITMAP
C070
6060
70C0
30C0
1980
1F80
0F00
7FE0
7FE0
0600
0600
7FE0
7FE0
0600
0600
ENDCHAR
STARTCHAR 00A6
ENCODING 166
SWIDTH 272 0
DWIDTH 6 0
BBX 2 21 2 -4
BITMAP
C0
C0
C0
C0
C0
C0
C0
C0
00
00
00
00
00
C0
C0
C0
C0
C0
C0
C0
C0
ENDCHAR
STARTCHAR 00A7
ENCODING 167
SWIDTH 500 0
DWIDTH 11 0
BBX 9 18 1 -2
BITMAP
1F80
3F80
6080
6000
7000
3C00
6F00
C380
C180
C180
E180
7F00
0F00
0380
0180
8180
FF00
7E00
ENDCHAR
STARTCHAR 00A8
ENCODING 168
SWIDTH 363 0
DWIDTH 8 0
BBX 8 3 0 14
BITMAP
E7
E7
E7
ENDCHAR
STARTCHAR 00A9
ENCODING 169
SWIDTH 818 0
DWIDTH 18 0
BBX 16 15 1 0
BITMAP
07E0
1FF8
381C
700E
63E6
C7E3
CE03
CC03
CE03
C7E3
63E6
700E
381C
1FF8
07E0
ENDCHAR
STARTCHAR 00AA
ENCODING 170
SWIDTH 409 0
DWIDTH 9 0
BBX 7 8 1 7
BITMAP
7C
7E
06
7E
FE
C6
FE
7E
ENDCHAR
STARTCHAR 00AB
ENCODING 171
SWIDTH 500 0
DWIDTH 11 0
BBX 9 9 1 2
BITMAP
1080
3180
6300
6300
C600
6300
6300
3180
1080
ENDCHAR
STARTCHAR 00AC
ENCODING 172
SWIDTH 545 0
DWIDTH 12 0
BBX 10 8 1 1
BITMAP
FFC0
FFC0
00C0
00C0
00C0
00C0
00C0
00C0
ENDCHAR
STARTCHAR 00AD
ENCODING 173
SWIDTH 318 0
DWIDTH 7 0
BBX 5 2 1 6
BITMAP
F8
F8
ENDCHAR
STARTCHAR 00AE
ENCODING 174
SWIDTH 818 0
DWIDTH 18 0
BBX 16 15 1 0
BITMAP
07E0
1FF8
381C
700E
67C6
C7E3
C663
C7C3
C6C3
C6C3
6666
700E
381C
1FF8
07E0
ENDCHAR
STARTCHAR 00AF
ENCODING 175
SWIDTH 363 0
DWIDTH 8 0
BBX 6 2 1 14
BITMAP
FC
FC
ENDCHAR
STARTCHAR 00B0
ENCODING 176
SWIDTH 318 0
DWIDTH 7 0
BBX 6 6 1 11
BITMAP
78
FC
CC
CC
FC
78
ENDCHAR
STARTCHAR 00B1
ENCODING 177
SWIDTH 545 0
DWIDTH 12 0
BBX 10 13 1 0
BITMAP
0C00
0C00
0C00
0C00
FFC0
FFC0
0C00
0C00
0C00
0C00
0000
FFC0
FFC0
ENDCHAR
STARTCHAR 00B2
ENCODING 178
SWIDTH 363 0
DWIDTH 8 0
BBX 6 9 1 6
BITMAP
78
FC
0C
0C
18
30
40
FC
FC
ENDCHAR
STARTCHAR 00B3
ENCODING 179
SWIDTH 363 0
DWIDTH 8 0
BBX 6 9 1 6
BITMAP
F8
FC
0C
38
3C
0C
0C
FC
F8
ENDCHAR
STARTCHAR 00B4
ENCODING 180
SWIDTH 363 0
DWIDTH 8 0
BBX 4 4 3 13
BITMAP
20
70
E0
40
ENDCHAR
STARTCHAR 00B5
ENCODING 181
SWIDTH 590 0
DWIDTH 13 0
BBX 9 16 2 -4
BITMAP
C180
C180
C180
C180
C180
C180
C180
C180
C180
E180
FF80
FF80
C000
C000
C000
C000
ENDCHAR
STARTCHAR 00B6
ENCODING 182
SWIDTH 636 0
DWIDTH 14 0
BBX 11 19 1 -4
BITMAP
1FE0
3FE0
7E60
FE60
FE60
FE60
FE60
7E60
3E60
0660
0660
0660
0660
0660
0660
0660
0660
0660
0660
ENDCHAR
STARTCHAR 00B7
ENCODING 183
SWIDTH 227 0
DWIDTH 5 0
BBX 3 3 1 5
BITMAP
E0
E0
E0
ENDCHAR
STARTCHAR 00B8
ENCODING 184
SWIDTH 363 0
DWIDTH 8 0
BBX 5 4 1 -4
BITMAP
18
38
18
F0
ENDCHAR
STARTCHAR 00B9
ENCODING 185
SWIDTH 363 0
DWIDTH 8 0
BBX 4 9 2 6
BITMAP
30
70
F0
B0
30
30
30
30
30
ENDCHAR
STARTCHAR 00BA
ENCODING 186
SWIDTH 454 0
DWIDTH 10 0
BBX 8 8 1 7
BITMAP
3C
7E
E7
C3
C3
E7
7E
3C
ENDCHAR
STARTCHAR 00BB
ENCODING 187
SWIDTH 500 0
DWIDTH 11 0
BBX 9 9 1 2
BITMAP
8400
C600
6300
6300
3180
6300
6300
C600
8400
ENDCHAR
STARTCHAR 00BC
ENCODING 188
SWIDTH 863 0
DWIDTH 19 0
BBX 16 16 2 -1
BITMAP
3018
7030
F070
B060
30C0
30C0
3180
3386
330E
061E
0616
0C36
1C3F
183F
3006
0006
ENDCHAR
STARTCHAR 00BD
ENCODING 189
SWIDTH 863 0
DWIDTH 19 0
BBX 16 16 2 -1
BITMAP
3018
7030
F070
B060
30C0
30C0
3180
339E
333F
0603
0603
0C06
1C0C
1810
303F
003F
ENDCHAR
STARTCHAR 00BE
ENCODING 190
SWIDTH 863 0
DWIDTH 19 0
BBX 17 16 1 -1
BITMAP
F80C00
FC1800
0C3800
383000
3C6000
0C6000
0CC000
FDC300
F98700
030F00
030B00
061B00
0E1F80
0C1F80
180300
000300
ENDCHAR
STARTCHAR 00BF
ENCODING 191
SWIDTH 409 0
DWIDTH 9 0
BBX 8 16 1 -4
BITMAP
0C
0C
0C
00
00
0C
0C
1C
38
70
60
C0
C0
E0
7F
3E
ENDCHAR
STARTCHAR 00C0
ENCODING 192
SWIDTH 681 0
DWIDTH 15 0
BBX 15 20 0 0
BITMAP
0200
0700
0380
0100
0000
0380
0380
06C0
06C0
0C60
0C60
1C60
1830
1830
3FF8
3FF8
701C
600C
600C
C006
ENDCHAR
STARTCHAR 00C1
ENCODING 193
SWIDTH 681 0
DWIDTH 15 0
BBX 15 20 0 0
BITMAP
0080
01C0
0380
0100
0000
0380
0380
06C0
06C0
0C60
0C60
1C60
1830
1830
3FF8
3FF8
701C
600C
600C
C006
ENDCHAR
STARTCHAR 00C2
ENCODING 194
SWIDTH 681 0
DWIDTH 15 0
BBX 15 20 0 0
BITMAP
0100
0380
06C0
0440
0000
0380
0380
06C0
06C0
0C60
0C60
1C60
1830
1830
3FF8
3FF8
701C
600C
600C
C006
ENDCHAR
STARTCHAR 00C3
ENCODING 195
SWIDTH 681 0
DWIDTH 15 0
BBX 15 20 0 0
BITMAP
0720
0FE0
09C0
0000
0000
0380
0380
06C0
06C0
0C60
0C60
1C60
1830
1830
3FF8
3FF8
701C
600C
600C
C006
ENDCHAR
STARTCHAR 00C4
ENCODING 196
SWIDTH 681 0
DWIDTH 15 0
BBX 15 20 0 0
BITMAP
0E70
0E70
0E70
0000
0000
0380
0380
06C0
06C0
0C60
0C60
1C60
1830
1830
3FF8
3FF8
701C
600C
600C
C006
ENDCHAR
STARTCHAR 00C5
ENCODING 197
SWIDTH 681 0
DWIDTH 15 0
BBX 15 18 0 0
BITMAP
0380
06C0
06C0
0380
0380
0380
06C0
06C0
0C60
0C60
1830
1830
3FF8
3FF8
3018
600C
600C
C006
ENDCHAR
STARTCHAR 00C6
ENCODING 198
SWIDTH 954 0
DWIDTH 21 0
BBX 20 15 0 0
BITMAP
003FE0
007FE0
00F800
00D800
019800
031800
031FE0
061FE0
0E1800
0FF800
1FF800
381800
301800
601FF0
E01FF0
ENDCHAR
STARTCHAR 00C7
ENCODING 199
SWIDTH 636 0
DWIDTH 14 0
BBX 12 18 1 -3
BITMAP
07E0
1FF0
3830
6000
6000
C000
C000
C000
C000
C000
E000
6000
3810
1FF0
07E0
0380
0180
0780
ENDCHAR
STARTCHAR 00C8
ENCODING 200
SWIDTH 590 0
DWIDTH 13 0
BBX 10 20 2 0
BITMAP
0800
1C00
0E00
0400
0000
FF80
FF80
C000
C000
C000
C000
FF80
FF80
C000
C000
C000
C000
C000
FFC0
FFC0
ENDCHAR
STARTCHAR 00C9
ENCODING 201
SWIDTH 590 0
DWIDTH 13 0
BBX 10 20 2 0
BITMAP
0200
0700
0E00
0400
0000
FF80
FF80
C000
C000
C000
C000
FF80
FF80
C000
C000
C000
C000
C000
FFC0
FFC0
ENDCHAR
STARTCHAR 00CA
ENCODING 202
SWIDTH 590 0
DWIDTH 13 0
BBX 10 20 2 0
BITMAP
0800
1C00
3600
2200
0000
FF80
FF80
C000
C000
C000
C000
FF80
FF80
C000
C000
C000
C000
C000
FFC0
FFC0
ENDCHAR
STARTCHAR 00CB
ENCODING 203
SWIDTH 590 0
DWIDTH 13 0
BBX 10 20 2 0
BITMAP
7380
7380
7380
0000
0000
FF80
FF80
C000
C000
C000
C000
FF80
FF80
C000
C000
C000
C000
C000
FFC0
FFC0
ENDCHAR
STARTCHAR 00CC
ENCODING 204
SWIDTH 272 0
DWIDTH 6 0
BBX 4 20 0 0
BITMAP
40
E0
70
20
00
30
30
30
30
30
30
30
30
30
30
30
30
30
30
30
ENDCHAR
STARTCHAR 00CD
ENCODING 205
SWIDTH 272 0
DWIDTH 6 0
BBX 4 20 2 0
BITMAP
20
70
E0
40
00
C0
C0
C0
C0
C0
C0
C0
C0
C0
C0
C0
C0
C0
C0
C0
ENDCHAR
STARTCHAR 00CE
ENCODING 206
SWIDTH 272 0
DWIDTH 6 0
BBX 5 20 0 0
BITMAP
20
70
D8
88
00
30
30
30
30
30
30
30
30
30
30
30
30
30
30
30
ENDCHAR
STARTCHAR 00CF
ENCODING 207
SWIDTH 272 0
DWIDTH 6 0
BBX 8 20 -1 0
BITMAP
E7
E7
E7
00
00
18
18
18
18
18
18
18
18
18
18
18
18
18
18
18
ENDCHAR
STARTCHAR 00D0
ENCODING 208
SWIDTH 727 0
DWIDTH 16 0
BBX 15 15 0 0
BITMAP
3FC0
3FF0
3038
301C
300C
3006
FE06
FE06
3006
3006
300C
301C
3038
3FF0
3FC0
ENDCHAR
STARTCHAR 00D1
ENCODING 209
SWIDTH 727 0
DWIDTH 16 0
BBX 12 20 2 0
BITMAP
1C80
3F80
2700
0000
0000
C030
E030
F030
F830
D830
CC30
C630
C730
C330
C1B0
C0F0
C0F0
C070
C030
C030
ENDCHAR
STARTCHAR 00D2
ENCODING 210
SWIDTH 772 0
DWIDTH 17 0
BBX 15 20 1 0
BITMAP
0200
0700
0380
0100
0000
07C0
1FF0
3838
600C
E00C
C006
C006
C006
C006
C006
E00C
600C
3838
1FF0
07C0
ENDCHAR
STARTCHAR 00D3
ENCODING 211
SWIDTH 772 0
DWIDTH 17 0
BBX 15 20 1 0
BITMAP
0080
01C0
0380
0100
0000
07C0
1FF0
3838
600C
E00C
C006
C006
C006
C006
C006
E00C
600C
3838
1FF0
07C0
ENDCHAR
STARTCHAR 00D4
ENCODING 212
SWIDTH 772 0
DWIDTH 17 0
BBX 15 20 1 0
BITMAP
0100
0380
06C0
0440
0000
07C0
1FF0
3838
600C
E00C
C006
C006
C006
C006
C006
E00C
600C
3838
1FF0
07C0
ENDCHAR
STARTCHAR 00D5
ENCODING 213
SWIDTH 772 0
DWIDTH 17 0
BBX 15 20 1 0
BITMAP
0720
0FE0
09C0
0000
0000
07C0
1FF0
3838
600C
E00C
C006
C006
C006
C006
C006
E00C
600C
3838
1FF0
07C0
ENDCHAR
STARTCHAR 00D6
ENCODING 214
SWIDTH 772 0
DWIDTH 17 0
BBX 15 20 1 0
BITMAP
0E70
0E70
0E70
0000
0000
07C0
1FF0
3838
600C
E00C
C006
C006
C006
C006
C006
E00C
600C
3838
1FF0
07C0
ENDCHAR
STARTCHAR 00D7
ENCODING 215
SWIDTH 545 0
DWIDTH 12 0
BBX 7 7 3 3
BITMAP
C6
EE
7C
38
7C
EE
C6
ENDCHAR
STARTCHAR 00D8
ENCODING 216
SWIDTH 772 0
DWIDTH 17 0
BBX 15 15 1 0
BITMAP
07E4
1FFC
383C
603C
E07E
C0E6
C1C6
C386
C706
CE06
FC0E
780C
7838
7FF0
4FC0
ENDCHAR
STARTCHAR 00D9
ENCODING 217
SWIDTH 681 0
DWIDTH 15 0
BBX 11 20 2 0
BITMAP
0800
1C00
0E00
0400
0000
C060
C060
C060
C060
C060
C060
C060
C060
C060
C060
C060
E0E0
71C0
7FC0
1F00
ENDCHAR
STARTCHAR 00DA
ENCODING 218
SWIDTH 681 0
DWIDTH 15 0
BBX 11 20 2 0
BITMAP
0200
0700
0E00
0400
0000
C060
C060
C060
C060
C060
C060
C060
C060
C060
C060
C060
E0E0
71C0
7FC0
1F00
ENDCHAR
STARTCHAR 00DB
ENCODING 219
SWIDTH 681 0
DWIDTH 15 0
BBX 11 20 2 0
BITMAP
0400
0E00
1B00
1100
0000
C060
C060
C060
C060
C060
C060
C060
C060
C060
C060
C060
E0E0
71C0
7FC0
1F00
ENDCHAR
STARTCHAR 00DC
ENCODING 220
SWIDTH 681 0
DWIDTH 15 0
BBX 11 20 2 0
BITMAP
39C0
39C0
39C0
0000
0000
C060
C060
C060
C060
C060
C060
C060
C060
C060
C060
C060
E0E0
71C0
7FC0
1F00
ENDCHAR
STARTCHAR 00DD
ENCODING 221
SWIDTH 545 0
DWIDTH 12 0
BBX 12 20 0 0
BITMAP
0100
0380
0700
0200
0000
C030
6060
6060
30C0
39C0
1980
0F00
0F00
0600
0600
0600
0600
0600
0600
0600
ENDCHAR
STARTCHAR 00DE
ENCODING 222
SWIDTH 590 0
DWIDTH 13 0
BBX 10 15 2 0
BITMAP
C000
C000
FE00
FF80
C180
C0C0
C0C0
C0C0
C0C0
C180
FF80
FE00
C000
C000
C000
ENDCHAR
STARTCHAR 00DF
ENCODING 223
SWIDTH 636 0
DWIDTH 14 0
BBX 11 17 2 0
BITMAP
3E00
7F00
E380
C180
C180
C300
C200
C400
CC00
CE00
CF80
C3C0
C0E0
C060
C860
CFE0
CF80
ENDCHAR
STARTCHAR 00E0
ENCODING 224
SWIDTH 500 0
DWIDTH 11 0
BBX 8 17 1 0
BITMAP
10
38
1C
08
00
7C
7E
07
03
3F
7F
E3
C3
C3
E3
7F
3F
ENDCHAR
STARTCHAR 00E1
ENCODING 225
SWIDTH 500 0
DWIDTH 11 0
BBX 8 17 1 0
BITMAP
04
0E
1C
08
00
7C
7E
07
03
3F
7F
E3
C3
C3
E3
7F
3F
ENDCHAR
STARTCHAR 00E2
ENCODING 226
SWIDTH 500 0
DWIDTH 11 0
BBX 8 17 1 0
BITMAP
08
1C
36
22
00
7C
7E
07
03
3F
7F
E3
C3
C3
E3
7F
3F
ENDCHAR
STARTCHAR 00E3
ENCODING 227
SWIDTH 500 0
DWIDTH 11 0
BBX 8 17 1 0
BITMAP
39
7F
4E
00
00
7C
7E
07
03
3F
7F
E3
C3
C3
E3
7F
3F
ENDCHAR
STARTCHAR 00E4
ENCODING 228
SWIDTH 500 0
DWIDTH 11 0
BBX 8 17 1 0
BITMAP
E7
E7
E7
00
00
7C
7E
07
03
3F
7F
E3
C3
C3
E3
7F
3F
ENDCHAR
STARTCHAR 00E5
ENCODING 229
SWIDTH 500 0
DWIDTH 11 0
BBX 8 17 1 0
BITMAP
1C
36
36
1C
00
7C
7E
07
03
3F
7F
E3
C3
C3
E3
7F
3F
ENDCHAR
STARTCHAR 00E6
ENCODING 230
SWIDTH 863 0
DWIDTH 19 0
BBX 17 12 1 0
BITMAP
7E3E00
7F7F00
03C300
018180
3FFF80
7FFF80
E18000
C18000
C1C000
E1E000
7FFF00
3E3F00
ENDCHAR
STARTCHAR 00E7
ENCODING 231
SWIDTH 500 0
DWIDTH 11 0
BBX 9 16 1 -4
BITMAP
1F80
3F80
7000
E000
C000
C000
C000
C000
E000
7000
3F80
1F80
0C00
0E00
0600
1E00
ENDCHAR
STARTCHAR 00E8
ENCODING 232
SWIDTH 545 0
DWIDTH 12 0
BBX 10 17 1 0
BITMAP
0800
1C00
0E00
0400
0000
1F00
3F80
6180
C0C0
C0C0
FFC0
FFC0
C000
C000
6000
3F80
1F80
ENDCHAR
STARTCHAR 00E9
ENCODING 233
SWIDTH 545 0
DWIDTH 12 0
BBX 10 17 1 0
BITMAP
0200
0700
0E00
0400
0000
1F00
3F80
6180
C0C0
C0C0
FFC0
FFC0
C000
C000
6000
3F80
1F80
ENDCHAR
STARTCHAR 00EA
ENCODING 234
SWIDTH 545 0
DWIDTH 12 0
BBX 10 17 1 0
BITMAP
0400
0E00
1B00
1100
0000
1F00
3F80
6180
C0C0
C0C0
FFC0
FFC0
C000
C000
6000
3F80
1F80
ENDCHAR
STARTCHAR 00EB
ENCODING 235
SWIDTH 545 0
DWIDTH 12 0
BBX 10 17 1 0
BITMAP
7380
7380
7380
0000
0000
1F00
3F80
6180
C0C0
C0C0
FFC0
FFC0
C000
C000
6000
3F80
1F80
ENDCHAR
STARTCHAR 00EC
ENCODING 236
SWIDTH 272 0
DWIDTH 6 0
BBX 4 17 0 0
BITMAP
40
E0
70
20
00
30
30
30
30
30
30
30
30
30
30
30
30
ENDCHAR
STARTCHAR 00ED
ENCODING 237
SWIDTH 272 0
DWIDTH 6 0
BBX 4 17 2 0
BITMAP
20
70
E0
40
00
C0
C0
C0
C0
C0
C0
C0
C0
C0
C0
C0
C0
ENDCHAR
STARTCHAR 00EE
ENCODING 238
SWIDTH 272 0
DWIDTH 6 0
BBX 5 17 0 0
BITMAP
20
70
D8
88
00
30
30
30
30
30
30
30
30
30
30
30
30
ENDCHAR
STARTCHAR 00EF
ENCODING 239
SWIDTH 272 0
DWIDTH 6 0
BBX 8 17 -1 0
BITMAP
E7
E7
E7
00
00
18
18
18
18
18
18
18
18
18
18
18
18
ENDCHAR
STARTCHAR 00F0
ENCODING 240
SWIDTH 590 0
DWIDTH 13 0
BBX 11 17 1 0
BITMAP
0200
0720
03E0
0F80
0CC0
00C0
1F60
7FE0
60E0
C060
C060
C060
C060
E0C0
71C0
3F80
1F00
ENDCHAR
STARTCHAR 00F1
ENCODING 241
SWIDTH 590 0
DWIDTH 13 0
BBX 9 17 2 0
BITMAP
3900
7F00
4E00
0000
0000
FE00
FF00
C380
C180
C180
C180
C180
C180
C180
C180
C180
C180
ENDCHAR
STARTCHAR 00F2
ENCODING 242
SWIDTH 590 0
DWIDTH 13 0
BBX 11 17 1 0
BITMAP
0800
1C00
0E00
0400
0000
1F00
3F80
71C0
E0E0
C060
C060
C060
C060
E0E0
71C0
3F80
1F00
ENDCHAR
STARTCHAR 00F3
ENCODING 243
SWIDTH 590 0
DWIDTH 13 0
BBX 11 17 1 0
BITMAP
0200
0700
0E00
0400
0000
1F00
3F80
71C0
E0E0
C060
C060
C060
C060
E0E0
71C0
3F80
1F00
ENDCHAR
STARTCHAR 00F4
ENCODING 244
SWIDTH 590 0
DWIDTH 13 0
BBX 11 17 1 0
BITMAP
0400
0E00
1B00
1100
0000
1F00
3F80
71C0
E0E0
C060
C060
C060
C060
E0E0
71C0
3F80
1F00
ENDCHAR
STARTCHAR 00F5
ENCODING 245
SWIDTH 590 0
DWIDTH 13 0
BBX 11 17 1 0
BITMAP
1C80
3F80
2700
0000
0000
1F00
3F80
71C0
E0E0
C060
C060
C060
C060
E0E0
71C0
3F80
1F00
ENDCHAR
STARTCHAR 00F6
ENCODING 246
SWIDTH 590 0
DWIDTH 13 0
BBX 11 17 1 0
BITMAP
39C0
39C0
39C0
0000
0000
1F00
3F80
71C0
E0E0
C060
C060
C060
C060
E0E0
71C0
3F80
1F00
ENDCHAR
STARTCHAR 00F7
ENCODING 247
SWIDTH 545 0
DWIDTH 12 0
BBX 10 12 1 1
BITMAP
1C00
1C00
1C00
0000
0000
FFC0
FFC0
0000
0000
1C00
1C00
1C00
ENDCHAR
STARTCHAR 00F8
ENCODING 248
SWIDTH 590 0
DWIDTH 13 0
BBX 11 13 1 -1
BITMAP
1F40
3FC0
71C0
E1E0
C360
C660
C460
EC60
78E0
71C0
3F80
6F00
4000
ENDCHAR
STARTCHAR 00F9
ENCODING 249
SWIDTH 590 0
DWIDTH 13 0
BBX 9 17 2 0
BITMAP
1000
3800
1C00
0800
0000
C180
C180
C180
C180
C180
C180
C180
C180
C180
E180
7F80
3F80
ENDCHAR
STARTCHAR 00FA
ENCODING 250
SWIDTH 590 0
DWIDTH 13 0
BBX 9 17 2 0
BITMAP
0400
0E00
1C00
0800
0000
C180
C180
C180
C180
C180
C180
C180
C180
C180
E180
7F80
3F80
ENDCHAR
STARTCHAR 00FB
ENCODING 251
SWIDTH 590 0
DWIDTH 13 0
BBX 9 17 2 0
BITMAP
0800
1C00
3600
2200
0000
C180
C180
C180
C180
C180
C180
C180
C180
C180
E180
7F80
3F80
ENDCHAR
STARTCHAR 00FC
ENCODING 252
SWIDTH 590 0
DWIDTH 13 0
BBX 9 17 2 0
BITMAP
7380
7380
7380
0000
0000
C180
C180
C180
C180
C180
C180
C180
C180
C180
E180
7F80
3F80
ENDCHAR
STARTCHAR 00FD
ENCODING 253
SWIDTH 454 0
DWIDTH 10 0
BBX 10 21 0 -4
BITMAP
0200
0700
0E00
0400
0000
C0C0
60C0
6180
6180
3180
3300
3300
1B00
1B00
1E00
0E00
0E00
0C00
0C00
F800
F000
ENDCHAR
STARTCHAR 00FE
ENCODING 254
SWIDTH 590 0
DWIDTH 13 0
BBX 10 21 2 -4
BITMAP
C000
C000
C000
C000
C000
FE00
FF00
C380
C1C0
C0C0
C0C0
C0C0
C0C0
C1C0
E180
FF80
DE00
C000
C000
C000
C000
ENDCHAR
STARTCHAR 00FF
ENCODING 255
SWIDTH 454 0
DWIDTH 10 0
BBX 10 21 0 -4
BITMAP
7380
7380
7380
0000
0000
C0C0
60C0
6180
6180
3180
3300
3300
1B00
1B00
1E00
0E00
0E00
0C00
0C00
F800
F000
ENDCHAR
STARTCHAR 0100
ENCODING 256
SWIDTH 681 0
DWIDTH 15 0
BBX 15 19 0 0
BITMAP
07E0
07E0
0000
0000
0380
0380
06C0
06C0
0C60
0C60
1C60
1830
1830
3FF8
3FF8
701C
600C
600C
C006
ENDCHAR
STARTCHAR 0101
ENCODING 257
SWIDTH 500 0
DWIDTH 11 0
BBX 8 16 1 0
BITMAP
7E
7E
00
00
7C
7E
07
03
3F
7F
E3
C3
C3
E3
7F
3F
ENDCHAR
STARTCHAR 0102
ENCODING 258
SWIDTH 681 0
DWIDTH 15 0
BBX 15 19 0 0
BITMAP
0440
07C0
0380
0000
0380
0380
06C0
06C0
0C60
0C60
1C60
1830
1830
3FF8
3FF8
701C
600C
600C
C006
ENDCHAR
STARTCHAR 0103
ENCODING 259
SWIDTH 500 0
DWIDTH 11 0
BBX 8 16 1 0
BITMAP
22
3E
1C
00
7C
7E
07
03
3F
7F
E3
C3
C3
E3
7F
3F
ENDCHAR
STARTCHAR 0104
ENCODING 260
SWIDTH 681 0
DWIDTH 15 0
BBX 15 19 0 -4
BITMAP
0380
0380
06C0
06C0
0C60
0C60
1C70
1830
1830
3FF8
3FF8
701C
600C
600C
C006
000C
0018
0018
000E
ENDCHAR
STARTCHAR 0105
ENCODING 261
SWIDTH 500 0
DWIDTH 11 0
BBX 8 15 1 -3
BITMAP
7C
7E
07
03
3F
7F
E3
C3
C3
E3
7F
3F
06
0C
0F
ENDCHAR
STARTCHAR 0106
ENCODING 262
SWIDTH 636 0
DWIDTH 14 0
BBX 12 20 1 0
BITMAP
0100
0380
0700
0200
0000
07E0
1FF0
3830
6000
6000
C000
C000
C000
C000
C000
E000
6000
3810
1FF0
0FE0
ENDCHAR
STARTCHAR 0107
ENCODING 263
SWIDTH 500 0
DWIDTH 11 0
BBX 9 17 1 0
BITMAP
0200
0700
0E00
0400
0000
1F80
3F80
7000
E000
C000
C000
C000
C000
E000
7000
3F80
1F80
ENDCHAR
STARTCHAR 0108
ENCODING 264
SWIDTH 636 0
DWIDTH 14 0
BBX 12 20 1 0
BITMAP
0200
0700
0D80
0880
0000
07E0
1FF0
3830
6000
6000
C000
C000
C000
C000
C000
E000
6000
3810
1FF0
0FE0
ENDCHAR
STARTCHAR 0109
ENCODING 265
SWIDTH 500 0
DWIDTH 11 0
BBX 9 17 1 0
BITMAP
0400
0E00
1B00
1100
0000
1F80
3F80
7000
E000
C000
C000
C000
C000
E000
7000
3F80
1F80
ENDCHAR
STARTCHAR 010A
ENCODING 266
SWIDTH 636 0
DWIDTH 14 0
BBX 12 20 1 0
BITMAP
0700
0700
0700
0000
0000
07E0
1FF0
3830
6000
6000
C000
C000
C000
C000
C000
E000
6000
3810
1FF0
0FE0
ENDCHAR
STARTCHAR 010B
ENCODING 267
SWIDTH 500 0
DWIDTH 11 0
BBX 9 17 1 0
BITMAP
0E00
0E00
0E00
0000
0000
1F80
3F80
7000
E000
C000
C000
C000
C000
E000
7000
3F80
1F80
ENDCHAR
STARTCHAR 010C
ENCODING 268
SWIDTH 636 0
DWIDTH 14 0
BBX 12 20 1 0
BITMAP
0880
0D80
0700
0200
0000
07E0
1FF0
3830
6000
6000
C000
C000
C000
C000
C000
E000
6000
3810
1FF0
0FE0
ENDCHAR
STARTCHAR 010D
ENCODING 269
SWIDTH 500 0
DWIDTH 11 0
BBX 9 17 1 0
BITMAP
1100
1B00
0E00
0400
0000
1F80
3F80
7000
E000
C000
C000
C000
C000
E000
7000
3F80
1F80
ENDCHAR
STARTCHAR 010E
ENCODING 270
SWIDTH 727 0
DWIDTH 16 0
BBX 13 20 2 0
BITMAP
1100
1B00
0E00
0400
0000
FF00
FFC0
C0E0
C070
C030
C018
C018
C018
C018
C018
C030
C070
C0E0
FFC0
FF00
ENDCHAR
STARTCHAR 010F
ENCODING 271
SWIDTH 636 0
DWIDTH 14 0
BBX 13 17 1 0
BITMAP
00D8
00D8
00D8
00D8
00D0
1EC0
7FC0
61C0
E0C0
C0C0
C0C0
C0C0
C0C0
E0C0
70C0
3FC0
1FC0
ENDCHAR
STARTCHAR 0110
ENCODING 272
SWIDTH 727 0
DWIDTH 16 0
BBX 15 15 0 0
BITMAP
3FC0
3FF0
3038
301C
300C
3006
FE06
FE06
3006
3006
300C
301C
3038
3FF0
3FC0
ENDCHAR
STARTCHAR 0111
ENCODING 273
SWIDTH 590 0
DWIDTH 13 0
BBX 12 17 1 0
BITMAP
00C0
0FF0
0FF0
00C0
00C0
1EC0
7FC0
61C0
E0C0
C0C0
C0C0
C0C0
C0C0
E0C0
70C0
3FC0
1FC0
ENDCHAR
STARTCHAR 0112
ENCODING 274
SWIDTH 590 0
DWIDTH 13 0
BBX 10 19 2 0
BITMAP
3F00
3F00
0000
0000
FF80
FF80
C000
C000
C000
C000
FF80
FF80
C000
C000
C000
C000
C000
FFC0
FFC0
ENDCHAR
STARTCHAR 0113
ENCODING 275
SWIDTH 545 0
DWIDTH 12 0
BBX 10 16 1 0
BITMAP
3F00
3F00
0000
0000
1F00
3F80
6180
C0C0
C0C0
FFC0
FFC0
C000
C000
6000
3F80
1F80
ENDCHAR
STARTCHAR 0114
ENCODING 276
SWIDTH 590 0
DWIDTH 13 0
BBX 10 19 2 0
BITMAP
2200
3E00
1C00
0000
FF80
FF80
C000
C000
C000
C000
FF80
FF80
C000
C000
C000
C000
C000
FFC0
FFC0
ENDCHAR
STARTCHAR 0115
ENCODING 277
SWIDTH 545 0
DWIDTH 12 0
BBX 10 16 1 0
BITMAP
1100
1F00
0E00
0000
1F00
3F80
6180
C0C0
C0C0
FFC0
FFC0
C000
C000
6000
3F80
1F80
ENDCHAR
STARTCHAR 0116
ENCODING 278
SWIDTH 590 0
DWIDTH 13 0
BBX 10 20 2 0
BITMAP
1C00
1C00
1C00
0000
0000
FF80
FF80
C000
C000
C000
C000
FF80
FF80
C000
C000
C000
C000
C000
FFC0
FFC0
ENDCHAR
STARTCHAR 0117
ENCODING 279
SWIDTH 545 0
DWIDTH 12 0
BBX 10 17 1 0
BITMAP
0E00
0E00
0E00
0000
0000
1F00
3F80
6180
C0C0
C0C0
FFC0
FFC0
C000
C000
6000
3F80
1F80
ENDCHAR
STARTCHAR 0118
ENCODING 280
SWIDTH 590 0
DWIDTH 13 0
BBX 10 19 2 -4
BITMAP
FF80
FF80
C000
C000
C000
C000
FF80
FF80
C000
C000
C000
C000
C000
FFC0
FFC0
0180
0300
0300
01C0
ENDCHAR
STARTCHAR 0119
ENCODING 281
SWIDTH 545 0
DWIDTH 12 0
BBX 10 15 1 -3
BITMAP
1F00
3F80
6180
C0C0
C0C0
FFC0
FFC0
C000
C000
6000
3F80
1F80
0300
0600
0780
ENDCHAR
STARTCHAR 011A
ENCODING 282
SWIDTH 590 0
DWIDTH 13 0
BBX 10 20 2 0
BITMAP
2200
3600
1C00
0800
0000
FF80
FF80
C000
C000
C000
C000
FF80
FF80
C000
C000
C000
C000
C000
FFC0
FFC0
ENDCHAR
STARTCHAR 011B
ENCODING 283
SWIDTH 545 0
DWIDTH 12 0
BBX 10 18 1 0
BITMAP
1100
1B00
0E00
0400
0000
0000
1F00
3F80
6180
C0C0
C0C0
FFC0
FFC0
C000
C000
6000
3F80
1F80
ENDCHAR
STARTCHAR 011C
ENCODING 284
SWIDTH 681 0
DWIDTH 15 0
BBX 12 20 1 0
BITMAP
0200
0700
0D80
0880
0000
0FE0
1FF0
3820
6000
6000
C000
C000
C000
C030
C030
E030
6030
7830
3FF0
0FE0
ENDCHAR
STARTCHAR 011D
ENCODING 285
SWIDTH 590 0
DWIDTH 13 0
BBX 10 21 1 -4
BITMAP
0400
0E00
1B00
1100
0000
1FC0
3FC0
70C0
E0C0
C0C0
C0C0
C0C0
C0C0
E0C0
70C0
7FC0
1FC0
00C0
41C0
7F80
7F00
ENDCHAR
STARTCHAR 011E
ENCODING 286
SWIDTH 681 0
DWIDTH 15 0
BBX 12 19 1 0
BITMAP
0880
0F80
0700
0000
0FE0
1FF0
3820
6000
6000
C000
C000
C000
C030
C030
E030
6030
7830
3FF0
0FE0
ENDCHAR
STARTCHAR 011F
ENCODING 287
SWIDTH 590 0
DWIDTH 13 0
BBX 10 20 1 -4
BITMAP
1100
1F00
0E00
0000
1FC0
3FC0
70C0
E0C0
C0C0
C0C0
C0C0
C0C0
E0C0
70C0
7FC0
1FC0
00C0
41C0
7F80
7F00
ENDCHAR
STARTCHAR 0120
ENCODING 288
SWIDTH 681 0
DWIDTH 15 0
BBX 12 20 1 0
BITMAP
0700
0700
0700
0000
0000
0FE0
1FF0
3820
6000
6000
C000
C000
C000
C030
C030
E030
6030
7830
3FF0
0FE0
ENDCHAR
STARTCHAR 0121
ENCODING 289
SWIDTH 590 0
DWIDTH 13 0
BBX 10 21 1 -4
BITMAP
0E00
0E00
0E00
0000
0000
1FC0
3FC0
70C0
E0C0
C0C0
C0C0
C0C0
C0C0
E0C0
70C0
7FC0
1FC0
00C0
41C0
7F80
7F00
ENDCHAR
STARTCHAR 0122
ENCODING 290
SWIDTH 681 0
DWIDTH 15 0
BBX 12 19 1 -4
BITMAP
0FE0
1FF0
3820
6000
6000
C000
C000
C000
C030
C030
E030
6030
7830
3FF0
0FE0
0000
0300
0700
0600
ENDCHAR
STARTCHAR 0123
ENCODING 291
SWIDTH 590 0
DWIDTH 13 0
BBX 10 21 1 -4
BITMAP
0300
0700
0600
0600
0000
1FC0
3FC0
70C0
E0C0
C0C0
C0C0
C0C0
C0C0
E0C0
70C0
7FC0
1FC0
00C0
41C0
7F80
7F00
ENDCHAR
STARTCHAR 0124
ENCODING 292
SWIDTH 727 0
DWIDTH 16 0
BBX 12 20 2 0
BITMAP
0400
0E00
1B00
1100
0000
C030
C030
C030
C030
C030
C030
FFF0
FFF0
C030
C030
C030
C030
C030
C030
C030
ENDCHAR
STARTCHAR 0125
ENCODING 293
SWIDTH 590 0
DWIDTH 13 0
BBX 9 21 2 0
BITMAP
2000
7000
8800
0000
C000
C000
C000
C000
C000
FE00
FF00
C380
C180
C180
C180
C180
C180
C180
C180
C180
C180
ENDCHAR
STARTCHAR 0126
ENCODING 294
SWIDTH 727 0
DWIDTH 16 0
BBX 16 15 0 0
BITMAP
300C
FFFF
FFFF
300C
300C
300C
3FFC
3FFC
300C
300C
300C
300C
300C
300C
300C
ENDCHAR
STARTCHAR 0127
ENCODING 295
SWIDTH 590 0
DWIDTH 13 0
BBX 11 17 0 0
BITMAP
3000
FF00
FF00
3000
3000
3F80
3FC0
30E0
3060
3060
3060
3060
3060
3060
3060
3060
3060
ENDCHAR
STARTCHAR 0128
ENCODING 296
SWIDTH 272 0
DWIDTH 6 0
BBX 7 20 0 0
BITMAP
72
FE
9C
00
00
30
30
30
30
30
30
30
30
30
30
30
30
30
30
30
ENDCHAR
STARTCHAR 0129
ENCODING 297
SWIDTH 272 0
DWIDTH 6 0
BBX 7 17 0 0
BITMAP
72
FE
9C
00
00
30
30
30
30
30
30
30
30
30
30
30
30
ENDCHAR
STARTCHAR 012A
ENCODING 298
SWIDTH 272 0
DWIDTH 6 0
BBX 6 19 0 0
BITMAP
FC
FC
00
00
30
30
30
30
30
30
30
30
30
30
30
30
30
30
30
ENDCHAR
STARTCHAR 012B
ENCODING 299
SWIDTH 272 0
DWIDTH 6 0
BBX 6 16 0 0
BITMAP
FC
FC
00
00
30
30
30
30
30
30
30
30
30
30
30
30
ENDCHAR
STARTCHAR 012C
ENCODING 300
SWIDTH 272 0
DWIDTH 6 0
BBX 5 19 1 0
BITMAP
88
F8
70
00
60
60
60
60
60
60
60
60
60
60
60
60
60
60
60
ENDCHAR
STARTCHAR 012D
ENCODING 301
SWIDTH 272 0
DWIDTH 6 0
BBX 5 16 1 0
BITMAP
88
F8
70
00
60
60
60
60
60
60
60
60
60
60
60
60
ENDCHAR
STARTCHAR 012E
ENCODING 302
SWIDTH 272 0
DWIDTH 6 0
BBX 4 19 0 -4
BITMAP
30
30
30
30
30
30
30
30
30
30
30
30
30
30
30
60
C0
C0
70
ENDCHAR
STARTCHAR 012F
ENCODING 303
SWIDTH 272 0
DWIDTH 6 0
BBX 4 20 0 -4
BITMAP
30
30
00
00
30
30
30
30
30
30
30
30
30
30
30
30
60
C0
C0
70
ENDCHAR
STARTCHAR 0130
ENCODING 304
SWIDTH 272 0
DWIDTH 6 0
BBX 3 20 2 0
BITMAP
E0
E0
E0
00
00
C0
C0
C0
C0
C0
C0
C0
C0
C0
C0
C0
C0
C0
C0
C0
ENDCHAR
STARTCHAR 0131
ENCODING 305
SWIDTH 272 0
DWIDTH 6 0
BBX 2 12 2 0
BITMAP
C0
C0
C0
C0
C0
C0
C0
C0
C0
C0
C0
C0
ENDCHAR
STARTCHAR 0132
ENCODING 306
SWIDTH 772 0
DWIDTH 17 0
BBX 13 15 2 0
BITMAP
C018
C018
C018
C018
C018
C018
C018
C018
C018
C018
C018
C018
C438
CFF0
C7E0
ENDCHAR
STARTCHAR 0133
ENCODING 307
SWIDTH 500 0
DWIDTH 11 0
BBX 8 20 2 -4
BITMAP
C3
C3
00
00
C3
C3
C3
C3
C3
C3
C3
C3
C3
C3
C3
C3
03
07
1E
1C
ENDCHAR
STARTCHAR 0134
ENCODING 308
SWIDTH 500 0
DWIDTH 11 0
BBX 10 20 0 0
BITMAP
0100
0380
06C0
0440
0000
0180
0180
0180
0180
0180
0180
0180
0180
0180
0180
0180
0180
4380
FF00
7E00
ENDCHAR
STARTCHAR 0135
ENCODING 309
SWIDTH 272 0
DWIDTH 6 0
BBX 7 21 -1 -4
BITMAP
08
1C
36
22
00
18
18
18
18
18
18
18
18
18
18
18
18
18
38
F0
E0
ENDCHAR
STARTCHAR 0136
ENCODING 310
SWIDTH 636 0
DWIDTH 14 0
BBX 12 19 2 -4
BITMAP
C0E0
C1C0
C380
C700
CE00
DC00
F800
F000
FC00
DE00
CF00
C380
C1C0
C0E0
C070
0000
0C00
1C00
1800
ENDCHAR
STARTCHAR 0137
ENCODING 311
SWIDTH 500 0
DWIDTH 11 0
BBX 9 21 2 -4
BITMAP
C000
C000
C000
C000
C000
C380
C700
CE00
DC00
F800
F000
F800
DC00
CE00
C600
C300
C180
0000
1800
3800
3000
ENDCHAR
STARTCHAR 0138
ENCODING 312
SWIDTH 545 0
DWIDTH 12 0
BBX 10 12 2 0
BITMAP
C1C0
C380
C700
CC00
D800
F800
FC00
DE00
CF00
C700
C380
C1C0
ENDCHAR
STARTCHAR 0139
ENCODING 313
SWIDTH 500 0
DWIDTH 11 0
BBX 9 20 2 0
BITMAP
2000
7000
E000
4000
0000
C000
C000
C000
C000
C000
C000
C000
C000
C000
C000
C000
C000
C000
FF80
FF80
ENDCHAR
STARTCHAR 013A
ENCODING 314
SWIDTH 318 0
DWIDTH 7 0
BBX 5 21 1 0
BITMAP
30
F0
C0
00
60
60
60
60
60
60
60
60
60
60
60
60
60
60
60
78
38
ENDCHAR
STARTCHAR 013B
ENCODING 315
SWIDTH 500 0
DWIDTH 11 0
BBX 9 19 2 -4
BITMAP
C000
C000
C000
C000
C000
C000
C000
C000
C000
C000
C000
C000
C000
FF80
FF80
0000
1800
3800
3000
ENDCHAR
STARTCHAR 013C
ENCODING 316
SWIDTH 318 0
DWIDTH 7 0
BBX 5 21 1 -4
BITMAP
60
60
60
60
60
60
60
60
60
60
60
60
60
60
60
78
38
00
60
E0
C0
ENDCHAR
STARTCHAR 013D
ENCODING 317
SWIDTH 500 0
DWIDTH 11 0
BBX 9 15 2 0
BITMAP
CC00
CC00
CC00
CC00
C800
C000
C000
C000
C000
C000
C000
C000
C000
FF80
FF80
ENDCHAR
STARTCHAR 013E
ENCODING 318
SWIDTH 272 0
DWIDTH 6 0
BBX 5 17 2 0
BITMAP
D8
D8
D8
D8
D0
C0
C0
C0
C0
C0
C0
C0
C0
C0
C0
F0
70
ENDCHAR
STARTCHAR 013F
ENCODING 319
SWIDTH 500 0
DWIDTH 11 0
BBX 9 15 2 0
BITMAP
C000
C000
C000
C000
C000
C700
C700
C700
C000
C000
C000
C000
C000
FF80
FF80
ENDCHAR
STARTCHAR 0140
ENCODING 320
SWIDTH 363 0
DWIDTH 8 0
BBX 6 17 2 0
BITMAP
C0
C0
C0
C0
C0
C0
C0
DC
DC
DC
C0
C0
C0
C0
C0
F0
70
ENDCHAR
STARTCHAR 0141
ENCODING 321
SWIDTH 545 0
DWIDTH 12 0
BBX 12 15 0 0
BITMAP
3000
3000
3000
3000
3000
3600
3C00
7000
F000
3000
3000
3000
3000
3FF0
3FF0
ENDCHAR
STARTCHAR 0142
ENCODING 322
SWIDTH 318 0
DWIDTH 7 0
BBX 6 17 0 0
BITMAP
30
30
30
30
30
30
3C
3C
F0
F0
30
30
30
30
30
3C
1C
ENDCHAR
STARTCHAR 0143
ENCODING 323
SWIDTH 727 0
DWIDTH 16 0
BBX 12 20 2 0
BITMAP
0100
0380
0700
0200
0000
C030
E030
F030
F830
D830
CC30
C630
C730
C330
C1B0
C0F0
C0F0
C070
C030
C030
ENDCHAR
STARTCHAR 0144
ENCODING 324
SWIDTH 590 0
DWIDTH 13 0
BBX 9 17 2 0
BITMAP
0400
0E00
1C00
0800
0000
FE00
FF00
C380
C180
C180
C180
C180
C180
C180
C180
C180
C180
ENDCHAR
STARTCHAR 0145
ENCODING 325
SWIDTH 727 0
DWIDTH 16 0
BBX 12 19 2 -4
BITMAP
C030
E030
F030
F830
D830
CC30
C630
C730
C330
C1B0
C0F0
C0F0
C070
C030
C030
0000
0600
0E00
0C00
ENDCHAR
STARTCHAR 0146
ENCODING 326
SWIDTH 590 0
DWIDTH 13 0
BBX 9 16 2 -4
BITMAP
FE00
FF00
C380
C180
C180
C180
C180
C180
C180
C180
C180
C180
0000
1800
3800
3000
ENDCHAR
STARTCHAR 0147
ENCODING 327
SWIDTH 727 0
DWIDTH 16 0
BBX 12 20 2 0
BITMAP
1100
1B00
0E00
0400
0000
C030
E030
F030
F830
D830
CC30
C630
C730
C330
C1B0
C0F0
C0F0
C070
C030
C030
ENDCHAR
STARTCHAR 0148
ENCODING 328
SWIDTH 590 0
DWIDTH 13 0
BBX 9 17 2 0
BITMAP
2200
3600
1C00
0800
0000
FE00
FF00
C380
C180
C180
C180
C180
C180
C180
C180
C180
C180
ENDCHAR
STARTCHAR 0149
ENCODING 329
SWIDTH 590 0
DWIDTH 13 0
BBX 11 18 0 0
BITMAP
6000
6000
6000
C000
C000
0000
3F80
3FC0
30E0
3060
3060
3060
3060
3060
3060
3060
3060
3060
ENDCHAR
STARTCHAR 014A
ENCODING 330
SWIDTH 727 0
DWIDTH 16 0
BBX 12 19 2 -4
BITMAP
C030
E030
F030
F830
D830
CC30
C630
C730
C330
C1B0
C0F0
C0F0
C070
C030
C030
0030
0030
01F0
01E0
ENDCHAR
STARTCHAR 014B
ENCODING 331
SWIDTH 590 0
DWIDTH 13 0
BBX 9 16 2 -4
BITMAP
FE00
FF00
C380
C180
C180
C180
C180
C180
C180
C180
C180
C180
0180
0180
0F80
0F00
ENDCHAR
STARTCHAR 014C
ENCODING 332
SWIDTH 772 0
DWIDTH 17 0
BBX 15 19 1 0
BITMAP
07E0
07E0
0000
0000
07C0
1FF0
3838
600C
E00C
C006
C006
C006
C006
C006
E00C
600C
3838
1FF0
07C0
ENDCHAR
STARTCHAR 014D
ENCODING 333
SWIDTH 590 0
DWIDTH 13 0
BBX 11 16 1 0
BITMAP
1F80
1F80
0000
0000
1F00
3F80
71C0
E0E0
C060
C060
C060
C060
E0E0
71C0
3F80
1F00
ENDCHAR
STARTCHAR 014E
ENCODING 334
SWIDTH 772 0
DWIDTH 17 0
BBX 15 19 1 0
BITMAP
0440
07C0
0380
0000
07C0
1FF0
3838
600C
E00C
C006
C006
C006
C006
C006
E00C
600C
3838
1FF0
07C0
ENDCHAR
STARTCHAR 014F
ENCODING 335
SWIDTH 590 0
DWIDTH 13 0
BBX 11 16 1 0
BITMAP
1100
1F00
0E00
0000
1F00
3F80
71C0
E0E0
C060
C060
C060
C060
E0E0
71C0
3F80
1F00
ENDCHAR
STARTCHAR 0150
ENCODING 336
SWIDTH 772 0
DWIDTH 17 0
BBX 15 20 1 0
BITMAP
0220
0770
0EE0
0440
0000
07C0
1FF0
3838
600C
E00C
C006
C006
C006
C006
C006
E00C
600C
3838
1FF0
07C0
ENDCHAR
STARTCHAR 0151
ENCODING 337
SWIDTH 590 0
DWIDTH 13 0
BBX 11 17 1 0
BITMAP
0880
1DC0
3B80
1100
0000
1F00
3F80
71C0
E0E0
C060
C060
C060
C060
E0E0
71C0
3F80
1F00
ENDCHAR
STARTCHAR 0152
ENCODING 338
SWIDTH 1000 0
DWIDTH 22 0
BBX 20 15 1 0
BITMAP
07FFE0
1FFFE0
383000
703000
603000
C03000
C03FE0
C03FE0
C03000
C03000
603000
703000
383000
1FFFF0
07FFF0
ENDCHAR
STARTCHAR 0153
ENCODING 339
SWIDTH 954 0
DWIDTH 21 0
BBX 19 12 1 0
BITMAP
1F0F00
3F9FC0
71F0C0
E0F060
C06060
C07FE0
C07FE0
C06000
E0E000
71F000
3F9FC0
1F0FC0
ENDCHAR
STARTCHAR 0154
ENCODING 340
SWIDTH 636 0
DWIDTH 14 0
BBX 12 20 2 0
BITMAP
0400
0E00
1C00
0800
0000
FF00
FFC0
C0E0
C060
C060
C060
C0E0
FFC0
FF00
C380
C180
C0C0
C0E0
C070
C030
ENDCHAR
STARTCHAR 0155
ENCODING 341
SWIDTH 363 0
DWIDTH 8 0
BBX 6 17 2 0
BITMAP
08
1C
38
10
00
7C
FC
C0
C0
C0
C0
C0
C0
C0
C0
C0
C0
ENDCHAR
STARTCHAR 0156
ENCODING 342
SWIDTH 636 0
DWIDTH 14 0
BBX 12 19 2 -4
BITMAP
FF00
FFC0
C0E0
C060
C060
C060
C0E0
FFC0
FF00
C380
C180
C0C0
C0E0
C070
C030
0000
0C00
1C00
1800
ENDCHAR
STARTCHAR 0157
ENCODING 343
SWIDTH 363 0
DWIDTH 8 0
BBX 7 16 1 -4
BITMAP
3E
7E
60
60
60
60
60
60
60
60
60
60
00
60
E0
C0
ENDCHAR
STARTCHAR 0158
ENCODING 344
SWIDTH 636 0
DWIDTH 14 0
BBX 12 20 2 0
BITMAP
2200
3600
1C00
0800
0000
FF00
FFC0
C0E0
C060
C060
C060
C0E0
FFC0
FF00
C380
C180
C0C0
C0E0
C070
C030
ENDCHAR
STARTCHAR 0159
ENCODING 345
SWIDTH 363 0
DWIDTH 8 0
BBX 6 17 2 0
BITMAP
44
6C
38
10
00
7C
FC
C0
C0
C0
C0
C0
C0
C0
C0
C0
C0
ENDCHAR
STARTCHAR 015A
ENCODING 346
SWIDTH 545 0
DWIDTH 12 0
BBX 10 20 1 0
BITMAP
0200
0700
0E00
0400
0000
3F00
7F80
E000
C000
C000
E000
7800
3F00
0780
01C0
00C0
00C0
C1C0
FF80
7F00
ENDCHAR
STARTCHAR 015B
ENCODING 347
SWIDTH 454 0
DWIDTH 10 0
BBX 8 17 1 0
BITMAP
04
0E
1C
08
00
3E
7E
C0
C0
E0
7C
3E
07
03
83
FE
FC
ENDCHAR
STARTCHAR 015C
ENCODING 348
SWIDTH 545 0
DWIDTH 12 0
BBX 10 20 1 0
BITMAP
0400
0E00
1B00
1100
0000
3F00
7F80
E000
C000
C000
E000
7800
3F00
0780
01C0
00C0
00C0
C1C0
FF80
7F00
ENDCHAR
STARTCHAR 015D
ENCODING 349
SWIDTH 454 0
DWIDTH 10 0
BBX 8 17 1 0
BITMAP
08
1C
36
22
00
3E
7E
C0
C0
E0
7C
3E
07
03
83
FE
FC
ENDCHAR
STARTCHAR 015E
ENCODING 350
SWIDTH 545 0
DWIDTH 12 0
BBX 10 18 1 -3
BITMAP
3F00
7F80
E000
C000
C000
E000
7800
3F00
0780
01C0
00C0
00C0
C1C0
FF80
7F00
0C00
0600
1E00
ENDCHAR
STARTCHAR 015F
ENCODING 351
SWIDTH 454 0
DWIDTH 10 0
BBX 8 15 1 -3
BITMAP
3E
7E
C0
C0
E0
78
1E
07
03
83
FF
FC
18
0C
3C
ENDCHAR
STARTCHAR 0160
ENCODING 352
SWIDTH 545 0
DWIDTH 12 0
BBX 10 20 1 0
BITMAP
1100
1B00
0E00
0400
0000
3F00
7F80
E000
C000
C000
E000
7800
3F00
0780
01C0
00C0
00C0
C1C0
FF80
7F00
ENDCHAR
STARTCHAR 0161
ENCODING 353
SWIDTH 454 0
DWIDTH 10 0
BBX 8 17 1 0
BITMAP
44
6C
38
10
00
3E
7E
C0
C0
E0
7C
3E
07
03
83
FE
FC
ENDCHAR
STARTCHAR 0162
ENCODING 354
SWIDTH 545 0
DWIDTH 12 0
BBX 12 19 0 -4
BITMAP
FFF0
FFF0
0600
0600
0600
0600
0600
0600
0600
0600
0600
0600
0600
0600
0600
0400
0700
0300
0E00
ENDCHAR
STARTCHAR 0163
ENCODING 355
SWIDTH 409 0
DWIDTH 9 0
BBX 6 19 2 -3
BITMAP
C0
C0
C0
C0
FC
FC
C0
C0
C0
C0
C0
C0
C0
C0
7C
7C
30
18
78
ENDCHAR
STARTCHAR 0164
ENCODING 356
SWIDTH 545 0
DWIDTH 12 0
BBX 12 20 0 0
BITMAP
1100
1B00
0E00
0400
0000
FFF0
FFF0
0600
0600
0600
0600
0600
0600
0600
0600
0600
0600
0600
0600
0600
ENDCHAR
STARTCHAR 0165
ENCODING 357
SWIDTH 409 0
DWIDTH 9 0
BBX 6 17 2 0
BITMAP
18
D8
D8
D0
C0
FC
FC
C0
C0
C0
C0
C0
C0
C0
C0
7C
7C
ENDCHAR
STARTCHAR 0166
ENCODING 358
SWIDTH 545 0
DWIDTH 12 0
BBX 12 15 0 0
BITMAP
FFF0
FFF0
0600
0600
0600
0600
0600
3FC0
3FC0
0600
0600
0600
0600
0600
0600
ENDCHAR
STARTCHAR 0167
ENCODING 359
SWIDTH 409 0
DWIDTH 9 0
BBX 7 16 2 0
BITMAP
C0
C0
C0
C0
FE
FE
C0
C0
C0
FE
FE
C0
C0
E0
7E
3E
ENDCHAR
STARTCHAR 0168
ENCODING 360
SWIDTH 681 0
DWIDTH 15 0
BBX 11 20 2 0
BITMAP
1C80
3F80
2700
0000
0000
C060
C060
C060
C060
C060
C060
C060
C060
C060
C060
C060
E0E0
71C0
7FC0
1F00
ENDCHAR
STARTCHAR 0169
ENCODING 361
SWIDTH 590 0
DWIDTH 13 0
BBX 9 17 2 0
BITMAP
3900
7F00
4E00
0000
0000
C180
C180
C180
C180
C180
C180
C180
C180
C180
E180
7F80
3F80
ENDCHAR
STARTCHAR 016A
ENCODING 362
SWIDTH 681 0
DWIDTH 15 0
BBX 11 19 2 0
BITMAP
1F80
1F80
0000
0000
C060
C060
C060
C060
C060
C060
C060
C060
C060
C060
C060
E0E0
71C0
7FC0
1F00
ENDCHAR
STARTCHAR 016B
ENCODING 363
SWIDTH 590 0
DWIDTH 13 0
BBX 9 16 2 0
BITMAP
3F00
3F00
0000
0000
C180
C180
C180
C180
C180
C180
C180
C180
C180
E180
7F80
3F80
ENDCHAR
STARTCHAR 016C
ENCODING 364
SWIDTH 681 0
DWIDTH 15 0
BBX 11 19 2 0
BITMAP
1100
1F00
0E00
0000
C060
C060
C060
C060
C060
C060
C060
C060
C060
C060
C060
E0E0
71C0
7FC0
1F00
ENDCHAR
STARTCHAR 016D
ENCODING 365
SWIDTH 590 0
DWIDTH 13 0
BBX 9 16 2 0
BITMAP
2200
3E00
1C00
0000
C180
C180
C180
C180
C180
C180
C180
C180
C180
E180
7F80
3F80
ENDCHAR
STARTCHAR 016E
ENCODING 366
SWIDTH 681 0
DWIDTH 15 0
BBX 11 20 2 0
BITMAP
0E00
1B00
1B00
0E00
0000
C060
C060
C060
C060
C060
C060
C060
C060
C060
C060
C060
E0E0
71C0
7FC0
1F00
ENDCHAR
STARTCHAR 016F
ENCODING 367
SWIDTH 590 0
DWIDTH 13 0
BBX 9 17 2 0
BITMAP
1C00
3600
3600
1C00
0000
C180
C180
C180
C180
C180
C180
C180
C180
C180
E180
7F80
3F80
ENDCHAR
STARTCHAR 0170
ENCODING 368
SWIDTH 681 0
DWIDTH 15 0
BBX 11 20 2 0
BITMAP
0880
1DC0
3B80
1100
0000
C060
C060
C060
C060
C060
C060
C060
C060
C060
C060
C060
E0E0
71C0
7FC0
1F00
ENDCHAR
STARTCHAR 0171
ENCODING 369
SWIDTH 590 0
DWIDTH 13 0
BBX 9 17 2 0
BITMAP
1100
3B80
7700
2200
0000
C180
C180
C180
C180
C180
C180
C180
C180
C180
E180
7F80
3F80
ENDCHAR
STARTCHAR 0172
ENCODING 370
SWIDTH 681 0
DWIDTH 15 0
BBX 11 18 2 -3
BITMAP
C060
C060
C060
C060
C060
C060
C060
C060
C060
C060
C060
E0E0
61C0
7F80
1F00
0400
0C00
0F00
ENDCHAR
STARTCHAR 0173
ENCODING 371
SWIDTH 590 0
DWIDTH 13 0
BBX 9 15 2 -3
BITMAP
C180
C180
C180
C180
C180
C180
C180
C180
C180
E180
7F80
3F80
0300
0600
0780
ENDCHAR
STARTCHAR 0174
ENCODING 372
SWIDTH 954 0
DWIDTH 21 0
BBX 19 20 1 0
BITMAP
004000
00E000
01B000
011000
000000
C00060
C00060
C0E060
60E0C0
60E0C0
61B0C0
61B0C0
61B0C0
7319C0
331980
360D80
360D80
3E0F80
1C0700
1C0700
ENDCHAR
STARTCHAR 0175
ENCODING 373
SWIDTH 772 0
DWIDTH 17 0
BBX 17 17 0 0
BITMAP
008000
01C000
036000
022000
000000
C0C180
C0C180
60C300
61E300
616300
636300
327600
363600
363600
1C3C00
1C1C00
181C00
ENDCHAR
STARTCHAR 0176
ENCODING 374
SWIDTH 545 0
DWIDTH 12 0
BBX 12 20 0 0
BITMAP
0400
0E00
1B00
1100
0000
C030
6060
6060
30C0
39C0
1980
0F00
0F00
0600
0600
0600
0600
0600
0600
0600
ENDCHAR
STARTCHAR 0177
ENCODING 375
SWIDTH 454 0
DWIDTH 10 0
BBX 10 21 0 -4
BITMAP
0400
0E00
1B00
1100
0000
C0C0
60C0
6180
6180
3180
3300
3300
1B00
1B00
1E00
0E00
0E00
0C00
0C00
F800
F000
ENDCHAR
STARTCHAR 0178
ENCODING 376
SWIDTH 545 0
DWIDTH 12 0
BBX 12 20 0 0
BITMAP
39C0
39C0
39C0
0000
0000
C030
6060
6060
30C0
39C0
1980
0F00
0F00
0600
0600
0600
0600
0600
0600
0600
ENDCHAR
STARTCHAR 0179
ENCODING 377
SWIDTH 590 0
DWIDTH 13 0
BBX 11 20 1 0
BITMAP
0200
0700
0E00
0400
0000
FFE0
FFE0
00E0
01C0
0380
0300
0600
0C00
1C00
3800
3000
6000
E000
FFE0
FFE0
ENDCHAR
STARTCHAR 017A
ENCODING 378
SWIDTH 454 0
DWIDTH 10 0
BBX 8 17 1 0
BITMAP
08
1C
38
10
00
FF
FF
07
0E
0C
18
38
30
60
E0
FF
FF
ENDCHAR
STARTCHAR 017B
ENCODING 379
SWIDTH 590 0
DWIDTH 13 0
BBX 11 20 1 0
BITMAP
0E00
0E00
0E00
0000
0000
FFE0
FFE0
00E0
01C0
0380
0300
0600
0C00
1C00
3800
3000
6000
E000
FFE0
FFE0
ENDCHAR
STARTCHAR 017C
ENCODING 380
SWIDTH 454 0
DWIDTH 10 0
BBX 8 17 1 0
BITMAP
38
38
38
00
00
FF
FF
07
0E
0C
18
38
30
60
E0
FF
FF
ENDCHAR
STARTCHAR 017D
ENCODING 381
SWIDTH 590 0
DWIDTH 13 0
BBX 11 20 1 0
BITMAP
1100
1B00
0E00
0400
0000
FFE0
FFE0
00E0
01C0
0380
0300
0600
0C00
1C00
3800
3000
6000
E000
FFE0
FFE0
ENDCHAR
STARTCHAR 017E
ENCODING 382
SWIDTH 454 0
DWIDTH 10 0
BBX 8 17 1 0
BITMAP
44
6C
38
10
00
FF
FF
07
0E
0C
18
38
30
60
E0
FF
FF
ENDCHAR
STARTCHAR 017F
ENCODING 383
SWIDTH 272 0
DWIDTH 6 0
BBX 7 17 2 0
BITMAP
3E
7E
E0
C0
C0
C0
C0
C0
C0
C0
C0
C0
C0
C0
C0
C0
C0
ENDCHAR
STARTCHAR 0180
ENCODING 384
SWIDTH 590 0
DWIDTH 13 0
BBX 12 17 0 0
BITMAP
3000
FF00
FF00
3000
3000
3780
3FE0
3860
3070
3030
3030
3030
3030
3070
30E0
3FC0
3F80
ENDCHAR
STARTCHAR 0181
ENCODING 385
SWIDTH 727 0
DWIDTH 16 0
BBX 15 15 0 0
BITMAP
3FE0
7FF8
EC1C
CC0C
CC0C
0C1C
0FF0
0FF8
0C0E
0C06
0C06
0C06
0C0E
0FFC
0FF0
ENDCHAR
STARTCHAR 0182
ENCODING 386
SWIDTH 636 0
DWIDTH 14 0
BBX 11 15 2 0
BITMAP
FFC0
FFC0
C000
C000
C000
FF00
FFC0
C1C0
C060
C060
C060
C060
C1C0
FFC0
FF00
ENDCHAR
STARTCHAR 0183
ENCODING 387
SWIDTH 590 0
DWIDTH 13 0
BBX 10 17 2 0
BITMAP
FF80
FF80
C000
C000
C000
DE00
FF80
E180
C1C0
C0C0
C0C0
C0C0
C0C0
C1C0
C380
FF00
FE00
ENDCHAR
STARTCHAR 0184
ENCODING 388
SWIDTH 590 0
DWIDTH 13 0
BBX 11 17 1 0
BITMAP
2000
E000
E000
6000
6000
6F00
7FC0
70C0
60E0
6060
6060
6060
6060
60E0
61C0
7F80
7F00
ENDCHAR
STARTCHAR 0185
ENCODING 389
SWIDTH 636 0
DWIDTH 14 0
BBX 12 15 1 0
BITMAP
2000
E000
E000
6000
6000
7F80
7FE0
60E0
6030
6030
6030
6030
60E0
7FE0
7F80
ENDCHAR
STARTCHAR 0186
ENCODING 390
SWIDTH 636 0
DWIDTH 14 0
BBX 12 15 1 0
BITMAP
7F00
FF80
81C0
0060
0070
0030
0030
0030
0030
0030
0070
0060
81C0
FF80
7F00
ENDCHAR
STARTCHAR 0187
ENCODING 391
SWIDTH 681 0
DWIDTH 15 0
BBX 15 17 1 0
BITMAP
001E
003E
0FF0
1FF0
3820
6000
6000
C000
C000
C000
C000
C000
E000
6000
3810
1FF0
0FE0
ENDCHAR
STARTCHAR 0188
ENCODING 392
SWIDTH 500 0
DWIDTH 11 0
BBX 12 14 1 0
BITMAP
01F0
03F0
1F80
7F00
7000
E000
C000
C000
C000
C000
E000
7000
3F80
1F80
ENDCHAR
STARTCHAR 0189
ENCODING 393
SWIDTH 727 0
DWIDTH 16 0
BBX 15 15 0 0
BITMAP
3FC0
3FF0
3038
301C
300C
3006
FE06
FE06
3006
3006
300C
301C
3038
3FF0
3FC0
ENDCHAR
STARTCHAR 018A
ENCODING 394
SWIDTH 818 0
DWIDTH 18 0
BBX 17 15 0 0
BITMAP
1FF000
7FFC00
EC0E00
CC0700
CC0300
0C0180
0C0180
0C0180
0C0180
0C0180
0C0380
0C0700
0C0E00
0FFC00
0FF000
ENDCHAR
STARTCHAR 018B
ENCODING 395
SWIDTH 636 0
DWIDTH 14 0
BBX 11 15 1 0
BITMAP
7FE0
7FE0
0060
0060
0060
1FE0
7FE0
7060
C060
C060
C060
C060
7060
7FE0
1FE0
ENDCHAR
STARTCHAR 018C
ENCODING 396
SWIDTH 590 0
DWIDTH 13 0
BBX 10 17 1 0
BITMAP
7FC0
7FC0
00C0
00C0
00C0
1EC0
7FC0
61C0
E0C0
C0C0
C0C0
C0C0
C0C0
E0C0
70C0
3FC0
1FC0
ENDCHAR
STARTCHAR 018D
ENCODING 397
SWIDTH 590 0
DWIDTH 13 0
BBX 11 16 1 -4
BITMAP
1F00
7FC0
60C0
C060
C060
C060
C060
E0C0
71C0
3F80
1E00
0700
0180
4180
7F80
7E00
ENDCHAR
STARTCHAR 018E
ENCODING 398
SWIDTH 590 0
DWIDTH 13 0
BBX 10 15 1 0
BITMAP
FFC0
FFC0
00C0
00C0
00C0
00C0
7FC0
7FC0
00C0
00C0
00C0
00C0
00C0
FFC0
FFC0
ENDCHAR
STARTCHAR 018F
ENCODING 399
SWIDTH 727 0
DWIDTH 16 0
BBX 14 15 1 0
BITMAP
3F80
7FE0
6070
0018
001C
000C
000C
FFFC
FFFC
C00C
C00C
6018
7070
3FE0
0FC0
ENDCHAR
STARTCHAR 0190
ENCODING 400
SWIDTH 590 0
DWIDTH 13 0
BBX 11 15 1 0
BITMAP
1F80
3FC0
7000
6000
6000
3000
1F00
3F00
6000
C000
C000
C000
E060
7FE0
1FC0
ENDCHAR
STARTCHAR 0191
ENCODING 401
SWIDTH 545 0
DWIDTH 12 0
BBX 12 19 -1 -4
BITMAP
1FF0
1FF0
1800
1800
1800
1800
1FE0
1FE0
1800
1800
1800
1800
1800
1800
1800
1800
1800
F800
F000
ENDCHAR
STARTCHAR 0192
ENCODING 402
SWIDTH 363 0
DWIDTH 8 0
BBX 9 21 -1 -4
BITMAP
0780
0F80
1C00
1800
1800
1F80
1F80
1800
1800
1800
1800
1800
1800
1800
1800
1800
1800
1800
3800
F000
E000
ENDCHAR
STARTCHAR 0193
ENCODING 403
SWIDTH 681 0
DWIDTH 15 0
BBX 15 17 1 0
BITMAP
001E
003E
0FF0
1FE0
3820
6000
E000
C000
C000
C000
C030
C030
E030
6030
7830
3FF0
0FE0
ENDCHAR
STARTCHAR 0194
ENCODING 404
SWIDTH 636 0
DWIDTH 14 0
BBX 14 19 0 -3
BITMAP
C00C
6018
6018
3030
3870
1860
1CE0
0CC0
0FC0
0780
0380
0300
0780
0780
0CC0
0CC0
0CC0
0FC0
0780
ENDCHAR
STARTCHAR 0195
ENCODING 405
SWIDTH 909 0
DWIDTH 20 0
BBX 16 17 2 0
BITMAP
C000
C000
C000
C000
C000
FE03
FF03
C383
C183
C183
C183
C183
C183
C183
C1C7
C0FE
C07C
ENDCHAR
STARTCHAR 0196
ENCODING 406
SWIDTH 363 0
DWIDTH 8 0
BBX 6 15 2 0
BITMAP
C0
C0
C0
C0
C0
C0
C0
C0
C0
C0
C0
C0
E0
7C
3C
ENDCHAR
STARTCHAR 0197
ENCODING 407
SWIDTH 318 0
DWIDTH 7 0
BBX 6 15 0 0
BITMAP
30
30
30
30
30
30
FC
FC
30
30
30
30
30
30
30
ENDCHAR
STARTCHAR 0198
ENCODING 408
SWIDTH 681 0
DWIDTH 15 0
BBX 12 15 2 0
BITMAP
C0E0
C0F0
C180
C700
CE00
DC00
D800
F800
FC00
DE00
CF00
C380
C1C0
C0E0
C070
ENDCHAR
STARTCHAR 0199
ENCODING 409
SWIDTH 500 0
DWIDTH 11 0
BBX 9 17 2 0
BITMAP
7800
F800
C000
C000
C000
C380
C700
CE00
DC00
F800
F000
F800
DC00
CE00
C600
C300
C180
ENDCHAR
STARTCHAR 019A
ENCODING 410
SWIDTH 318 0
DWIDTH 7 0
BBX 6 17 0 0
BITMAP
30
30
30
30
30
30
30
FC
FC
30
30
30
30
30
30
3C
1C
ENDCHAR
STARTCHAR 019B
ENCODING 411
SWIDTH 500 0
DWIDTH 11 0
BBX 11 17 0 0
BITMAP
F000
F800
1F80
7F00
7C00
0C00
1E00
1E00
1B00
3B00
3300
3180
7180
60C0
60C0
E0C0
C060
ENDCHAR
STARTCHAR 019C
ENCODING 412
SWIDTH 1000 0
DWIDTH 22 0
BBX 18 15 2 0
BITMAP
C0C0C0
C0C0C0
C0C0C0
C0C0C0
C0C0C0
C0C0C0
C0C0C0
C0C0C0
C0C0C0
C0C0C0
C0C0C0
C0C0C0
E0E0C0
7FFFC0
3F3FC0
ENDCHAR
STARTCHAR 019D
ENCODING 413
SWIDTH 727 0
DWIDTH 16 0
BBX 15 19 -1 -4
BITMAP
1806
1C06
1E06
1F06
1B06
1986
18C6
18E6
1866
1836
181E
181E
180E
1806
1806
1800
1800
F800
F000
ENDCHAR
STARTCHAR 019E
ENCODING 414
SWIDTH 590 0
DWIDTH 13 0
BBX 9 16 2 -4
BITMAP
FE00
FF00
C380
C180
C180
C180
C180
C180
C180
C180
C180
C180
0180
0180
0180
0180
ENDCHAR
STARTCHAR 019F
ENCODING 415
SWIDTH 772 0
DWIDTH 17 0
BBX 15 15 1 0
BITMAP
07C0
1FF0
3838
600C
C004
C006
FFFE
FFFE
C006
C006
E00C
600C
3838
1FF0
07C0
ENDCHAR
STARTCHAR 01A0
ENCODING 416
SWIDTH 772 0
DWIDTH 17 0
BBX 15 17 1 0
BITMAP
0006
0006
07C6
1FFC
3838
600C
E00C
C006
C006
C006
C006
C006
E00E
600C
3838
1FF0
07C0
ENDCHAR
STARTCHAR 01A1
ENCODING 417
SWIDTH 590 0
DWIDTH 13 0
BBX 12 14 1 0
BITMAP
0030
0030
1F30
3FE0
71C0
E0E0
C060
C060
C060
C060
E0E0
71C0
3F80
1F00
ENDCHAR
STARTCHAR 01A2
ENCODING 418
SWIDTH 1045 0
DWIDTH 23 0
BBX 20 15 1 0
BITMAP
0FC7C0
1FFFE0
387870
601830
E01830
C00C30
C00C30
C00C30
C00C30
C00C30
E01C30
601830
387830
1FF030
0FC030
ENDCHAR
STARTCHAR 01A3
ENCODING 419
SWIDTH 818 0
DWIDTH 18 0
BBX 15 16 1 -4
BITMAP
1E78
3FFC
618E
E1C6
C0C6
C0C6
C0C6
C0C6
E1C6
6186
3F06
1E06
0006
0006
0006
0006
ENDCHAR
STARTCHAR 01A4
ENCODING 420
SWIDTH 727 0
DWIDTH 16 0
BBX 15 15 0 0
BITMAP
1FF0
7FFC
EC0E
CC06
CC06
0C06
0C0E
0FFC
0FF0
0C00
0C00
0C00
0C00
0C00
0C00
ENDCHAR
STARTCHAR 01A5
ENCODING 421
SWIDTH 590 0
DWIDTH 13 0
BBX 10 21 2 -4
BITMAP
7800
F800
C000
C000
C000
FE00
FF00
C380
C1C0
C0C0
C0C0
C0C0
C0C0
C1C0
E180
FF80
DE00
C000
C000
C000
C000
ENDCHAR
STARTCHAR 01A6
ENCODING 422
SWIDTH 636 0
DWIDTH 14 0
BBX 13 19 2 -2
BITMAP
C000
C000
FF00
FFC0
C0E0
C060
C060
C060
C0E0
FFC0
FF00
C380
C180
C0C0
C0E0
C060
C030
0030
0018
ENDCHAR
STARTCHAR 01A7
ENCODING 423
SWIDTH 545 0
DWIDTH 12 0
BBX 10 15 1 0
BITMAP
3F00
7F80
01C0
00C0
00C0
01C0
0780
3F00
7800
E000
C000
C000
E0C0
7FC0
3F80
ENDCHAR
STARTCHAR 01A8
ENCODING 424
SWIDTH 454 0
DWIDTH 10 0
BBX 8 12 1 0
BITMAP
7C
7E
03
03
07
3E
78
E0
C0
C1
7F
3F
ENDCHAR
STARTCHAR 01A9
ENCODING 425
SWIDTH 545 0
DWIDTH 12 0
BBX 10 15 1 0
BITMAP
FFC0
FFC0
6000
3000
3800
1800
0C00
0600
0C00
1800
3000
7000
6000
FFC0
FFC0
ENDCHAR
STARTCHAR 01AA
ENCODING 426
SWIDTH 272 0
DWIDTH 6 0
BBX 9 21 -3 -4
BITMAP
3C00
7C00
C600
C600
C600
FE00
7E00
0600
0600
0600
0600
0600
0600
0600
0600
0600
0600
0600
0600
0780
0380
ENDCHAR
STARTCHAR 01AB
ENCODING 427
SWIDTH 409 0
DWIDTH 9 0
BBX 7 20 2 -4
BITMAP
C0
C0
C0
C0
FE
FE
C0
C0
C0
C0
C0
C0
C0
E0
7E
3E
06
06
3E
3C
ENDCHAR
STARTCHAR 01AC
ENCODING 428
SWIDTH 545 0
DWIDTH 12 0
BBX 12 15 0 0
BITMAP
3FF0
7FF0
E600
C600
C600
0600
0600
0600
0600
0600
0600
0600
0600
0600
0600
ENDCHAR
STARTCHAR 01AD
ENCODING 429
SWIDTH 409 0
DWIDTH 9 0
BBX 7 17 2 0
BITMAP
3E
7E
E0
C0
C0
FE
FE
C0
C0
C0
C0
C0
C0
C0
E0
7E
3E
ENDCHAR
STARTCHAR 01AE
ENCODING 430
SWIDTH 545 0
DWIDTH 12 0
BBX 12 19 0 -4
BITMAP
FFF0
FFF0
0600
0600
0600
0600
0600
0600
0600
0600
0600
0600
0600
0600
0600
0600
0600
07C0
03C0
ENDCHAR
STARTCHAR 01AF
ENCODING 431
SWIDTH 727 0
DWIDTH 16 0
BBX 15 17 2 0
BITMAP
0006
0006
C03E
C03C
C030
C030
C030
C030
C030
C030
C030
C030
C030
E070
70E0
3FC0
1F80
ENDCHAR
STARTCHAR 01B0
ENCODING 432
SWIDTH 590 0
DWIDTH 13 0
BBX 12 14 2 0
BITMAP
0030
0030
C1F0
C1E0
C180
C180
C180
C180
C180
C180
C180
E180
7F80
3F80
ENDCHAR
STARTCHAR 01B1
ENCODING 433
SWIDTH 772 0
DWIDTH 17 0
BBX 15 15 1 0
BITMAP
FC7E
FC7E
1830
3018
600C
4004
C006
C006
C006
C006
E00E
600C
3838
1FF0
0FC0
ENDCHAR
STARTCHAR 01B2
ENCODING 434
SWIDTH 681 0
DWIDTH 15 0
BBX 12 15 2 0
BITMAP
C380
C3E0
C060
C070
C030
C030
C030
C030
C030
C030
C030
E060
70E0
7FC0
1F00
ENDCHAR
STARTCHAR 01B3
ENCODING 435
SWIDTH 636 0
DWIDTH 14 0
BBX 14 15 0 0
BITMAP
C038
607C
6060
30C0
39C0
1980
0F00
0F00
0600
0600
0600
0600
0600
0600
0600
ENDCHAR
STARTCHAR 01B4
ENCODING 436
SWIDTH 590 0
DWIDTH 13 0
BBX 13 16 0 -4
BITMAP
C078
E0F8
60C0
60C0
7180
3180
3180
1B80
1B00
1F00
0E00
0E00
0E00
0C00
F800
F000
ENDCHAR
STARTCHAR 01B5
ENCODING 437
SWIDTH 590 0
DWIDTH 13 0
BBX 11 15 1 0
BITMAP
FFE0
FFE0
00E0
01C0
0180
0300
7FE0
7FE0
0C00
1800
3000
6000
E000
FFE0
FFE0
ENDCHAR
STARTCHAR 01B6
ENCODING 438
SWIDTH 454 0
DWIDTH 10 0
BBX 8 12 1 0
BITMAP
FF
FF
07
06
0C
7F
7F
30
60
E0
FF
FF
ENDCHAR
STARTCHAR 01B7
ENCODING 439
SWIDTH 545 0
DWIDTH 12 0
BBX 10 15 1 0
BITMAP
7FC0
7FC0
0180
0300
0600
0C00
1F00
1F80
01C0
00C0
00C0
00C0
C1C0
FF80
7E00
ENDCHAR
STARTCHAR 01B8
ENCODING 440
SWIDTH 545 0
DWIDTH 12 0
BBX 10 15 1 0
BITMAP
FF80
FF80
6000
3000
1800
0C00
1E00
7E00
E000
C000
C000
C000
E0C0
7FC0
1F80
ENDCHAR
STARTCHAR 01B9
ENCODING 441
SWIDTH 454 0
DWIDTH 10 0
BBX 9 16 1 -4
BITMAP
7F00
7F00
3000
3000
1800
1C00
3C00
7C00
E000
C000
C000
C000
C000
6080
7F80
1F80
ENDCHAR
STARTCHAR 01BA
ENCODING 442
SWIDTH 454 0
DWIDTH 10 0
BBX 9 16 0 -4
BITMAP
FF80
FF80
0700
0E00
1C00
1E00
1F00
0380
0180
0180
0380
3F00
7F00
E000
C000
C000
ENDCHAR
STARTCHAR 01BB
ENCODING 443
SWIDTH 545 0
DWIDTH 12 0
BBX 10 15 1 0
BITMAP
3F00
FF80
E1C0
00C0
00C0
0180
0380
7FC0
7FC0
1C00
3000
6000
C000
FFC0
FFC0
ENDCHAR
STARTCHAR 01BC
ENCODING 444
SWIDTH 545 0
DWIDTH 12 0
BBX 10 15 1 0
BITMAP
FF80
FF80
3000
3000
3000
3E00
3F00
0380
01C0
00C0
00C0
00C0
41C0
7F80
3E00
ENDCHAR
STARTCHAR 01BD
ENCODING 445
SWIDTH 500 0
DWIDTH 11 0
BBX 9 12 1 0
BITMAP
FF80
FF80
3000
3000
3E00
3F00
0380
0180
0180
8380
FF00
FE00
ENDCHAR
STARTCHAR 01BE
ENCODING 446
SWIDTH 454 0
DWIDTH 10 0
BBX 8 15 1 0
BITMAP
60
60
60
7E
7E
60
60
70
3E
1F
07
03
83
FE
FC
ENDCHAR
STARTCHAR 01BF
ENCODING 447
SWIDTH 590 0
DWIDTH 13 0
BBX 10 16 2 -4
BITMAP
7E00
FF80
C180
C0C0
C0C0
C0C0
C0C0
C1C0
C180
C300
DE00
FC00
E000
C000
C000
C000
ENDCHAR
STARTCHAR 01C0
ENCODING 448
SWIDTH 272 0
DWIDTH 6 0
BBX 2 21 2 -4
BITMAP
C0
C0
C0
C0
C0
C0
C0
C0
C0
C0
C0
C0
C0
C0
C0
C0
C0
C0
C0
C0
C0
ENDCHAR
STARTCHAR 01C1
ENCODING 449
SWIDTH 500 0
DWIDTH 11 0
BBX 6 21 2 -4
BITMAP
CC
CC
CC
CC
CC
CC
CC
CC
CC
CC
CC
CC
CC
CC
CC
CC
CC
CC
CC
CC
CC
ENDCHAR
STARTCHAR 01C2
ENCODING 450
SWIDTH 590 0
DWIDTH 13 0
BBX 10 21 2 -4
BITMAP
0C00
0C00
0C00
0C00
0C00
0C00
0C00
FFC0
FFC0
0C00
0C00
0C00
FFC0
FFC0
0C00
0C00
0C00
0C00
0C00
0C00
0C00
ENDCHAR
STARTCHAR 01C3
ENCODING 451
SWIDTH 272 0
DWIDTH 6 0
BBX 2 15 2 0
BITMAP
C0
C0
C0
C0
C0
C0
C0
C0
C0
C0
00
00
C0
C0
C0
ENDCHAR
STARTCHAR 01C4
ENCODING 452
SWIDTH 1272 0
DWIDTH 28 0
BBX 26 20 2 0
BITMAP
00002200
00003600
00001C00
00000800
00000000
FF01FFC0
FFC1FFC0
C0E001C0
C0700380
C0300700
C0180600
C0180C00
C0181800
C0183800
C0187000
C0306000
C070C000
C0E1C000
FFC1FFC0
FF01FFC0
ENDCHAR
STARTCHAR 01C5
ENCODING 453
SWIDTH 1181 0
DWIDTH 26 0
BBX 23 17 2 0
BITMAP
000044
00006C
FF0038
FFC010
C0E000
C071FE
C031FE
C0180E
C0181C
C01818
C01830
C01870
C03060
C070C0
C0E1C0
FFC1FE
FF01FE
ENDCHAR
STARTCHAR 01C6
ENCODING 454
SWIDTH 1045 0
DWIDTH 23 0
BBX 21 17 1 0
BITMAP
00C110
00C1B0
00C0E0
00C040
00C000
1EC7F8
7FC7F8
61C038
E0C070
C0C060
C0C0C0
C0C1C0
C0C180
E0C300
70C700
3FC7F8
1FC7F8
ENDCHAR
STARTCHAR 01C7
ENCODING 455
SWIDTH 1000 0
DWIDTH 22 0
BBX 19 15 2 0
BITMAP
C00060
C00060
C00060
C00060
C00060
C00060
C00060
C00060
C00060
C00060
C00060
C00060
C010E0
FFBFC0
FF9F80
ENDCHAR
STARTCHAR 01C8
ENCODING 456
SWIDTH 772 0
DWIDTH 17 0
BBX 14 20 2 -4
BITMAP
000C
C00C
C000
C000
C00C
C00C
C00C
C00C
C00C
C00C
C00C
C00C
C00C
C00C
FF8C
FF8C
000C
001C
0078
0070
ENDCHAR
STARTCHAR 01C9
ENCODING 457
SWIDTH 545 0
DWIDTH 12 0
BBX 8 21 2 -4
BITMAP
C0
C3
C3
C0
C0
C3
C3
C3
C3
C3
C3
C3
C3
C3
C3
F3
73
03
07
1E
1C
ENDCHAR
STARTCHAR 01CA
ENCODING 458
SWIDTH 1227 0
DWIDTH 27 0
BBX 23 15 2 0
BITMAP
C03006
E03006
F03006
F83006
D83006
CC3006
C63006
C73006
C33006
C1B006
C0F006
C0F006
C0710E
C033FC
C031F8
ENDCHAR
STARTCHAR 01CB
ENCODING 459
SWIDTH 1000 0
DWIDTH 22 0
BBX 18 20 2 -4
BITMAP
0000C0
C030C0
E03000
F03000
F830C0
D830C0
CC30C0
C630C0
C730C0
C330C0
C1B0C0
C0F0C0
C0F0C0
C070C0
C030C0
C030C0
0000C0
0001C0
000780
000700
ENDCHAR
STARTCHAR 01CC
ENCODING 460
SWIDTH 818 0
DWIDTH 18 0
BBX 15 20 2 -4
BITMAP
0006
0006
0000
0000
FE06
FF06
C386
C186
C186
C186
C186
C186
C186
C186
C186
C186
0006
000E
003C
0038
ENDCHAR
STARTCHAR 01CD
ENCODING 461
SWIDTH 681 0
DWIDTH 15 0
BBX 15 20 0 0
BITMAP
0440
06C0
0380
0100
0000
0380
0380
06C0
06C0
0C60
0C60
1C60
1830
1830
3FF8
3FF8
701C
600C
600C
C006
ENDCHAR
STARTCHAR 01CE
ENCODING 462
SWIDTH 500 0
DWIDTH 11 0
BBX 8 17 1 0
BITMAP
22
36
1C
08
00
7C
7E
07
03
3F
7F
E3
C3
C3
E3
7F
3F
ENDCHAR
STARTCHAR 01CF
ENCODING 463
SWIDTH 272 0
DWIDTH 6 0
BBX 5 20 1 0
BITMAP
88
D8
70
20
00
60
60
60
60
60
60
60
60
60
60
60
60
60
60
60
ENDCHAR
STARTCHAR 01D0
ENCODING 464
SWIDTH 272 0
DWIDTH 6 0
BBX 5 17 1 0
BITMAP
88
D8
70
20
00
60
60
60
60
60
60
60
60
60
60
60
60
ENDCHAR
STARTCHAR 01D1
ENCODING 465
SWIDTH 772 0
DWIDTH 17 0
BBX 15 20 1 0
BITMAP
0440
06C0
0380
0100
0000
07C0
1FF0
3838
600C
E00C
C006
C006
C006
C006
C006
E00C
600C
3838
1FF0
07C0
ENDCHAR
STARTCHAR 01D2
ENCODING 466
SWIDTH 590 0
DWIDTH 13 0
BBX 11 17 1 0
BITMAP
1100
1B00
0E00
0400
0000
1F00
3F80
71C0
E0E0
C060
C060
C060
C060
E0E0
71C0
3F80
1F00
ENDCHAR
STARTCHAR 01D3
ENCODING 467
SWIDTH 681 0
DWIDTH 15 0
BBX 11 20 2 0
BITMAP
1100
1B00
0E00
0400
0000
C060
C060
C060
C060
C060
C060
C060
C060
C060
C060
C060
E0E0
71C0
7FC0
1F00
ENDCHAR
STARTCHAR 01D4
ENCODING 468
SWIDTH 590 0
DWIDTH 13 0
BBX 9 17 2 0
BITMAP
2200
3600
1C00
0800
0000
C180
C180
C180
C180
C180
C180
C180
C180
C180
E180
7F80
3F80
ENDCHAR
STARTCHAR 01D5
ENCODING 469
SWIDTH 681 0
DWIDTH 15 0
BBX 11 22 2 0
BITMAP
0F00
0F00
0000
1980
1980
0000
0000
C060
C060
C060
C060
C060
C060
C060
C060
C060
C060
C060
E0E0
71C0
7FC0
1F00
ENDCHAR
STARTCHAR 01D6
ENCODING 470
SWIDTH 590 0
DWIDTH 13 0
BBX 9 18 2 0
BITMAP
1E00
1E00
0000
3300
3300
0000
C180
C180
C180
C180
C180
C180
C180
C180
C180
E180
7F80
3F80
ENDCHAR
STARTCHAR 01D7
ENCODING 471
SWIDTH 681 0
DWIDTH 15 0
BBX 11 21 2 0
BITMAP
0200
0300
0600
34C0
30C0
0000
C060
C060
C060
C060
C060
C060
C060
C060
C060
C060
C060
E0E0
71C0
7FC0
1F00
ENDCHAR
STARTCHAR 01D8
ENCODING 472
SWIDTH 590 0
DWIDTH 13 0
BBX 9 19 2 0
BITMAP
0400
0600
0C00
0400
3300
3300
0000
C180
C180
C180
C180
C180
C180
C180
C180
C180
E180
7F80
3F80
ENDCHAR
STARTCHAR 01D9
ENCODING 473
SWIDTH 681 0
DWIDTH 15 0
BBX 11 20 2 0
BITMAP
1B00
0E00
3580
3180
0000
C060
C060
C060
C060
C060
C060
C060
C060
C060
C060
C060
E0E0
71C0
7FC0
1F00
ENDCHAR
STARTCHAR 01DA
ENCODING 474
SWIDTH 590 0
DWIDTH 13 0
BBX 9 18 2 0
BITMAP
3600
1C00
0800
6300
6300
0000
C180
C180
C180
C180
C180
C180
C180
C180
C180
E180
7F80
3F80
ENDCHAR
STARTCHAR 01DB
ENCODING 475
SWIDTH 681 0
DWIDTH 15 0
BBX 11 21 2 0
BITMAP
0400
0C00
0600
32C0
30C0
0000
C060
C060
C060
C060
C060
C060
C060
C060
C060
C060
C060
E0E0
71C0
7FC0
1F00
ENDCHAR
STARTCHAR 01DC
ENCODING 476
SWIDTH 590 0
DWIDTH 13 0
BBX 9 19 2 0
BITMAP
1000
3800
1800
0800
3300
3300
0000
C180
C180
C180
C180
C180
C180
C180
C180
C180
E180
7F80
3F80
ENDCHAR
STARTCHAR 01DD
ENCODING 477
SWIDTH 545 0
DWIDTH 12 0
BBX 10 12 1 0
BITMAP
7E00
7F00
0180
00C0
00C0
FFC0
FFC0
C0C0
C1C0
6180
7F00
1E00
ENDCHAR
STARTCHAR 01DE
ENCODING 478
SWIDTH 681 0
DWIDTH 15 0
BBX 15 22 0 0
BITMAP
03C0
03C0
0000
0660
0660
0000
0000
0380
0380
06C0
06C0
0C60
0C60
1C60
1830
1830
3FF8
3FF8
701C
600C
600C
C006
ENDCHAR
STARTCHAR 01DF
ENCODING 479
SWIDTH 500 0
DWIDTH 11 0
BBX 8 18 1 0
BITMAP
3C
3C
00
66
66
00
7C
7E
07
03
3F
7F
E3
C3
C3
E3
7F
3F
ENDCHAR
STARTCHAR 01E0
ENCODING 480
SWIDTH 681 0
DWIDTH 15 0
BBX 15 22 0 0
BITMAP
07E0
07E0
0000
0180
0180
0000
0000
0380
0380
06C0
06C0
0C60
0C60
1C60
1830
1830
3FF8
3FF8
701C
600C
600C
C006
ENDCHAR
STARTCHAR 01E1
ENCODING 481
SWIDTH 500 0
DWIDTH 11 0
BBX 8 18 1 0
BITMAP
7E
7E
00
18
18
00
7C
7E
07
03
3F
7F
E3
C3
C3
E3
7F
3F
ENDCHAR
STARTCHAR 01E2
ENCODING 482
SWIDTH 954 0
DWIDTH 21 0
BBX 20 19 0 0
BITMAP
003F00
003F00
000000
000000
003FE0
007FE0
00F800
00D800
019800
031800
031FE0
061FE0
0E1800
0FF800
1FF800
381800
301800
601FF0
E01FF0
ENDCHAR
STARTCHAR 01E3
ENCODING 483
SWIDTH 863 0
DWIDTH 19 0
BBX 17 16 1 0
BITMAP
07E000
07E000
000000
000000
7E3E00
7F7F00
03C300
018180
3FFF80
7FFF80
E18000
C18000
C1C000
E1E000
7FFF00
3E3F00
ENDCHAR
STARTCHAR 01E4
ENCODING 484
SWIDTH 681 0
DWIDTH 15 0
BBX 14 15 1 0
BITMAP
0FE0
1FF0
3820
6000
E000
C000
C000
C030
C0FC
C0FC
E030
6030
7830
3FF0
0FE0
ENDCHAR
STARTCHAR 01E5
ENCODING 485
SWIDTH 590 0
DWIDTH 13 0
BBX 12 16 1 -4
BITMAP
1FC0
3FC0
70C0
E0C0
C0C0
C3F0
C3F0
C0C0
E0C0
70C0
7FC0
1FC0
00C0
41C0
7F80
7F00
ENDCHAR
STARTCHAR 01E6
ENCODING 486
SWIDTH 681 0
DWIDTH 15 0
BBX 12 20 1 0
BITMAP
0880
0D80
0700
0200
0000
0FE0
1FF0
3820
6000
6000
C000
C000
C000
C030
C030
E030
6030
7830
3FF0
0FE0
ENDCHAR
STARTCHAR 01E7
ENCODING 487
SWIDTH 590 0
DWIDTH 13 0
BBX 10 21 1 -4
BITMAP
1100
1B00
0E00
0400
0000
1FC0
3FC0
70C0
E0C0
C0C0
C0C0
C0C0
C0C0
E0C0
70C0
7FC0
1FC0
00C0
41C0
7F80
7F00
ENDCHAR
STARTCHAR 01E8
ENCODING 488
SWIDTH 636 0
DWIDTH 14 0
BBX 12 20 2 0
BITMAP
1100
1B00
0E00
0400
0000
C0E0
C1C0
C380
C700
CE00
DC00
F800
F000
FC00
DE00
CF00
C380
C1C0
C0E0
C070
ENDCHAR
STARTCHAR 01E9
ENCODING 489
SWIDTH 500 0
DWIDTH 11 0
BBX 10 21 1 0
BITMAP
8800
7000
2000
0000
6000
6000
6000
6000
6000
61C0
6380
6700
6E00
7C00
7800
7C00
6E00
6700
6300
6180
60C0
ENDCHAR
STARTCHAR 01EA
ENCODING 490
SWIDTH 772 0
DWIDTH 17 0
BBX 15 18 1 -3
BITMAP
07C0
1FF0
3838
600C
E00E
C006
C006
C006
C006
C006
E00C
600C
3838
1FF0
0FC0
0180
0300
03C0
ENDCHAR
STARTCHAR 01EB
ENCODING 491
SWIDTH 590 0
DWIDTH 13 0
BBX 11 15 1 -3
BITMAP
1F00
3F80
71C0
E0E0
C060
C060
C060
C060
E0E0
71C0
3F80
1F00
0600
0C00
0F00
ENDCHAR
STARTCHAR 01EC
ENCODING 492
SWIDTH 772 0
DWIDTH 17 0
BBX 15 22 1 -3
BITMAP
07E0
07E0
0000
0000
07C0
1FF0
3838
600C
E00E
C006
C006
C006
C006
C006
E00C
600C
3838
1FF0
0FC0
0180
0300
03C0
ENDCHAR
STARTCHAR 01ED
ENCODING 493
SWIDTH 590 0
DWIDTH 13 0
BBX 11 19 1 -3
BITMAP
1F80
1F80
0000
0000
1F00
3F80
71C0
E0E0
C060
C060
C060
C060
E0E0
71C0
3F80
1F00
0600
0C00
0F00
ENDCHAR
STARTCHAR 01EE
ENCODING 494
SWIDTH 545 0
DWIDTH 12 0
BBX 10 20 1 0
BITMAP
1100
1B00
0E00
0400
0000
7FC0
7FC0
0180
0300
0600
0C00
1F00
1F80
01C0
00C0
00C0
00C0
C1C0
FF80
7E00
ENDCHAR
STARTCHAR 01EF
ENCODING 495
SWIDTH 454 0
DWIDTH 10 0
BBX 9 21 0 -4
BITMAP
2200
3600
1C00
0800
0000
7F00
7F00
0600
0600
0C00
0C00
1800
3E00
0300
0180
0180
0180
0180
8380
FF00
FC00
ENDCHAR
STARTCHAR 01F0
ENCODING 496
SWIDTH 272 0
DWIDTH 6 0
BBX 7 21 -1 -4
BITMAP
22
36
1C
08
00
18
18
18
18
18
18
18
18
18
18
18
18
18
38
F0
E0
ENDCHAR
STARTCHAR 01F1
ENCODING 497
SWIDTH 1272 0
DWIDTH 28 0
BBX 26 15 2 0
BITMAP
FF01FFC0
FFC1FFC0
C0E001C0
C0700380
C0300700
C0180600
C0180C00
C0181800
C0183800
C0187000
C0306000
C070C000
C0E1C000
FFC1FFC0
FF01FFC0
ENDCHAR
STARTCHAR 01F2
ENCODING 498
SWIDTH 1181 0
DWIDTH 26 0
BBX 23 15 2 0
BITMAP
FF0000
FFC000
C0E000
C071FE
C031FE
C0180E
C0181C
C01818
C01830
C01870
C03060
C070C0
C0E1C0
FFC1FE
FF01FE
ENDCHAR
STARTCHAR 01F3
ENCODING 499
SWIDTH 1045 0
DWIDTH 23 0
BBX 21 17 1 0
BITMAP
00C000
00C000
00C000
00C000
00C000
1EC7F8
7FC7F8
61C038
E0C070
C0C060
C0C0C0
C0C1C0
C0C180
E0C300
70C700
3FC7F8
1FC7F8
ENDCHAR
STARTCHAR 01F4
ENCODING 500
SWIDTH 681 0
DWIDTH 15 0
BBX 12 20 1 0
BITMAP
0080
01C0
0380
0100
0000
0FE0
1FF0
3820
6000
6000
C000
C000
C000
C030
C030
E030
6030
7830
3FF0
0FE0
ENDCHAR
STARTCHAR 01F5
ENCODING 501
SWIDTH 590 0
DWIDTH 13 0
BBX 10 21 1 -4
BITMAP
0200
0700
0E00
0400
0000
1FC0
3FC0
70C0
E0C0
C0C0
C0C0
C0C0
C0C0
E0C0
70C0
7FC0
1FC0
00C0
41C0
7F80
7F00
ENDCHAR
STARTCHAR 01F6
ENCODING 502
SWIDTH 1045 0
DWIDTH 23 0
BBX 19 15 2 0
BITMAP
C06000
C06000
C06000
C06060
C06060
C06060
FFE060
FFE060
C06060
C06060
C06060
C06060
C070C0
C03FC0
C01F80
ENDCHAR
STARTCHAR 01F7
ENCODING 503
SWIDTH 636 0
DWIDTH 14 0
BBX 11 19 2 -4
BITMAP
7F00
FF80
C1C0
C0E0
C060
C060
C060
C060
C0C0
C0C0
C180
C700
DE00
F800
E000
C000
C000
C000
C000
ENDCHAR
STARTCHAR 01F8
ENCODING 504
SWIDTH 727 0
DWIDTH 16 0
BBX 12 20 2 0
BITMAP
0800
1C00
0E00
0400
0000
C030
E030
F030
F830
D830
CC30
C630
C730
C330
C1B0
C0F0
C0F0
C070
C030
C030
ENDCHAR
STARTCHAR 01F9
ENCODING 505
SWIDTH 590 0
DWIDTH 13 0
BBX 9 17 2 0
BITMAP
1000
3800
1C00
0800
0000
FE00
FF00
C380
C180
C180
C180
C180
C180
C180
C180
C180
C180
ENDCHAR
STARTCHAR 01FA
ENCODING 506
SWIDTH 681 0
DWIDTH 15 0
BBX 15 21 0 0
BITMAP
00C0
03C0
0700
0380
06C0
06C0
0380
0380
06C0
06C0
0C60
0C60
0C60
1830
1830
3FF8
3FF8
701C
600C
600C
C006
ENDCHAR
STARTCHAR 01FB
ENCODING 507
SWIDTH 500 0
DWIDTH 11 0
BBX 8 20 1 0
BITMAP
06
3E
70
3C
66
66
3C
00
7C
7E
07
03
3F
7F
E3
C3
C3
E3
7F
3F
ENDCHAR
STARTCHAR 01FC
ENCODING 508
SWIDTH 954 0
DWIDTH 21 0
BBX 20 20 0 0
BITMAP
000400
000E00
001C00
000800
000000
003FE0
007FE0
00F800
00D800
019800
031800
031FE0
061FE0
0E1800
0FF800
1FF800
381800
301800
601FF0
E01FF0
ENDCHAR
STARTCHAR 01FD
ENCODING 509
SWIDTH 863 0
DWIDTH 19 0
BBX 17 17 1 0
BITMAP
004000
00E000
01C000
008000
000000
7E3E00
7F7F00
03C300
018180
3FFF80
7FFF80
E18000
C18000
C1C000
E1E000
7FFF00
3E3F00
ENDCHAR
STARTCHAR 01FE
ENCODING 510
SWIDTH 772 0
DWIDTH 17 0
BBX 15 20 1 0
BITMAP
0080
01C0
0380
0100
0000
07E4
1FFC
383C
603C
E07E
C0E6
C1C6
C386
C706
CE06
FC0E
780C
7838
7FF0
4FC0
ENDCHAR
STARTCHAR 01FF
ENCODING 511
SWIDTH 590 0
DWIDTH 13 0
BBX 11 18 1 -1
BITMAP
0200
0700
0E00
0400
0000
1F40
3FC0
71C0
E1E0
C360
C660
C460
EC60
78E0
71C0
3F80
6F00
4000
ENDCHAR
STARTCHAR 0200
ENCODING 512
SWIDTH 681 0
DWIDTH 15 0
BBX 15 20 0 0
BITMAP
0880
1DC0
0EE0
0440
0000
0380
0380
06C0
06C0
0C60
0C60
1C60
1830
1830
3FF8
3FF8
701C
600C
600C
C006
ENDCHAR
STARTCHAR 0201
ENCODING 513
SWIDTH 500 0
DWIDTH 11 0
BBX 9 17 0 0
BITMAP
4400
EE00
7700
2200
0000
3E00
3F00
0380
0180
1F80
3F80
7180
6180
6180
7180
3F80
1F80
ENDCHAR
STARTCHAR 0202
ENCODING 514
SWIDTH 681 0
DWIDTH 15 0
BBX 15 20 0 0
BITMAP
0380
07C0
0440
0440
0000
0380
0380
06C0
06C0
0C60
0C60
1C60
1830
1830
3FF8
3FF8
701C
600C
600C
C006
ENDCHAR
STARTCHAR 0203
ENCODING 515
SWIDTH 500 0
DWIDTH 11 0
BBX 8 16 1 0
BITMAP
1C
3E
22
00
7C
7E
07
03
3F
7F
E3
C3
C3
E3
7F
3F
ENDCHAR
STARTCHAR 0204
ENCODING 516
SWIDTH 590 0
DWIDTH 13 0
BBX 10 20 2 0
BITMAP
4400
EE00
7700
2200
0000
FF80
FF80
C000
C000
C000
C000
FF80
FF80
C000
C000
C000
C000
C000
FFC0
FFC0
ENDCHAR
STARTCHAR 0205
ENCODING 517
SWIDTH 545 0
DWIDTH 12 0
BBX 10 17 1 0
BITMAP
4400
EE00
7700
2200
0000
1F00
3F80
6180
C0C0
C0C0
FFC0
FFC0
C000
C000
6000
3F80
1F80
ENDCHAR
STARTCHAR 0206
ENCODING 518
SWIDTH 590 0
DWIDTH 13 0
BBX 10 20 2 0
BITMAP
1C00
3E00
2200
2200
0000
FF80
FF80
C000
C000
C000
C000
FF80
FF80
C000
C000
C000
C000
C000
FFC0
FFC0
ENDCHAR
STARTCHAR 0207
ENCODING 519
SWIDTH 545 0
DWIDTH 12 0
BBX 10 16 1 0
BITMAP
0E00
1F00
1100
0000
1F00
3F80
6180
C0C0
C0C0
FFC0
FFC0
C000
C000
6000
3F80
1F80
ENDCHAR
STARTCHAR 0208
ENCODING 520
SWIDTH 272 0
DWIDTH 6 0
BBX 8 20 -2 0
BITMAP
44
EE
77
22
00
0C
0C
0C
0C
0C
0C
0C
0C
0C
0C
0C
0C
0C
0C
0C
ENDCHAR
STARTCHAR 0209
ENCODING 521
SWIDTH 272 0
DWIDTH 6 0
BBX 8 17 -2 0
BITMAP
44
EE
77
22
00
0C
0C
0C
0C
0C
0C
0C
0C
0C
0C
0C
0C
ENDCHAR
STARTCHAR 020A
ENCODING 522
SWIDTH 272 0
DWIDTH 6 0
BBX 5 19 1 0
BITMAP
70
F8
88
00
60
60
60
60
60
60
60
60
60
60
60
60
60
60
60
ENDCHAR
STARTCHAR 020B
ENCODING 523
SWIDTH 272 0
DWIDTH 6 0
BBX 5 17 1 0
BITMAP
70
F8
88
88
00
60
60
60
60
60
60
60
60
60
60
60
60
ENDCHAR
STARTCHAR 020C
ENCODING 524
SWIDTH 772 0
DWIDTH 17 0
BBX 15 20 1 0
BITMAP
0880
1DC0
0EE0
0440
0000
07C0
1FF0
3838
600C
E00C
C006
C006
C006
C006
C006
E00C
600C
3838
1FF0
07C0
ENDCHAR
STARTCHAR 020D
ENCODING 525
SWIDTH 590 0
DWIDTH 13 0
BBX 11 17 1 0
BITMAP
2200
7700
3B80
1100
0000
1F00
3F80
71C0
E0E0
C060
C060
C060
C060
E0E0
71C0
3F80
1F00
ENDCHAR
STARTCHAR 020E
ENCODING 526
SWIDTH 772 0
DWIDTH 17 0
BBX 15 19 1 0
BITMAP
0380
07C0
0440
0000
07C0
1FF0
3838
600C
E00C
C006
C006
C006
C006
C006
E00C
600C
3838
1FF0
07C0
ENDCHAR
STARTCHAR 020F
ENCODING 527
SWIDTH 590 0
DWIDTH 13 0
BBX 11 16 1 0
BITMAP
0E00
1F00
1100
0000
1F00
3F80
71C0
E0E0
C060
C060
C060
C060
E0E0
71C0
3F80
1F00
ENDCHAR
STARTCHAR 0210
ENCODING 528
SWIDTH 636 0
DWIDTH 14 0
BBX 12 20 2 0
BITMAP
4400
EE00
7700
2200
0000
FF00
FFC0
C0E0
C060
C060
C060
C0E0
FFC0
FF00
C380
C180
C0C0
C0E0
C070
C030
ENDCHAR
STARTCHAR 0211
ENCODING 529
SWIDTH 363 0
DWIDTH 8 0
BBX 8 17 0 0
BITMAP
44
EE
77
22
00
1F
3F
30
30
30
30
30
30
30
30
30
30
ENDCHAR
STARTCHAR 0212
ENCODING 530
SWIDTH 636 0
DWIDTH 14 0
BBX 12 19 2 0
BITMAP
1C00
3E00
2200
0000
FF00
FFC0
C0E0
C060
C060
C060
C0E0
FFC0
FF00
C380
C180
C0C0
C0E0
C070
C030
ENDCHAR
STARTCHAR 0213
ENCODING 531
SWIDTH 363 0
DWIDTH 8 0
BBX 6 16 2 0
BITMAP
38
7C
44
00
7C
FC
C0
C0
C0
C0
C0
C0
C0
C0
C0
C0
ENDCHAR
STARTCHAR 0214
ENCODING 532
SWIDTH 681 0
DWIDTH 15 0
BBX 11 20 2 0
BITMAP
2200
7700
3B80
1100
0000
C060
C060
C060
C060
C060
C060
C060
C060
C060
C060
C060
E0E0
71C0
7FC0
1F00
ENDCHAR
STARTCHAR 0215
ENCODING 533
SWIDTH 590 0
DWIDTH 13 0
BBX 9 17 2 0
BITMAP
4400
EE00
7700
2200
0000
C180
C180
C180
C180
C180
C180
C180
C180
C180
E180
7F80
3F80
ENDCHAR
STARTCHAR 0216
ENCODING 534
SWIDTH 681 0
DWIDTH 15 0
BBX 11 20 2 0
BITMAP
0E00
1F00
1100
1100
0000
C060
C060
C060
C060
C060
C060
C060
C060
C060
C060
C060
E0E0
71C0
7FC0
1F00
ENDCHAR
STARTCHAR 0217
ENCODING 535
SWIDTH 590 0
DWIDTH 13 0
BBX 9 17 2 0
BITMAP
1C00
3E00
2200
2200
0000
C180
C180
C180
C180
C180
C180
C180
C180
C180
E180
7F80
3F80
ENDCHAR
STARTCHAR 0218
ENCODING 536
SWIDTH 545 0
DWIDTH 12 0
BBX 10 19 1 -4
BITMAP
3F00
7F80
E000
C000
C000
E000
7800
3F00
0780
01C0
00C0
00C0
C1C0
FF80
7F00
0000
0C00
1C00
1800
ENDCHAR
STARTCHAR 0219
ENCODING 537
SWIDTH 454 0
DWIDTH 10 0
BBX 8 16 1 -4
BITMAP
3E
7E
C0
C0
E0
7C
3E
07
03
83
FE
FC
00
18
38
30
ENDCHAR
STARTCHAR 021A
ENCODING 538
SWIDTH 545 0
DWIDTH 12 0
BBX 12 19 0 -4
BITMAP
FFF0
FFF0
0600
0600
0600
0600
0600
0600
0600
0600
0600
0600
0600
0600
0600
0000
0600
0E00
0C00
ENDCHAR
STARTCHAR 021B
ENCODING 539
SWIDTH 409 0
DWIDTH 9 0
BBX 6 20 2 -4
BITMAP
C0
C0
C0
C0
FC
FC
C0
C0
C0
C0
C0
C0
C0
C0
7C
7C
00
30
70
60
ENDCHAR
STARTCHAR 021C
ENCODING 540
SWIDTH 545 0
DWIDTH 12 0
BBX 11 19 0 -4
BITMAP
7E00
FF80
01C0
00C0
00C0
00C0
01C0
0380
3F00
3F80
03C0
00E0
0060
0060
0060
00C0
03C0
FF00
FC00
ENDCHAR
STARTCHAR 021D
ENCODING 541
SWIDTH 454 0
DWIDTH 10 0
BBX 9 16 0 -4
BITMAP
FC00
FE00
8700
0300
0300
0600
3C00
3F00
0700
0180
0180
0180
0380
0F00
FE00
F000
ENDCHAR
STARTCHAR 021E
ENCODING 542
SWIDTH 727 0
DWIDTH 16 0
BBX 12 20 2 0
BITMAP
1100
1B00
0E00
0400
0000
C030
C030
C030
C030
C030
C030
FFF0
FFF0
C030
C030
C030
C030
C030
C030
C030
ENDCHAR
STARTCHAR 021F
ENCODING 543
SWIDTH 590 0
DWIDTH 13 0
BBX 10 21 1 0
BITMAP
8800
7000
2000
0000
6000
6000
6000
6000
6000
7F00
7F80
61C0
60C0
60C0
60C0
60C0
60C0
60C0
60C0
60C0
60C0
ENDCHAR
STARTCHAR 0220
ENCODING 544
SWIDTH 681 0
DWIDTH 15 0
BBX 11 19 2 -4
BITMAP
7F00
FFC0
C1C0
C0E0
C060
C060
C060
C060
C060
C060
C060
C060
C060
C060
C060
0060
0060
0060
0060
ENDCHAR
STARTCHAR 0221
ENCODING 545
SWIDTH 727 0
DWIDTH 16 0
BBX 15 21 1 -4
BITMAP
00C0
00C0
00C0
00C0
00C0
1EC0
7FC0
61C0
E0C0
C0C0
C0C0
C0C0
C0C0
E0C0
70FC
3FFC
1FC6
00C6
01C6
037C
023C
ENDCHAR
STARTCHAR 0222
ENCODING 546
SWIDTH 681 0
DWIDTH 15 0
BBX 13 15 1 0
BITMAP
6030
6030
6030
6030
6030
7070
3FE0
3FE0
6030
C018
C018
C018
F078
7FF0
1FC0
ENDCHAR
STARTCHAR 0223
ENCODING 547
SWIDTH 590 0
DWIDTH 13 0
BBX 11 17 1 0
BITMAP
60C0
60C0
60C0
60C0
60C0
31C0
3F80
3F80
71C0
E0E0
C060
C060
C060
C060
60C0
3F80
1F00
ENDCHAR
STARTCHAR 0224
ENCODING 548
SWIDTH 590 0
DWIDTH 13 0
BBX 11 19 1 -4
BITMAP
FFE0
FFE0
00C0
01C0
0180
0300
0600
0C00
1800
3800
3000
6000
E000
FFE0
FFE0
0060
0060
03E0
03C0
ENDCHAR
STARTCHAR 0225
ENCODING 549
SWIDTH 454 0
DWIDTH 10 0
BBX 8 16 1 -4
BITMAP
FF
FF
07
0E
0C
18
38
30
60
E0
FF
FF
03
03
1F
1E
ENDCHAR
STARTCHAR 0226
ENCODING 550
SWIDTH 681 0
DWIDTH 15 0
BBX 15 20 0 0
BITMAP
0380
0380
0380
0000
0000
0380
0380
06C0
06C0
0C60
0C60
1C60
1830
1830
3FF8
3FF8
701C
600C
600C
C006
ENDCHAR
STARTCHAR 0227
ENCODING 551
SWIDTH 500 0
DWIDTH 11 0
BBX 8 17 1 0
BITMAP
1C
1C
1C
00
00
7C
7E
07
03
3F
7F
E3
C3
C3
E3
7F
3F
ENDCHAR
STARTCHAR 0228
ENCODING 552
SWIDTH 590 0
DWIDTH 13 0
BBX 10 19 2 -4
BITMAP
FF80
FF80
C000
C000
C000
C000
FF80
FF80
C000
C000
C000
C000
C000
FFC0
FFC0
0400
0E00
0600
1C00
ENDCHAR
STARTCHAR 0229
ENCODING 553
SWIDTH 545 0
DWIDTH 12 0
BBX 10 15 1 -3
BITMAP
1F00
3F80
6180
E0C0
C0C0
FFC0
FFC0
C000
C000
6000
3F80
1F80
0C00
0600
1E00
ENDCHAR
STARTCHAR 022A
ENCODING 554
SWIDTH 772 0
DWIDTH 17 0
BBX 15 22 1 0
BITMAP
03C0
03C0
0000
0660
0660
0000
0000
07C0
1FF0
3838
600C
E00C
C006
C006
C006
C006
C006
E00C
600C
3838
1FF0
07C0
ENDCHAR
STARTCHAR 022B
ENCODING 555
SWIDTH 590 0
DWIDTH 13 0
BBX 11 18 1 0
BITMAP
0F00
0F00
0000
1980
1980
0000
1F00
3F80
71C0
E0E0
C060
C060
C060
C060
E0E0
71C0
3F80
1F00
ENDCHAR
STARTCHAR 022C
ENCODING 556
SWIDTH 772 0
DWIDTH 17 0
BBX 15 22 1 0
BITMAP
07C0
07C0
0000
0720
09C0
0000
0000
07C0
1FF0
3838
600C
E00C
C006
C006
C006
C006
C006
E00C
600C
3838
1FF0
07C0
ENDCHAR
STARTCHAR 022D
ENCODING 557
SWIDTH 590 0
DWIDTH 13 0
BBX 11 18 1 0
BITMAP
1F00
1F00
0000
1C80
2700
0000
1F00
3F80
71C0
E0E0
C060
C060
C060
C060
E0E0
71C0
3F80
1F00
ENDCHAR
STARTCHAR 022E
ENCODING 558
SWIDTH 772 0
DWIDTH 17 0
BBX 15 21 1 0
BITMAP
0380
0380
0380
0000
0000
0000
07C0
1FF0
3838
600C
E00C
C006
C006
C006
C006
C006
E00C
600C
3838
1FF0
07C0
ENDCHAR
STARTCHAR 022F
ENCODING 559
SWIDTH 590 0
DWIDTH 13 0
BBX 11 17 1 0
BITMAP
0E00
0E00
0E00
0000
0000
1F00
3F80
71C0
E0E0
C060
C060
C060
C060
E0E0
71C0
3F80
1F00
ENDCHAR
STARTCHAR 0230
ENCODING 560
SWIDTH 772 0
DWIDTH 17 0
BBX 15 22 1 0
BITMAP
07E0
07E0
0000
0180
0180
0000
0000
07C0
1FF0
3838
600C
E00C
C006
C006
C006
C006
C006
E00C
600C
3838
1FF0
07C0
ENDCHAR
STARTCHAR 0231
ENCODING 561
SWIDTH 590 0
DWIDTH 13 0
BBX 11 18 1 0
BITMAP
1F80
1F80
0000
0600
0600
0000
1F00
3F80
71C0
E0E0
C060
C060
C060
C060
E0E0
71C0
3F80
1F00
ENDCHAR
STARTCHAR 0232
ENCODING 562
SWIDTH 545 0
DWIDTH 12 0
BBX 12 19 0 0
BITMAP
1F80
1F80
0000
0000
C030
6060
6060
30C0
39C0
1980
0F00
0F00
0600
0600
0600
0600
0600
0600
0600
ENDCHAR
STARTCHAR 0233
ENCODING 563
SWIDTH 454 0
DWIDTH 10 0
BBX 10 20 0 -4
BITMAP
3F00
3F00
0000
0000
C0C0
60C0
6180
6180
3180
3300
3300
1B00
1B00
1E00
0E00
0E00
0C00
0C00
F800
F000
ENDCHAR
STARTCHAR 0234
ENCODING 564
SWIDTH 409 0
DWIDTH 9 0
BBX 9 21 0 -4
BITMAP
3000
3000
3000
3000
3000
3000
3000
3000
3000
3000
3000
3000
3000
3000
3F00
3F80
3180
3180
7180
DF00
8F00
ENDCHAR
STARTCHAR 0235
ENCODING 565
SWIDTH 727 0
DWIDTH 16 0
BBX 14 16 2 -5
BITMAP
FE00
FF00
C380
C180
C180
C180
C180
C180
C180
C1F8
C1F8
C18C
018C
038C
06F8
0478
ENDCHAR
STARTCHAR 0236
ENCODING 566
SWIDTH 409 0
DWIDTH 9 0
BBX 9 20 0 -4
BITMAP
3000
3000
3000
3000
3F00
3F00
3000
3000
3000
3000
3000
3000
3000
3F00
3F80
3180
3180
7180
DF00
8F00
ENDCHAR
STARTCHAR 0237
ENCODING 567
SWIDTH 272 0
DWIDTH 6 0
BBX 5 16 -1 -4
BITMAP
18
18
18
18
18
18
18
18
18
18
18
18
18
38
F0
E0
ENDCHAR
STARTCHAR 0238
ENCODING 568
SWIDTH 1000 0
DWIDTH 22 0
BBX 18 17 2 0
BITMAP
00C000
00C000
00C000
00C000
00C000
1EDE00
7FFF80
61E180
E0C1C0
C0C0C0
C0C0C0
C0C0C0
C0C0C0
E0C1C0
70C380
3FFF00
1FFE00
ENDCHAR
STARTCHAR 0239
ENCODING 569
SWIDTH 1000 0
DWIDTH 22 0
BBX 18 16 2 -4
BITMAP
1FFE00
3FFF00
70C380
E0C1C0
C0C0C0
C0C0C0
C0C0C0
C0C0C0
E0C1C0
61E180
7FFF80
1EDE00
00C000
00C000
00C000
00C000
ENDCHAR
STARTCHAR 023A
ENCODING 570
SWIDTH 681 0
DWIDTH 15 0
BBX 15 19 0 -2
BITMAP
0018
0030
03B0
03B0
06E0
06E0
0EE0
0CE0
0DE0
19B0
19B0
3338
3FF8
7FFC
660C
6C0C
CC06
0C00
1800
ENDCHAR
STARTCHAR 023B
ENCODING 571
SWIDTH 636 0
DWIDTH 14 0
BBX 12 19 1 -2
BITMAP
0020
0060
0FE0
1FF0
38F0
61C0
E180
C180
C300
C300
C600
C600
EC00
6C00
7830
3FF0
3FE0
3000
3000
ENDCHAR
STARTCHAR 023C
ENCODING 572
SWIDTH 500 0
DWIDTH 11 0
BBX 9 16 1 -2
BITMAP
0100
0100
1F00
3F80
7200
E600
C600
C400
CC00
CC00
E800
7800
3F80
1F80
3000
3000
ENDCHAR
STARTCHAR 023D
ENCODING 573
SWIDTH 545 0
DWIDTH 12 0
BBX 12 15 0 0
BITMAP
3000
3000
3000
3000
3000
3000
FE00
FE00
3000
3000
3000
3000
3000
3FF0
3FF0
ENDCHAR
STARTCHAR 023E
ENCODING 574
SWIDTH 636 0
DWIDTH 14 0
BBX 14 17 0 -1
BITMAP
0008
FFFC
FFF8
0630
0660
06E0
07C0
0780
0700
0600
0E00
1E00
1E00
3600
6600
E600
4000
ENDCHAR
STARTCHAR 023F
ENCODING 575
SWIDTH 454 0
DWIDTH 10 0
BBX 8 16 1 -4
BITMAP
3E
7E
C0
C0
E0
78
3E
07
03
03
FF
FC
60
30
1F
0F
ENDCHAR
STARTCHAR 0240
ENCODING 576
SWIDTH 454 0
DWIDTH 10 0
BBX 8 16 1 -4
BITMAP
FE
FE
0E
0C
18
18
30
30
60
60
C0
F0
38
1C
0F
07
ENDCHAR
STARTCHAR 0241
ENCODING 577
SWIDTH 500 0
DWIDTH 11 0
BBX 10 15 0 0
BITMAP
7F00
FF80
41C0
00C0
00C0
01C0
0780
0F00
1C00
1800
1800
1800
1800
1800
1800
ENDCHAR
STARTCHAR 0242
ENCODING 578
SWIDTH 409 0
DWIDTH 9 0
BBX 8 12 0 0
BITMAP
7C
FF
03
03
07
1E
1C
38
30
30
30
30
ENDCHAR
STARTCHAR 0243
ENCODING 579
SWIDTH 636 0
DWIDTH 14 0
BBX 13 15 0 0
BITMAP
3FC0
3FE0
3070
3030
3030
3070
3FC0
3FE0
3038
FE18
FE18
3018
3038
3FF0
3FC0
ENDCHAR
STARTCHAR 0244
ENCODING 580
SWIDTH 727 0
DWIDTH 16 0
BBX 16 15 0 0
BITMAP
300C
300C
300C
300C
300C
FFFF
FFFF
300C
300C
300C
300C
381C
1C38
0FF0
07E0
ENDCHAR
STARTCHAR 0245
ENCODING 581
SWIDTH 636 0
DWIDTH 14 0
BBX 14 15 0 0
BITMAP
0700
0700
0F80
0D80
0DC0
18C0
18E0
3860
3060
3030
7030
6038
6018
E018
C00C
ENDCHAR
STARTCHAR 0246
ENCODING 582
SWIDTH 590 0
DWIDTH 13 0
BBX 11 20 2 -3
BITMAP
0060
00E0
FFC0
FFC0
C180
C180
C300
C300
FF80
FF80
C600
CC00
CC00
CC00
D800
FFC0
FFC0
3000
3000
6000
ENDCHAR
STARTCHAR 0247
ENCODING 583
SWIDTH 590 0
DWIDTH 13 0
BBX 11 16 1 -2
BITMAP
0100
0100
1F00
3F80
73C0
C660
C660
FFE0
FFE0
CC00
EC00
7800
3FC0
1FC0
1000
1000
ENDCHAR
STARTCHAR 0248
ENCODING 584
SWIDTH 500 0
DWIDTH 11 0
BBX 11 15 0 0
BITMAP
0180
0180
0180
0180
0180
0180
0FE0
0FE0
0180
0180
0180
0180
4380
FF00
7E00
ENDCHAR
STARTCHAR 0249
ENCODING 585
SWIDTH 272 0
DWIDTH 6 0
BBX 7 20 -1 -4
BITMAP
18
18
00
00
18
18
18
18
18
7E
7E
18
18
18
18
18
18
18
F0
E0
ENDCHAR
STARTCHAR 024A
ENCODING 586
SWIDTH 772 0
DWIDTH 17 0
BBX 17 19 1 -4
BITMAP
0FC000
1FF000
387000
601800
E01C00
C00C00
C00C00
C00C00
C00C00
C00C00
E01C00
601C00
387C00
1FEC00
0FCC00
000C00
000C00
000F80
000780
ENDCHAR
STARTCHAR 024B
ENCODING 587
SWIDTH 590 0
DWIDTH 13 0
BBX 13 16 1 -4
BITMAP
1FC0
3FC0
70C0
E0C0
C0C0
C0C0
C0C0
C0C0
E0C0
61C0
7FC0
1EC0
00C0
00C0
00F8
0078
ENDCHAR
STARTCHAR 024C
ENCODING 588
SWIDTH 636 0
DWIDTH 14 0
BBX 14 15 0 0
BITMAP
3FC0
3FF0
3038
3018
3018
3018
3038
FFF0
FFC0
30E0
3060
3030
3038
301C
300C
ENDCHAR
STARTCHAR 024D
ENCODING 589
SWIDTH 409 0
DWIDTH 9 0
BBX 9 12 0 0
BITMAP
1F80
3F80
3000
3000
3000
3000
FE00
FE00
3000
3000
3000
3000
ENDCHAR
STARTCHAR 024E
ENCODING 590
SWIDTH 636 0
DWIDTH 14 0
BBX 14 15 0 0
BITMAP
E01C
6018
3030
FFFC
FFFC
0CC0
0DC0
0780
0300
0300
0300
0300
0300
0300
0300
ENDCHAR
STARTCHAR 024F
ENCODING 591
SWIDTH 500 0
DWIDTH 11 0
BBX 11 16 0 -4
BITMAP
C060
60C0
60C0
60C0
FFE0
FFE0
1980
1B00
1B00
0F00
0E00
0E00
0E00
0C00
F800
F000
ENDCHAR
STARTCHAR 0292
ENCODING 658
SWIDTH 454 0
DWIDTH 10 0
BBX 9 16 0 -4
BITMAP
7F00
7F00
0600
0600
0C00
0C00
1800
3E00
0300
0180
0180
0180
0180
8380
FF00
FC00
ENDCHAR
STARTCHAR 02BC
ENCODING 700
SWIDTH 363 0
DWIDTH 8 0
BBX 3 5 2 12
BITMAP
60
60
60
C0
C0
ENDCHAR
STARTCHAR 02C6
ENCODING 710
SWIDTH 363 0
DWIDTH 8 0
BBX 5 4 2 13
BITMAP
20
70
D8
88
ENDCHAR
STARTCHAR 02C7
ENCODING 711
SWIDTH 363 0
DWIDTH 8 0
BBX 5 4 2 13
BITMAP
88
D8
70
20
ENDCHAR
STARTCHAR 02C9
ENCODING 713
SWIDTH 363 0
DWIDTH 8 0
BBX 6 2 1 14
BITMAP
FC
FC
ENDCHAR
STARTCHAR 02D8
ENCODING 728
SWIDTH 363 0
DWIDTH 8 0
BBX 5 3 1 13
BITMAP
88
F8
70
ENDCHAR
STARTCHAR 02D9
ENCODING 729
SWIDTH 363 0
DWIDTH 8 0
BBX 3 3 2 14
BITMAP
E0
E0
E0
ENDCHAR
STARTCHAR 02DA
ENCODING 730
SWIDTH 363 0
DWIDTH 8 0
BBX 5 4 2 13
BITMAP
70
D8
D8
70
ENDCHAR
STARTCHAR 02DB
ENCODING 731
SWIDTH 363 0
DWIDTH 8 0
BBX 4 4 1 -4
BITMAP
60
C0
C0
F0
ENDCHAR
STARTCHAR 02DC
ENCODING 732
SWIDTH 363 0
DWIDTH 8 0
BBX 7 3 1 14
BITMAP
72
FE
9C
ENDCHAR
STARTCHAR 02DD
ENCODING 733
SWIDTH 363 0
DWIDTH 8 0
BBX 8 4 1 13
BITMAP
22
77
EE
44
ENDCHAR
STARTCHAR 0311
ENCODING 785
SWIDTH 363 0
DWIDTH 8 0
BBX 5 3 1 13
BITMAP
70
F8
88
ENDCHAR
STARTCHAR 0384
ENCODING 900
SWIDTH 363 0
DWIDTH 8 0
BBX 4 5 3 13
BITMAP
20
30
60
C0
40
ENDCHAR
STARTCHAR 0385
ENCODING 901
SWIDTH 363 0
DWIDTH 8 0
BBX 9 4 0 13
BITMAP
0800
CD80
D980
1800
ENDCHAR
STARTCHAR 0386
ENCODING 902
SWIDTH 681 0
DWIDTH 15 0
BBX 15 15 0 0
BITMAP
1380
3380
26C0
26C0
0C60
0C60
1C60
1830
1830
3FF8
3FF8
701C
600C
600C
C006
ENDCHAR
STARTCHAR 0388
ENCODING 904
SWIDTH 636 0
DWIDTH 14 0
BBX 13 15 0 0
BITMAP
5FF0
DFF0
9800
9800
1800
1800
1FF0
1FF0
1800
1800
1800
1800
1800
1FF8
1FF8
ENDCHAR
STARTCHAR 0389
ENCODING 905
SWIDTH 772 0
DWIDTH 17 0
BBX 16 15 0 0
BITMAP
4C03
CC03
8C03
8C03
0C03
0C03
0FFF
0FFF
0C03
0C03
0C03
0C03
0C03
0C03
0C03
ENDCHAR
STARTCHAR 038A
ENCODING 906
SWIDTH 318 0
DWIDTH 7 0
BBX 6 15 0 0
BITMAP
4C
CC
8C
8C
0C
0C
0C
0C
0C
0C
0C
0C
0C
0C
0C
ENDCHAR
STARTCHAR 038C
ENCODING 908
SWIDTH 818 0
DWIDTH 18 0
BBX 17 15 0 0
BITMAP
41F000
C7FC00
8E0E00
980300
380300
300180
300180
300180
300180
300180
380300
180300
0E0E00
07FC00
01F000
ENDCHAR
STARTCHAR 038E
ENCODING 910
SWIDTH 727 0
DWIDTH 16 0
BBX 15 15 0 0
BITMAP
5806
CC0C
8C0C
8618
0738
0330
01E0
01E0
00C0
00C0
00C0
00C0
00C0
00C0
00C0
ENDCHAR
STARTCHAR 038F
ENCODING 911
SWIDTH 818 0
DWIDTH 18 0
BBX 17 15 -1 0
BITMAP
43F000
C7FC00
8E0E00
980300
380380
300180
300180
300180
300180
100100
180300
0C0600
060C00
3F1F80
3F1F80
ENDCHAR
STARTCHAR 0390
ENCODING 912
SWIDTH 318 0
DWIDTH 7 0
BBX 9 17 -1 0
BITMAP
0800
CD80
D980
1800
0000
1800
1800
1800
1800
1800
1800
1800
1800
1800
1800
1E00
0E00
ENDCHAR
STARTCHAR 0391
ENCODING 913
SWIDTH 681 0
DWIDTH 15 0
BBX 15 15 0 0
BITMAP
0380
0380
06C0
06C0
0C60
0C60
1C60
1830
1830
3FF8
3FF8
701C
600C
600C
C006
ENDCHAR
STARTCHAR 0392
ENCODING 914
SWIDTH 636 0
DWIDTH 14 0
BBX 11 15 2 0
BITMAP
FF00
FF80
C1C0
C0C0
C0C0
C1C0
FF00
FF80
C0E0
C060
C060
C060
C0E0
FFC0
FF00
ENDCHAR
STARTCHAR 0393
ENCODING 915
SWIDTH 500 0
DWIDTH 11 0
BBX 9 15 2 0
BITMAP
FF80
FF80
C000
C000
C000
C000
C000
C000
C000
C000
C000
C000
C000
C000
C000
ENDCHAR
STARTCHAR 0394
ENCODING 916
SWIDTH 636 0
DWIDTH 14 0
BBX 14 15 0 0
BITMAP
0700
0F80
0D80
1DC0
1CC0
18E0
3860
3060
3070
3030
7030
6018
6018
FFFC
FFFC
ENDCHAR
STARTCHAR 0395
ENCODING 917
SWIDTH 590 0
DWIDTH 13 0
BBX 10 15 2 0
BITMAP
FF80
FF80
C000
C000
C000
C000
FF80
FF80
C000
C000
C000
C000
C000
FFC0
FFC0
ENDCHAR
STARTCHAR 0396
ENCODING 918
SWIDTH 590 0
DWIDTH 13 0
BBX 11 15 1 0
BITMAP
FFE0
FFE0
00E0
01C0
0380
0300
0600
0C00
1C00
3800
3000
6000
E000
FFE0
FFE0
ENDCHAR
STARTCHAR 0397
ENCODING 919
SWIDTH 727 0
DWIDTH 16 0
BBX 12 15 2 0
BITMAP
C030
C030
C030
C030
C030
C030
FFF0
FFF0
C030
C030
C030
C030
C030
C030
C030
ENDCHAR
STARTCHAR 0398
ENCODING 920
SWIDTH 772 0
DWIDTH 17 0
BBX 15 15 1 0
BITMAP
07C0
1FF0
3838
600C
E00C
C006
C006
CFE6
CFE6
C006
E00C
600C
3838
1FF0
07C0
ENDCHAR
STARTCHAR 0399
ENCODING 921
SWIDTH 272 0
DWIDTH 6 0
BBX 2 15 2 0
BITMAP
C0
C0
C0
C0
C0
C0
C0
C0
C0
C0
C0
C0
C0
C0
C0
ENDCHAR
STARTCHAR 039A
ENCODING 922
SWIDTH 636 0
DWIDTH 14 0
BBX 12 15 2 0
BITMAP
C0E0
C1C0
C380
C700
CE00
DC00
F800
F000
FC00
DE00
CF00
C380
C1C0
C0E0
C070
ENDCHAR
STARTCHAR 039B
ENCODING 923
SWIDTH 636 0
DWIDTH 14 0
BBX 14 15 0 0
BITMAP
0700
0700
0F80
0D80
0DC0
18C0
18E0
3860
3060
3030
7030
6038
6018
E018
C00C
ENDCHAR
STARTCHAR 039C
ENCODING 924
SWIDTH 818 0
DWIDTH 18 0
BBX 16 15 1 0
BITMAP
6006
700E
700E
781E
6816
6C36
C423
C663
C663
C243
C3C3
C3C3
C183
C003
C003
ENDCHAR
STARTCHAR 039D
ENCODING 925
SWIDTH 727 0
DWIDTH 16 0
BBX 12 15 2 0
BITMAP
C030
E030
F030
F830
D830
CC30
C630
C730
C330
C1B0
C0F0
C0F0
C070
C030
C030
ENDCHAR
STARTCHAR 039E
ENCODING 926
SWIDTH 545 0
DWIDTH 12 0
BBX 10 15 1 0
BITMAP
FFC0
FFC0
0000
0000
0000
0000
7F80
7F80
0000
0000
0000
0000
0000
FFC0
FFC0
ENDCHAR
STARTCHAR 039F
ENCODING 927
SWIDTH 772 0
DWIDTH 17 0
BBX 15 15 1 0
BITMAP
07C0
1FF0
3838
600C
E00C
C006
C006
C006
C006
C006
E00C
600C
3838
1FF0
07C0
ENDCHAR
STARTCHAR 03A0
ENCODING 928
SWIDTH 681 0
DWIDTH 15 0
BBX 11 15 2 0
BITMAP
FFE0
FFE0
C060
C060
C060
C060
C060
C060
C060
C060
C060
C060
C060
C060
C060
ENDCHAR
STARTCHAR 03A1
ENCODING 929
SWIDTH 590 0
DWIDTH 13 0
BBX 10 15 2 0
BITMAP
FE00
FF80
C1C0
C0C0
C0C0
C0C0
C1C0
FF80
FE00
C000
C000
C000
C000
C000
C000
ENDCHAR
STARTCHAR 03A3
ENCODING 931
SWIDTH 545 0
DWIDTH 12 0
BBX 10 15 1 0
BITMAP
FFC0
FFC0
6000
3000
3800
1800
0C00
0600
0C00
1800
3000
7000
6000
FFC0
FFC0
ENDCHAR
STARTCHAR 03A4
ENCODING 932
SWIDTH 545 0
DWIDTH 12 0
BBX 12 15 0 0
BITMAP
FFF0
FFF0
0600
0600
0600
0600
0600
0600
0600
0600
0600
0600
0600
0600
0600
ENDCHAR
STARTCHAR 03A5
ENCODING 933
SWIDTH 545 0
DWIDTH 12 0
BBX 12 15 0 0
BITMAP
C030
6060
6060
30C0
39C0
1980
0F00
0F00
0600
0600
0600
0600
0600
0600
0600
ENDCHAR
STARTCHAR 03A6
ENCODING 934
SWIDTH 818 0
DWIDTH 18 0
BBX 16 16 1 0
BITMAP
0180
0180
0FF0
3FFC
718E
6186
C183
C183
C183
C183
6186
718E
3FFC
0FF0
0180
0180
ENDCHAR
STARTCHAR 03A7
ENCODING 935
SWIDTH 636 0
DWIDTH 14 0
BBX 13 15 1 0
BITMAP
E038
6030
3060
18C0
18C0
0D80
0700
0700
0700
0D80
18C0
38E0
3060
6030
E038
ENDCHAR
STARTCHAR 03A8
ENCODING 936
SWIDTH 909 0
DWIDTH 20 0
BBX 16 15 2 0
BITMAP
C183
C183
C183
C183
C183
C183
C183
E187
718E
3FFC
0FF0
0180
0180
0180
0180
ENDCHAR
STARTCHAR 03A9
ENCODING 937
SWIDTH 772 0
DWIDTH 17 0
BBX 15 15 1 0
BITMAP
0FC0
1FF0
3838
600C
E00E
C006
C006
C006
C006
4004
600C
3018
1830
FC7E
FC7E
ENDCHAR
STARTCHAR 03AA
ENCODING 938
SWIDTH 272 0
DWIDTH 6 0
BBX 8 20 -1 0
BITMAP
E7
E7
E7
00
00
18
18
18
18
18
18
18
18
18
18
18
18
18
18
18
ENDCHAR
STARTCHAR 03AB
ENCODING 939
SWIDTH 545 0
DWIDTH 12 0
BBX 12 20 0 0
BITMAP
39C0
39C0
39C0
0000
0000
C030
6060
6060
30C0
39C0
1980
0F00
0F00
0600
0600
0600
0600
0600
0600
0600
ENDCHAR
STARTCHAR 03AC
ENCODING 940
SWIDTH 590 0
DWIDTH 13 0
BBX 12 18 1 0
BITMAP
0200
0300
0600
0C00
0400
0000
1F80
3FC0
70C0
E0C0
C0C0
C0C0
C0C0
C0C0
E0C0
60C0
7FF0
1F30
ENDCHAR
STARTCHAR 03AD
ENCODING 941
SWIDTH 500 0
DWIDTH 11 0
BBX 9 18 1 0
BITMAP
0400
0600
0C00
1800
0800
0000
3F00
7F00
E100
C000
C000
7C00
FC00
C000
C000
E080
7F80
3F00
ENDCHAR
STARTCHAR 03AE
ENCODING 942
SWIDTH 590 0
DWIDTH 13 0
BBX 9 22 2 -4
BITMAP
0400
0600
0C00
1800
0800
0000
FE00
FF00
C380
C180
C180
C180
C180
C180
C180
C180
C180
C180
0180
0180
0180
0180
ENDCHAR
STARTCHAR 03AF
ENCODING 943
SWIDTH 318 0
DWIDTH 7 0
BBX 4 18 2 0
BITMAP
20
30
60
C0
40
00
C0
C0
C0
C0
C0
C0
C0
C0
C0
C0
F0
70
ENDCHAR
STARTCHAR 03B0
ENCODING 944
SWIDTH 590 0
DWIDTH 13 0
BBX 9 17 2 0
BITMAP
0800
CD80
D980
1800
0000
C180
C180
C180
C180
C180
C180
C180
C180
C180
E380
7F00
3E00
ENDCHAR
STARTCHAR 03B1
ENCODING 945
SWIDTH 590 0
DWIDTH 13 0
BBX 12 12 1 0
BITMAP
1F80
3FC0
70C0
E0C0
C0C0
C0C0
C0C0
C0C0
E0C0
60C0
7FF0
1F30
ENDCHAR
STARTCHAR 03B2
ENCODING 946
SWIDTH 590 0
DWIDTH 13 0
BBX 10 21 2 -4
BITMAP
3E00
7F00
E380
C180
C180
C180
C300
CE00
CF80
C180
C0C0
C0C0
C0C0
C0C0
C180
FF80
FE00
C000
C000
C000
C000
ENDCHAR
STARTCHAR 03B3
ENCODING 947
SWIDTH 500 0
DWIDTH 11 0
BBX 10 16 0 -4
BITMAP
C0C0
60C0
6180
6180
2180
3100
3300
3300
1A00
1E00
1C00
1C00
0C00
0C00
0C00
0C00
ENDCHAR
STARTCHAR 03B4
ENCODING 948
SWIDTH 590 0
DWIDTH 13 0
BBX 11 17 1 0
BITMAP
1F80
3FC0
3040
3800
1E00
1F00
3980
60C0
E060
C060
C060
C060
C060
E0E0
71C0
3F80
1F00
ENDCHAR
STARTCHAR 03B5
ENCODING 949
SWIDTH 500 0
DWIDTH 11 0
BBX 9 12 1 0
BITMAP
3F00
7F00
E100
C000
C000
7C00
FC00
C000
C000
E080
7F80
3F00
ENDCHAR
STARTCHAR 03B6
ENCODING 950
SWIDTH 454 0
DWIDTH 10 0
BBX 9 21 1 -4
BITMAP
7F80
7F80
0700
0E00
1C00
1800
3000
7000
6000
C000
C000
C000
C000
C000
E000
7E00
1F80
0380
0180
0180
0300
ENDCHAR
STARTCHAR 03B7
ENCODING 951
SWIDTH 590 0
DWIDTH 13 0
BBX 9 16 2 -4
BITMAP
FE00
FF00
C380
C180
C180
C180
C180
C180
C180
C180
C180
C180
0180
0180
0180
0180
ENDCHAR
STARTCHAR 03B8
ENCODING 952
SWIDTH 590 0
DWIDTH 13 0
BBX 11 17 1 0
BITMAP
1F00
3F80
71C0
60C0
C060
C060
C060
FFE0
FFE0
C060
C060
C060
E0E0
60C0
71C0
3F80
1F00
ENDCHAR
STARTCHAR 03B9
ENCODING 953
SWIDTH 318 0
DWIDTH 7 0
BBX 4 12 2 0
BITMAP
C0
C0
C0
C0
C0
C0
C0
C0
C0
C0
F0
70
ENDCHAR
STARTCHAR 03BA
ENCODING 954
SWIDTH 545 0
DWIDTH 12 0
BBX 10 12 2 0
BITMAP
C1C0
C380
C700
CC00
D800
F800
FC00
DE00
CF00
C700
C380
C1C0
ENDCHAR
STARTCHAR 03BB
ENCODING 955
SWIDTH 500 0
DWIDTH 11 0
BBX 11 17 0 0
BITMAP
F000
F800
1C00
0C00
0600
0600
0700
0F00
0F00
1D80
1980
3980
30C0
30C0
60C0
60E0
C060
ENDCHAR
STARTCHAR 03BC
ENCODING 956
SWIDTH 590 0
DWIDTH 13 0
BBX 9 16 2 -4
BITMAP
C180
C180
C180
C180
C180
C180
C180
C180
C180
E180
FF80
FF80
C000
C000
C000
C000
ENDCHAR
STARTCHAR 03BD
ENCODING 957
SWIDTH 454 0
DWIDTH 10 0
BBX 10 12 0 0
BITMAP
C0C0
C0C0
6180
6180
6180
3300
3300
3300
1E00
1E00
1E00
0C00
ENDCHAR
STARTCHAR 03BE
ENCODING 958
SWIDTH 454 0
DWIDTH 10 0
BBX 9 21 1 -4
BITMAP
1F00
3F00
7000
6000
6000
6000
3000
0F00
3F00
7000
E000
C000
C000
C000
7000
7F00
1F80
0180
0180
0180
0300
ENDCHAR
STARTCHAR 03BF
ENCODING 959
SWIDTH 590 0
DWIDTH 13 0
BBX 11 12 1 0
BITMAP
1F00
3F80
71C0
E0E0
C060
C060
C060
C060
E0E0
71C0
3F80
1F00
ENDCHAR
STARTCHAR 03C0
ENCODING 960
SWIDTH 590 0
DWIDTH 13 0
BBX 9 12 2 0
BITMAP
FF80
FF80
C180
C180
C180
C180
C180
C180
C180
C180
C180
C180
ENDCHAR
STARTCHAR 03C1
ENCODING 961
SWIDTH 590 0
DWIDTH 13 0
BBX 10 16 2 -4
BITMAP
3E00
7F80
6180
C0C0
C0C0
C0C0
C0C0
C0C0
C1C0
E180
FF80
DE00
C000
C000
C000
C000
ENDCHAR
STARTCHAR 03C2
ENCODING 962
SWIDTH 454 0
DWIDTH 10 0
BBX 9 16 1 -4
BITMAP
1F80
3F80
7000
E000
C000
C000
C000
C000
E000
7000
3F00
0F80
0180
0180
0180
0300
ENDCHAR
STARTCHAR 03C3
ENCODING 963
SWIDTH 590 0
DWIDTH 13 0
BBX 12 12 1 0
BITMAP
1FF0
3FF0
70C0
E0C0
C060
C060
C060
C060
E0E0
71C0
3FC0
1F00
ENDCHAR
STARTCHAR 03C4
ENCODING 964
SWIDTH 454 0
DWIDTH 10 0
BBX 9 12 0 0
BITMAP
FF80
FF80
1800
1800
1800
1800
1800
1800
1800
1C00
0F80
0780
ENDCHAR
STARTCHAR 03C5
ENCODING 965
SWIDTH 590 0
DWIDTH 13 0
BBX 9 12 2 0
BITMAP
C180
C180
C180
C180
C180
C180
C180
C180
C180
E380
7F00
3E00
ENDCHAR
STARTCHAR 03C6
ENCODING 966
SWIDTH 727 0
DWIDTH 16 0
BBX 14 16 1 -4
BITMAP
0FC0
3FF0
7338
E31C
C30C
C30C
C30C
C30C
E31C
7338
3FF0
0FC0
0300
0300
0300
0300
ENDCHAR
STARTCHAR 03C7
ENCODING 967
SWIDTH 500 0
DWIDTH 11 0
BBX 11 12 0 0
BITMAP
E0E0
60C0
3180
1B00
1F00
0E00
0E00
1F00
3B80
3180
60C0
E0E0
ENDCHAR
STARTCHAR 03C8
ENCODING 968
SWIDTH 818 0
DWIDTH 18 0
BBX 14 16 2 -4
BITMAP
C30C
C30C
C30C
C30C
C30C
C30C
C30C
C30C
E31C
7338
3FF0
1FE0
0300
0300
0300
0300
ENDCHAR
STARTCHAR 03C9
ENCODING 969
SWIDTH 818 0
DWIDTH 18 0
BBX 16 12 1 0
BITMAP
300C
6006
6186
C183
C183
C183
C183
C183
C183
63C6
7FFE
3E7C
ENDCHAR
STARTCHAR 03CA
ENCODING 970
SWIDTH 318 0
DWIDTH 7 0
BBX 8 17 -1 0
BITMAP
E7
E7
E7
00
00
18
18
18
18
18
18
18
18
18
18
1E
0E
ENDCHAR
STARTCHAR 03CB
ENCODING 971
SWIDTH 590 0
DWIDTH 13 0
BBX 9 17 2 0
BITMAP
7380
7380
7380
0000
0000
C180
C180
C180
C180
C180
C180
C180
C180
C180
E380
7F00
3E00
ENDCHAR
STARTCHAR 03CC
ENCODING 972
SWIDTH 590 0
DWIDTH 13 0
BBX 11 18 1 0
BITMAP
0200
0300
0600
0C00
0400
0000
1F00
3F80
71C0
E0E0
C060
C060
C060
C060
E0E0
71C0
3F80
1F00
ENDCHAR
STARTCHAR 03CD
ENCODING 973
SWIDTH 590 0
DWIDTH 13 0
BBX 9 18 2 0
BITMAP
0400
0600
0C00
1800
0800
0000
C180
C180
C180
C180
C180
C180
C180
C180
C180
E380
7F00
3E00
ENDCHAR
STARTCHAR 03CE
ENCODING 974
SWIDTH 818 0
DWIDTH 18 0
BBX 16 18 1 0
BITMAP
0080
00C0
0180
0300
0100
0000
300C
6006
6186
C183
C183
C183
C183
C183
C183
63C6
7FFE
3E7C
ENDCHAR
STARTCHAR 0400
ENCODING 1024
SWIDTH 590 0
DWIDTH 13 0
BBX 10 20 2 0
BITMAP
0800
1C00
0E00
0400
0000
FF80
FF80
C000
C000
C000
C000
FF80
FF80
C000
C000
C000
C000
C000
FFC0
FFC0
ENDCHAR
STARTCHAR 0401
ENCODING 1025
SWIDTH 590 0
DWIDTH 13 0
BBX 10 20 2 0
BITMAP
7380
7380
7380
0000
0000
FF80
FF80
C000
C000
C000
C000
FF80
FF80
C000
C000
C000
C000
C000
FFC0
FFC0
ENDCHAR
STARTCHAR 0402
ENCODING 1026
SWIDTH 772 0
DWIDTH 17 0
BBX 16 15 0 0
BITMAP
FFF8
FFF8
0600
0600
0600
07F8
07FE
060E
0603
0603
0603
0603
0607
063E
063C
ENDCHAR
STARTCHAR 0403
ENCODING 1027
SWIDTH 500 0
DWIDTH 11 0
BBX 9 20 2 0
BITMAP
0400
0E00
1C00
0800
0000
FF80
FF80
C000
C000
C000
C000
C000
C000
C000
C000
C000
C000
C000
C000
C000
ENDCHAR
STARTCHAR 0404
ENCODING 1028
SWIDTH 636 0
DWIDTH 14 0
BBX 12 15 1 0
BITMAP
0FE0
1FF0
3810
6000
C000
C000
FF80
FF80
C000
C000
E000
6000
3820
1FF0
0FE0
ENDCHAR
STARTCHAR 0405
ENCODING 1029
SWIDTH 545 0
DWIDTH 12 0
BBX 10 15 1 0
BITMAP
3F00
7F80
E000
C000
C000
E000
7800
3F00
0780
01C0
00C0
00C0
C1C0
FF80
7F00
ENDCHAR
STARTCHAR 0406
ENCODING 1030
SWIDTH 272 0
DWIDTH 6 0
BBX 2 15 2 0
BITMAP
C0
C0
C0
C0
C0
C0
C0
C0
C0
C0
C0
C0
C0
C0
C0
ENDCHAR
STARTCHAR 0407
ENCODING 1031
SWIDTH 272 0
DWIDTH 6 0
BBX 8 20 -1 0
BITMAP
E7
E7
E7
00
00
18
18
18
18
18
18
18
18
18
18
18
18
18
18
18
ENDCHAR
STARTCHAR 0408
ENCODING 1032
SWIDTH 500 0
DWIDTH 11 0
BBX 9 15 0 0
BITMAP
0180
0180
0180
0180
0180
0180
0180
0180
0180
0180
0180
0180
4380
FF00
7E00
ENDCHAR
STARTCHAR 0409
ENCODING 1033
SWIDTH 1045 0
DWIDTH 23 0
BBX 22 15 0 -1
BITMAP
07FC00
07FC00
060C00
060C00
060C00
060FE0
060FF8
060C18
0C0C0C
0C0C0C
0C0C0C
1C0C0C
380C18
F00FF8
E00FE0
ENDCHAR
STARTCHAR 040A
ENCODING 1034
SWIDTH 1045 0
DWIDTH 23 0
BBX 20 15 2 0
BITMAP
C06000
C06000
C06000
C06000
C06000
FFFF80
FFFFE0
C060E0
C06030
C06030
C06030
C06030
C060E0
C07FC0
C07F80
ENDCHAR
STARTCHAR 040B
ENCODING 1035
SWIDTH 727 0
DWIDTH 16 0
BBX 15 15 0 0
BITMAP
FFF0
FFF0
0600
0600
0600
07F8
07FC
060E
0606
0606
0606
0606
0606
0606
0606
ENDCHAR
STARTCHAR 040C
ENCODING 1036
SWIDTH 636 0
DWIDTH 14 0
BBX 12 20 2 0
BITMAP
0200
0700
0E00
0400
0000
C0E0
C1C0
C380
C700
CE00
DC00
F800
F000
FC00
DE00
CF00
C380
C1C0
C0E0
C070
ENDCHAR
STARTCHAR 040D
ENCODING 1037
SWIDTH 727 0
DWIDTH 16 0
BBX 12 20 2 0
BITMAP
0800
1C00
0E00
0400
0000
C030
C070
C0F0
C0F0
C1B0
C330
C730
C630
CC30
D830
F830
F030
E030
C030
C030
ENDCHAR
STARTCHAR 040E
ENCODING 1038
SWIDTH 590 0
DWIDTH 13 0
BBX 13 19 0 0
BITMAP
18C0
0F80
0700
0000
C018
6030
7030
3070
3860
1860
0CC0
0CC0
0780
0780
0380
0300
0700
7E00
7800
ENDCHAR
STARTCHAR 040F
ENCODING 1039
SWIDTH 681 0
DWIDTH 15 0
BBX 11 19 2 -4
BITMAP
C060
C060
C060
C060
C060
C060
C060
C060
C060
C060
C060
C060
C060
FFE0
FFE0
0600
0600
0600
0600
ENDCHAR
STARTCHAR 0410
ENCODING 1040
SWIDTH 681 0
DWIDTH 15 0
BBX 15 15 0 0
BITMAP
0380
0380
06C0
06C0
0C60
0C60
1C60
1830
1830
3FF8
3FF8
701C
600C
600C
C006
ENDCHAR
STARTCHAR 0411
ENCODING 1041
SWIDTH 636 0
DWIDTH 14 0
BBX 11 15 2 0
BITMAP
FFC0
FFC0
C000
C000
C000
FF00
FFC0
C1C0
C060
C060
C060
C060
C1C0
FFC0
FF00
ENDCHAR
STARTCHAR 0412
ENCODING 1042
SWIDTH 636 0
DWIDTH 14 0
BBX 11 15 2 0
BITMAP
FF00
FF80
C1C0
C0C0
C0C0
C1C0
FF00
FF80
C0E0
C060
C060
C060
C0E0
FFC0
FF00
ENDCHAR
STARTCHAR 0413
ENCODING 1043
SWIDTH 500 0
DWIDTH 11 0
BBX 9 15 2 0
BITMAP
FF80
FF80
C000
C000
C000
C000
C000
C000
C000
C000
C000
C000
C000
C000
C000
ENDCHAR
STARTCHAR 0414
ENCODING 1044
SWIDTH 727 0
DWIDTH 16 0
BBX 16 19 0 -4
BITMAP
07FC
07FC
060C
060C
060C
060C
060C
060C
0C0C
0C0C
0C0C
180C
380C
FFFF
FFFF
C003
C003
C003
C003
ENDCHAR
STARTCHAR 0415
ENCODING 1045
SWIDTH 590 0
DWIDTH 13 0
BBX 10 15 2 0
BITMAP
FF80
FF80
C000
C000
C000
C000
FF80
FF80
C000
C000
C000
C000
C000
FFC0
FFC0
ENDCHAR
STARTCHAR 0416
ENCODING 1046
SWIDTH 909 0
DWIDTH 20 0
BBX 18 15 1 0
BITMAP
E0C1C0
60C180
30C300
18C600
1CCE00
0EDC00
06D800
03F000
06D800
0CCC00
18C600
38C700
30C300
60C180
E0C1C0
ENDCHAR
STARTCHAR 0417
ENCODING 1047
SWIDTH 590 0
DWIDTH 13 0
BBX 11 15 1 0
BITMAP
3F00
7F80
01C0
00C0
00C0
0180
1F00
1F80
00C0
0060
0060
0060
C0E0
FFC0
7F00
ENDCHAR
STARTCHAR 0418
ENCODING 1048
SWIDTH 727 0
DWIDTH 16 0
BBX 12 15 2 0
BITMAP
C030
C070
C0F0
C0F0
C1B0
C330
C730
C630
CC30
D830
F830
F030
E030
C030
C030
ENDCHAR
STARTCHAR 0419
ENCODING 1049
SWIDTH 727 0
DWIDTH 16 0
BBX 12 19 2 0
BITMAP
3180
1F00
0E00
0000
C030
C070
C0F0
C0F0
C1B0
C330
C730
C630
CC30
D830
F830
F030
E030
C030
C030
ENDCHAR
STARTCHAR 041A
ENCODING 1050
SWIDTH 636 0
DWIDTH 14 0
BBX 12 15 2 0
BITMAP
C0E0
C1C0
C380
C700
CE00
DC00
F800
F000
FC00
DE00
CF00
C380
C1C0
C0E0
C070
ENDCHAR
STARTCHAR 041B
ENCODING 1051
SWIDTH 727 0
DWIDTH 16 0
BBX 14 15 0 0
BITMAP
07FC
07FC
060C
060C
060C
060C
060C
060C
0C0C
0C0C
0C0C
1C0C
380C
F00C
E00C
ENDCHAR
STARTCHAR 041C
ENCODING 1052
SWIDTH 818 0
DWIDTH 18 0
BBX 16 15 1 0
BITMAP
6006
700E
700E
781E
6816
6C36
C423
C663
C663
C243
C3C3
C3C3
C183
C003
C003
ENDCHAR
STARTCHAR 041D
ENCODING 1053
SWIDTH 727 0
DWIDTH 16 0
BBX 12 15 2 0
BITMAP
C030
C030
C030
C030
C030
C030
FFF0
FFF0
C030
C030
C030
C030
C030
C030
C030
ENDCHAR
STARTCHAR 041E
ENCODING 1054
SWIDTH 772 0
DWIDTH 17 0
BBX 15 15 1 0
BITMAP
07C0
1FF0
3838
600C
E00C
C006
C006
C006
C006
C006
E00C
600C
3838
1FF0
07C0
ENDCHAR
STARTCHAR 041F
ENCODING 1055
SWIDTH 681 0
DWIDTH 15 0
BBX 11 15 2 0
BITMAP
FFE0
FFE0
C060
C060
C060
C060
C060
C060
C060
C060
C060
C060
C060
C060
C060
ENDCHAR
STARTCHAR 0420
ENCODING 1056
SWIDTH 590 0
DWIDTH 13 0
BBX 10 15 2 0
BITMAP
FE00
FF80
C1C0
C0C0
C0C0
C0C0
C1C0
FF80
FE00
C000
C000
C000
C000
C000
C000
ENDCHAR
STARTCHAR 0421
ENCODING 1057
SWIDTH 636 0
DWIDTH 14 0
BBX 12 15 1 0
BITMAP
07E0
1FF0
3830
6000
6000
C000
C000
C000
C000
C000
E000
6000
3810
1FF0
0FE0
ENDCHAR
STARTCHAR 0422
ENCODING 1058
SWIDTH 545 0
DWIDTH 12 0
BBX 12 15 0 0
BITMAP
FFF0
FFF0
0600
0600
0600
0600
0600
0600
0600
0600
0600
0600
0600
0600
0600
ENDCHAR
STARTCHAR 0423
ENCODING 1059
SWIDTH 590 0
DWIDTH 13 0
BBX 13 15 0 0
BITMAP
C018
6030
7030
3070
3860
1860
0CC0
0CC0
0780
0780
0380
0300
0700
7E00
7800
ENDCHAR
STARTCHAR 0424
ENCODING 1060
SWIDTH 818 0
DWIDTH 18 0
BBX 16 16 1 0
BITMAP
0180
0180
0FF0
3FFC
718E
6186
C183
C183
C183
C183
6186
718E
3FFC
0FF0
0180
0180
ENDCHAR
STARTCHAR 0425
ENCODING 1061
SWIDTH 636 0
DWIDTH 14 0
BBX 13 15 1 0
BITMAP
E038
6030
3060
18C0
18C0
0D80
0700
0700
0700
0D80
18C0
38E0
3060
6030
E038
ENDCHAR
STARTCHAR 0426
ENCODING 1062
SWIDTH 727 0
DWIDTH 16 0
BBX 14 19 2 -4
BITMAP
C030
C030
C030
C030
C030
C030
C030
C030
C030
C030
C030
C030
C030
FFFC
FFFC
000C
000C
000C
000C
ENDCHAR
STARTCHAR 0427
ENCODING 1063
SWIDTH 636 0
DWIDTH 14 0
BBX 11 15 1 0
BITMAP
C060
C060
C060
C060
C060
C060
C060
E060
7FE0
1FE0
0060
0060
0060
0060
0060
ENDCHAR
STARTCHAR 0428
ENCODING 1064
SWIDTH 1000 0
DWIDTH 22 0
BBX 18 15 2 0
BITMAP
C0C0C0
C0C0C0
C0C0C0
C0C0C0
C0C0C0
C0C0C0
C0C0C0
C0C0C0
C0C0C0
C0C0C0
C0C0C0
C0C0C0
C0C0C0
FFFFC0
FFFFC0
ENDCHAR
STARTCHAR 0429
ENCODING 1065
SWIDTH 1000 0
DWIDTH 22 0
BBX 20 19 2 -4
BITMAP
C0C0C0
C0C0C0
C0C0C0
C0C0C0
C0C0C0
C0C0C0
C0C0C0
C0C0C0
C0C0C0
C0C0C0
C0C0C0
C0C0C0
C0C0C0
FFFFF0
FFFFF0
000030
000030
000030
000030
ENDCHAR
STARTCHAR 042A
ENCODING 1066
SWIDTH 727 0
DWIDTH 16 0
BBX 15 15 0 0
BITMAP
FC00
FC00
0C00
0C00
0C00
0FF0
0FFC
0C1C
0C06
0C06
0C06
0C06
0C1C
0FFC
0FF0
ENDCHAR
STARTCHAR 042B
ENCODING 1067
SWIDTH 863 0
DWIDTH 19 0
BBX 15 15 2 0
BITMAP
C006
C006
C006
C006
C006
FE06
FF86
C186
C0C6
C0C6
C0C6
C0C6
C186
FF86
FE06
ENDCHAR
STARTCHAR 042C
ENCODING 1068
SWIDTH 636 0
DWIDTH 14 0
BBX 11 15 2 0
BITMAP
C000
C000
C000
C000
C000
FF00
FFC0
C1C0
C060
C060
C060
C060
C1C0
FFC0
FF00
ENDCHAR
STARTCHAR 042D
ENCODING 1069
SWIDTH 636 0
DWIDTH 14 0
BBX 12 15 1 0
BITMAP
7F00
FF80
81C0
0060
0030
0030
1FF0
1FF0
0030
0030
0070
0060
81C0
FF80
7F00
ENDCHAR
STARTCHAR 042E
ENCODING 1070
SWIDTH 1045 0
DWIDTH 23 0
BBX 20 15 2 0
BITMAP
C07E00
C0FF80
C1C1C0
C30060
C70060
C60030
FE0030
FE0030
C60030
C60030
C70070
C30060
C1C1C0
C0FF80
C03E00
ENDCHAR
STARTCHAR 042F
ENCODING 1071
SWIDTH 636 0
DWIDTH 14 0
BBX 11 15 1 0
BITMAP
0FE0
3FE0
7060
6060
6060
6060
7060
3FE0
0FE0
1C60
1860
3060
6060
6060
C060
ENDCHAR
STARTCHAR 0430
ENCODING 1072
SWIDTH 500 0
DWIDTH 11 0
BBX 8 12 1 0
BITMAP
7C
7E
07
03
3F
7F
E3
C3
C3
E3
7F
3F
ENDCHAR
STARTCHAR 0431
ENCODING 1073
SWIDTH 590 0
DWIDTH 13 0
BBX 11 17 1 0
BITMAP
03C0
1FC0
3C00
6000
6000
DF00
FFC0
E1C0
C0E0
C060
C060
C060
C060
E0E0
71C0
3F80
1F00
ENDCHAR
STARTCHAR 0432
ENCODING 1074
SWIDTH 545 0
DWIDTH 12 0
BBX 9 12 2 0
BITMAP
FC00
FF00
C300
C300
C300
FE00
FF00
C180
C180
C380
FF00
FE00
ENDCHAR
STARTCHAR 0433
ENCODING 1075
SWIDTH 409 0
DWIDTH 9 0
BBX 7 12 2 0
BITMAP
FE
FE
C0
C0
C0
C0
C0
C0
C0
C0
C0
C0
ENDCHAR
STARTCHAR 0434
ENCODING 1076
SWIDTH 590 0
DWIDTH 13 0
BBX 13 15 0 -3
BITMAP
0FE0
0FE0
0C60
0C60
0C60
0C60
1C60
1860
1860
3060
FFF8
FFF8
C018
C018
C018
ENDCHAR
STARTCHAR 0435
ENCODING 1077
SWIDTH 545 0
DWIDTH 12 0
BBX 10 12 1 0
BITMAP
1F00
3F80
6180
C0C0
C0C0
FFC0
FFC0
C000
C000
6000
3F80
1F80
ENDCHAR
STARTCHAR 0436
ENCODING 1078
SWIDTH 727 0
DWIDTH 16 0
BBX 16 12 0 0
BITMAP
718E
318C
1998
1DB8
0FF0
07E0
0DB0
1998
399C
318C
6186
E187
ENDCHAR
STARTCHAR 0437
ENCODING 1079
SWIDTH 500 0
DWIDTH 11 0
BBX 9 12 1 0
BITMAP
FE00
FF00
8380
0180
0380
3F00
3F00
0380
0180
8380
FF00
FE00
ENDCHAR
STARTCHAR 0438
ENCODING 1080
SWIDTH 590 0
DWIDTH 13 0
BBX 9 12 2 0
BITMAP
C180
C380
C780
C780
CD80
C980
D980
D180
F180
E180
E180
C180
ENDCHAR
STARTCHAR 0439
ENCODING 1081
SWIDTH 590 0
DWIDTH 13 0
BBX 9 16 2 0
BITMAP
6300
3E00
1C00
0000
C180
C380
C780
C780
CD80
C980
D980
D180
F180
E180
E180
C180
ENDCHAR
STARTCHAR 043A
ENCODING 1082
SWIDTH 545 0
DWIDTH 12 0
BBX 10 12 2 0
BITMAP
C1C0
C380
C700
CC00
D800
F800
FC00
DE00
CF00
C700
C380
C1C0
ENDCHAR
STARTCHAR 043B
ENCODING 1083
SWIDTH 590 0
DWIDTH 13 0
BBX 11 12 0 0
BITMAP
1FE0
1FE0
1860
1860
1860
1860
1860
3860
3060
7060
E060
C060
ENDCHAR
STARTCHAR 043C
ENCODING 1084
SWIDTH 681 0
DWIDTH 15 0
BBX 13 12 1 0
BITMAP
6030
7070
5050
5058
C898
C898
CD98
C518
C718
C718
C018
C018
ENDCHAR
STARTCHAR 043D
ENCODING 1085
SWIDTH 590 0
DWIDTH 13 0
BBX 9 12 2 0
BITMAP
C180
C180
C180
C180
C180
FF80
FF80
C180
C180
C180
C180
C180
ENDCHAR
STARTCHAR 043E
ENCODING 1086
SWIDTH 590 0
DWIDTH 13 0
BBX 11 12 1 0
BITMAP
1F00
3F80
71C0
E0E0
C060
C060
C060
C060
E0E0
71C0
3F80
1F00
ENDCHAR
STARTCHAR 043F
ENCODING 1087
SWIDTH 590 0
DWIDTH 13 0
BBX 9 12 2 0
BITMAP
FF80
FF80
C180
C180
C180
C180
C180
C180
C180
C180
C180
C180
ENDCHAR
STARTCHAR 0440
ENCODING 1088
SWIDTH 590 0
DWIDTH 13 0
BBX 10 16 2 -4
BITMAP
FE00
FF00
C380
C1C0
C0C0
C0C0
C0C0
C0C0
C1C0
E180
FF80
DE00
C000
C000
C000
C000
ENDCHAR
STARTCHAR 0441
ENCODING 1089
SWIDTH 500 0
DWIDTH 11 0
BBX 9 12 1 0
BITMAP
1F80
3F80
7000
E000
C000
C000
C000
C000
E000
7000
3F80
1F80
ENDCHAR
STARTCHAR 0442
ENCODING 1090
SWIDTH 454 0
DWIDTH 10 0
BBX 10 12 0 0
BITMAP
FFC0
FFC0
0C00
0C00
0C00
0C00
0C00
0C00
0C00
0C00
0C00
0C00
ENDCHAR
STARTCHAR 0443
ENCODING 1091
SWIDTH 454 0
DWIDTH 10 0
BBX 10 16 0 -4
BITMAP
C0C0
60C0
6180
6180
3180
3300
3300
1B00
1B00
1E00
0E00
0E00
0C00
0C00
F800
F000
ENDCHAR
STARTCHAR 0444
ENCODING 1092
SWIDTH 727 0
DWIDTH 16 0
BBX 14 21 1 -4
BITMAP
0300
0300
0300
0300
0300
0FC0
3FF0
7338
E31C
C30C
C30C
C30C
C30C
E31C
7338
3FF0
0FC0
0300
0300
0300
0300
ENDCHAR
STARTCHAR 0445
ENCODING 1093
SWIDTH 500 0
DWIDTH 11 0
BBX 11 12 0 0
BITMAP
E0E0
60C0
3180
1B00
1F00
0E00
0E00
1F00
3B80
3180
60C0
E0E0
ENDCHAR
STARTCHAR 0446
ENCODING 1094
SWIDTH 590 0
DWIDTH 13 0
BBX 11 15 2 -3
BITMAP
C180
C180
C180
C180
C180
C180
C180
C180
C180
C180
FFE0
FFE0
0060
0060
0060
ENDCHAR
STARTCHAR 0447
ENCODING 1095
SWIDTH 545 0
DWIDTH 12 0
BBX 8 12 2 0
BITMAP
C3
C3
C3
C3
C3
E3
7F
3F
03
03
03
03
ENDCHAR
STARTCHAR 0448
ENCODING 1096
SWIDTH 818 0
DWIDTH 18 0
BBX 14 12 2 0
BITMAP
C30C
C30C
C30C
C30C
C30C
C30C
C30C
C30C
C30C
C30C
FFFC
FFFC
ENDCHAR
STARTCHAR 0449
ENCODING 1097
SWIDTH 818 0
DWIDTH 18 0
BBX 16 15 2 -3
BITMAP
C30C
C30C
C30C
C30C
C30C
C30C
C30C
C30C
C30C
C30C
FFFF
FFFF
0003
0003
0003
ENDCHAR
STARTCHAR 044A
ENCODING 1098
SWIDTH 590 0
DWIDTH 13 0
BBX 12 12 0 0
BITMAP
F800
F800
1800
1800
1FC0
1FE0
1870
1830
1830
1870
1FE0
1FC0
ENDCHAR
STARTCHAR 044B
ENCODING 1099
SWIDTH 772 0
DWIDTH 17 0
BBX 13 12 2 0
BITMAP
C018
C018
C018
C018
FE18
FF18
C398
C198
C198
C398
FF18
FE18
ENDCHAR
STARTCHAR 044C
ENCODING 1100
SWIDTH 545 0
DWIDTH 12 0
BBX 9 12 2 0
BITMAP
C000
C000
C000
C000
FE00
FF00
C380
C180
C180
C380
FF00
FE00
ENDCHAR
STARTCHAR 044D
ENCODING 1101
SWIDTH 500 0
DWIDTH 11 0
BBX 9 12 1 0
BITMAP
FC00
FE00
0700
0380
0180
3F80
3F80
0180
0180
0300
FE00
FC00
ENDCHAR
STARTCHAR 044E
ENCODING 1102
SWIDTH 818 0
DWIDTH 18 0
BBX 15 12 2 0
BITMAP
C1F0
C3F8
C71C
CE0E
CC06
FC06
FC06
CC06
CE0E
C71C
C3F8
C1F0
ENDCHAR
STARTCHAR 044F
ENCODING 1103
SWIDTH 545 0
DWIDTH 12 0
BBX 10 12 0 0
BITMAP
1FC0
3FC0
70C0
60C0
60C0
7FC0
1FC0
30C0
30C0
60C0
60C0
C0C0
ENDCHAR
STARTCHAR 0450
ENCODING 1104
SWIDTH 545 0
DWIDTH 12 0
BBX 10 17 1 0
BITMAP
1000
3800
1C00
0800
0000
1F00
3F80
6180
C0C0
C0C0
FFC0
FFC0
C000
C000
6000
3F80
1F80
ENDCHAR
STARTCHAR 0451
ENCODING 1105
SWIDTH 545 0
DWIDTH 12 0
BBX 10 17 1 0
BITMAP
7380
7380
7380
0000
0000
1F00
3F80
6180
C0C0
C0C0
FFC0
FFC0
C000
C000
6000
3F80
1F80
ENDCHAR
STARTCHAR 0452
ENCODING 1106
SWIDTH 590 0
DWIDTH 13 0
BBX 11 21 0 -4
BITMAP
3000
FF00
FF00
3000
3000
3F80
3FC0
30E0
3060
3060
3060
3060
3060
3060
3060
3060
3060
0060
0060
03E0
03C0
ENDCHAR
STARTCHAR 0453
ENCODING 1107
SWIDTH 409 0
DWIDTH 9 0
BBX 7 17 2 0
BITMAP
04
0E
1C
08
00
FE
FE
C0
C0
C0
C0
C0
C0
C0
C0
C0
C0
ENDCHAR
STARTCHAR 0454
ENCODING 1108
SWIDTH 500 0
DWIDTH 11 0
BBX 9 12 1 0
BITMAP
1F80
3F80
7000
E000
C000
FE00
FE00
C000
C000
6000
3F80
1F80
ENDCHAR
STARTCHAR 0455
ENCODING 1109
SWIDTH 454 0
DWIDTH 10 0
BBX 8 12 1 0
BITMAP
3E
7E
C0
C0
E0
7C
3E
07
03
83
FE
FC
ENDCHAR
STARTCHAR 0456
ENCODING 1110
SWIDTH 272 0
DWIDTH 6 0
BBX 2 16 2 0
BITMAP
C0
C0
00
00
C0
C0
C0
C0
C0
C0
C0
C0
C0
C0
C0
C0
ENDCHAR
STARTCHAR 0457
ENCODING 1111
SWIDTH 272 0
DWIDTH 6 0
BBX 8 17 -1 0
BITMAP
E7
E7
E7
00
00
18
18
18
18
18
18
18
18
18
18
18
18
ENDCHAR
STARTCHAR 0458
ENCODING 1112
SWIDTH 272 0
DWIDTH 6 0
BBX 5 20 -1 -4
BITMAP
18
18
00
00
18
18
18
18
18
18
18
18
18
18
18
18
18
38
F0
E0
ENDCHAR
STARTCHAR 0459
ENCODING 1113
SWIDTH 863 0
DWIDTH 19 0
BBX 18 12 0 0
BITMAP
1FE000
1FE000
186000
186000
187F00
187F80
1861C0
3860C0
3060C0
7061C0
E07F80
C07F00
ENDCHAR
STARTCHAR 045A
ENCODING 1114
SWIDTH 863 0
DWIDTH 19 0
BBX 16 12 2 0
BITMAP
C180
C180
C180
C180
C1FC
FFFE
FF87
C183
C183
C187
C1FE
C1FC
ENDCHAR
STARTCHAR 045B
ENCODING 1115
SWIDTH 590 0
DWIDTH 13 0
BBX 11 17 0 0
BITMAP
3000
FF00
FF00
3000
3000
3F80
3FC0
30E0
3060
3060
3060
3060
3060
3060
3060
3060
3060
ENDCHAR
STARTCHAR 045C
ENCODING 1116
SWIDTH 545 0
DWIDTH 12 0
BBX 10 17 2 0
BITMAP
0400
0E00
1C00
0800
0000
C1C0
C380
C700
CC00
D800
F800
FC00
DE00
CF00
C700
C380
C1C0
ENDCHAR
STARTCHAR 045D
ENCODING 1117
SWIDTH 590 0
DWIDTH 13 0
BBX 9 17 2 0
BITMAP
1000
3800
1C00
0800
0000
C180
C380
C780
C780
CD80
C980
D980
D180
F180
E180
E180
C180
ENDCHAR
STARTCHAR 045E
ENCODING 1118
SWIDTH 454 0
DWIDTH 10 0
BBX 10 20 0 -4
BITMAP
18C0
0F80
0700
0000
C0C0
60C0
6180
6180
3180
3300
3300
1B00
1B00
1E00
0E00
0E00
0C00
0C00
F800
F000
ENDCHAR
STARTCHAR 045F
ENCODING 1119
SWIDTH 590 0
DWIDTH 13 0
BBX 9 15 2 -3
BITMAP
C180
C180
C180
C180
C180
C180
C180
C180
C180
C180
FF80
FF80
0C00
0C00
0C00
ENDCHAR
STARTCHAR 0462
ENCODING 1122
SWIDTH 727 0
DWIDTH 16 0
BBX 15 16 0 0
BITMAP
0C00
0C00
FFE0
FFE0
0C00
0C00
0FF0
0FFC
0C1C
0C06
0C06
0C06
0C06
0C1C
0FFC
0FF0
ENDCHAR
STARTCHAR 0463
ENCODING 1123
SWIDTH 590 0
DWIDTH 13 0
BBX 12 17 0 0
BITMAP
1800
1800
1800
1800
1800
FF80
FF80
1800
1800
1FC0
1FE0
1870
1830
1830
1870
1FE0
1FC0
ENDCHAR
STARTCHAR 0472
ENCODING 1138
SWIDTH 772 0
DWIDTH 17 0
BBX 15 15 1 0
BITMAP
07C0
1FF0
3838
600C
E004
DE06
FF8E
E1FE
C076
C006
E00C
601C
3838
1FF0
07C0
ENDCHAR
STARTCHAR 0473
ENCODING 1139
SWIDTH 590 0
DWIDTH 13 0
BBX 11 12 1 0
BITMAP
1F00
3F80
61C0
C0E0
F860
FC60
C7E0
C3E0
E060
70C0
3F80
1F00
ENDCHAR
STARTCHAR 0474
ENCODING 1140
SWIDTH 772 0
DWIDTH 17 0
BBX 17 15 0 0
BITMAP
C00F00
600F80
601800
601800
303000
303000
386000
186000
186000
0CC000
0CC000
0F8000
078000
078000
030000
ENDCHAR
STARTCHAR 0475
ENCODING 1141
SWIDTH 545 0
DWIDTH 12 0
BBX 12 12 0 0
BITMAP
C0F0
C1F0
6180
6180
6300
3300
3300
3E00
1E00
1E00
1C00
0C00
ENDCHAR
STARTCHAR 048A
ENCODING 1162
SWIDTH 727 0
DWIDTH 16 0
BBX 14 23 2 -4
BITMAP
3180
1F00
0E00
0000
C030
C070
C0F0
C0F0
C1B0
C330
C730
C630
CC30
D830
F830
F030
E030
C03C
C03C
000C
0018
0018
0010
ENDCHAR
STARTCHAR 048B
ENCODING 1163
SWIDTH 590 0
DWIDTH 13 0
BBX 11 21 2 -4
BITMAP
6300
3E00
1C00
0000
0000
C180
C380
C780
C780
CD80
C980
D980
D180
F180
E180
E1E0
C1E0
0060
00C0
00C0
0080
ENDCHAR
STARTCHAR 048C
ENCODING 1164
SWIDTH 636 0
DWIDTH 14 0
BBX 13 16 0 0
BITMAP
3000
3000
FE00
FE00
3000
3000
3FC0
3FF0
3070
3018
3018
3018
3018
3070
3FF0
3FC0
ENDCHAR
STARTCHAR 048D
ENCODING 1165
SWIDTH 545 0
DWIDTH 12 0
BBX 11 12 0 0
BITMAP
3000
FE00
FE00
3000
3000
3F80
3FC0
30E0
3060
3060
3FC0
3F80
ENDCHAR
STARTCHAR 048E
ENCODING 1166
SWIDTH 590 0
DWIDTH 13 0
BBX 10 15 2 0
BITMAP
FE00
FF80
C1C0
C0C0
C0C0
CCC0
CFC0
FF80
FE00
C300
C380
C100
C000
C000
C000
ENDCHAR
STARTCHAR 048F
ENCODING 1167
SWIDTH 590 0
DWIDTH 13 0
BBX 10 16 2 -4
BITMAP
FE00
FF00
C380
C1C0
C0C0
C0C0
C0C0
CCC0
CDC0
E780
FF80
DF00
C180
C180
C000
C000
ENDCHAR
STARTCHAR 0490
ENCODING 1168
SWIDTH 500 0
DWIDTH 11 0
BBX 9 18 2 0
BITMAP
0180
0180
0180
FF80
FF80
C000
C000
C000
C000
C000
C000
C000
C000
C000
C000
C000
C000
C000
ENDCHAR
STARTCHAR 0491
ENCODING 1169
SWIDTH 409 0
DWIDTH 9 0
BBX 7 15 2 0
BITMAP
06
06
06
FE
FE
C0
C0
C0
C0
C0
C0
C0
C0
C0
C0
ENDCHAR
STARTCHAR 0492
ENCODING 1170
SWIDTH 500 0
DWIDTH 11 0
BBX 11 15 0 0
BITMAP
3FE0
3FE0
3000
3000
3000
3000
FE00
FE00
3000
3000
3000
3000
3000
3000
3000
ENDCHAR
STARTCHAR 0493
ENCODING 1171
SWIDTH 409 0
DWIDTH 9 0
BBX 9 12 0 0
BITMAP
3F80
3F80
3000
3000
3000
FE00
FE00
3000
3000
3000
3000
3000
ENDCHAR
STARTCHAR 0494
ENCODING 1172
SWIDTH 636 0
DWIDTH 14 0
BBX 11 19 2 -4
BITMAP
FF80
FF80
C000
C000
C000
C000
FF00
FF80
C1C0
C0E0
C060
C060
C060
C060
C060
00C0
01C0
0F80
0F00
ENDCHAR
STARTCHAR 0495
ENCODING 1173
SWIDTH 545 0
DWIDTH 12 0
BBX 9 16 2 -4
BITMAP
FE00
FE00
C000
C000
C000
FE00
FF00
C380
C180
C180
C180
C180
0180
0300
1F00
1C00
ENDCHAR
STARTCHAR 0496
ENCODING 1174
SWIDTH 909 0
DWIDTH 20 0
BBX 19 19 1 -4
BITMAP
E0C1C0
60C180
30C300
18C600
0CCC00
0EDC00
06D800
03F000
06D800
0CCC00
18C600
38C300
30C180
60C1E0
E0C0E0
000060
000060
000060
000060
ENDCHAR
STARTCHAR 0497
ENCODING 1175
SWIDTH 772 0
DWIDTH 17 0
BBX 17 15 0 -3
BITMAP
718700
318E00
199C00
1DB800
0FB000
07E000
0DB000
199800
398C00
318600
618780
E18380
000180
000180
000180
ENDCHAR
STARTCHAR 0498
ENCODING 1176
SWIDTH 590 0
DWIDTH 13 0
BBX 11 18 1 -3
BITMAP
3F00
7F80
01C0
00C0
00C0
0180
1F00
1F80
00C0
0060
0060
0060
C0E0
FFC0
7F00
0C00
0600
1E00
ENDCHAR
STARTCHAR 0499
ENCODING 1177
SWIDTH 500 0
DWIDTH 11 0
BBX 9 15 1 -3
BITMAP
FE00
FF00
8380
0180
0380
3F00
3F00
0380
0180
8380
FF00
FE00
1800
0C00
3C00
ENDCHAR
STARTCHAR 049A
ENCODING 1178
SWIDTH 636 0
DWIDTH 14 0
BBX 12 19 2 -4
BITMAP
C0E0
C1C0
C380
C300
C600
CC00
D800
F000
D800
CC00
C600
C380
C1C0
C0F0
C070
0030
0030
0030
0030
ENDCHAR
STARTCHAR 049B
ENCODING 1179
SWIDTH 545 0
DWIDTH 12 0
BBX 10 15 2 -4
BITMAP
C380
C700
CE00
CC00
D800
F000
D800
CC00
CE00
C700
C3C0
C1C0
00C0
00C0
00C0
ENDCHAR
STARTCHAR 049C
ENCODING 1180
SWIDTH 727 0
DWIDTH 16 0
BBX 13 15 2 0
BITMAP
C038
C070
C060
C0C0
D980
DB00
DF00
FE00
FF00
DB00
D980
D8C0
C060
C070
C038
ENDCHAR
STARTCHAR 049D
ENCODING 1181
SWIDTH 636 0
DWIDTH 14 0
BBX 12 12 2 0
BITMAP
C0E0
C1C0
D980
DB00
DE00
FE00
DE00
DB00
D980
C0C0
C0E0
C070
ENDCHAR
STARTCHAR 049E
ENCODING 1182
SWIDTH 636 0
DWIDTH 14 0
BBX 14 15 0 0
BITMAP
3038
3070
FCE0
FDC0
3380
3700
3E00
3C00
3F00
3780
33C0
30E0
3070
3038
301C
ENDCHAR
STARTCHAR 049F
ENCODING 1183
SWIDTH 545 0
DWIDTH 12 0
BBX 12 12 0 0
BITMAP
3070
30E0
FD80
3300
3600
3C00
3600
3300
3180
30C0
30E0
3070
ENDCHAR
STARTCHAR 04A0
ENCODING 1184
SWIDTH 727 0
DWIDTH 16 0
BBX 16 15 0 0
BITMAP
FC0E
FC1C
0C38
0C70
0CE0
0DC0
0F80
0F00
0FC0
0DE0
0CF0
0C38
0C1C
0C0E
0C07
ENDCHAR
STARTCHAR 04A1
ENCODING 1185
SWIDTH 590 0
DWIDTH 13 0
BBX 13 12 0 0
BITMAP
F838
F870
18E0
19C0
1B80
1F00
1F80
1BC0
19E0
18E0
1870
1838
ENDCHAR
STARTCHAR 04A2
ENCODING 1186
SWIDTH 727 0
DWIDTH 16 0
BBX 14 19 2 -4
BITMAP
C030
C030
C030
C030
C030
C030
FFF0
FFF0
C030
C030
C030
C030
C030
C03C
C03C
000C
000C
000C
000C
ENDCHAR
STARTCHAR 04A3
ENCODING 1187
SWIDTH 590 0
DWIDTH 13 0
BBX 11 15 2 -3
BITMAP
C180
C180
C180
C180
C180
FF80
FF80
C180
C180
C180
C1E0
C1E0
0060
0060
0060
ENDCHAR
STARTCHAR 04A4
ENCODING 1188
SWIDTH 818 0
DWIDTH 18 0
BBX 16 15 2 0
BITMAP
C03F
C03F
C030
C030
C030
C030
FFF0
FFF0
C030
C030
C030
C030
C030
C030
C030
ENDCHAR
STARTCHAR 04A5
ENCODING 1189
SWIDTH 636 0
DWIDTH 14 0
BBX 12 12 2 0
BITMAP
C1F0
C1F0
C180
C180
C180
FF80
FF80
C180
C180
C180
C180
C180
ENDCHAR
STARTCHAR 04A6
ENCODING 1190
SWIDTH 1045 0
DWIDTH 23 0
BBX 20 19 2 -4
BITMAP
FFE000
FFE000
C06000
C06000
C06000
C06000
C07F80
C07FC0
C060E0
C06070
C06030
C06030
C06030
C06030
C06030
000060
0000E0
0007C0
000780
ENDCHAR
STARTCHAR 04A7
ENCODING 1191
SWIDTH 863 0
DWIDTH 19 0
BBX 16 16 2 -4
BITMAP
FF80
FF80
C180
C180
C180
C1FC
C1FE
C186
C183
C183
C183
C183
0003
0006
003E
0038
ENDCHAR
STARTCHAR 04A8
ENCODING 1192
SWIDTH 772 0
DWIDTH 17 0
BBX 15 19 1 -4
BITMAP
07E0
1FE0
3800
6000
60F8
C1FC
C38E
C306
C306
C306
6306
730C
3B1C
1FF8
07E0
00C0
00F0
007C
001C
ENDCHAR
STARTCHAR 04A9
ENCODING 1193
SWIDTH 590 0
DWIDTH 13 0
BBX 11 15 1 -3
BITMAP
1E00
3E00
7000
E380
C7C0
CC60
CC60
CC60
EC60
7CC0
3FC0
1F00
0700
03E0
00E0
ENDCHAR
STARTCHAR 04AA
ENCODING 1194
SWIDTH 636 0
DWIDTH 14 0
BBX 12 18 1 -3
BITMAP
07E0
1FF0
3830
6000
6000
C000
C000
C000
C000
C000
E000
6000
3810
1FF0
07E0
0380
0180
0780
ENDCHAR
STARTCHAR 04AB
ENCODING 1195
SWIDTH 500 0
DWIDTH 11 0
BBX 9 16 1 -4
BITMAP
1F80
3F80
7000
E000
C000
C000
C000
C000
E000
7000
3F80
1F80
0C00
0E00
0600
1E00
ENDCHAR
STARTCHAR 04AC
ENCODING 1196
SWIDTH 545 0
DWIDTH 12 0
BBX 12 19 0 -4
BITMAP
FFF0
FFF0
0600
0600
0600
0600
0600
0600
0600
0600
0600
0600
0600
0780
0780
0180
0180
0180
0180
ENDCHAR
STARTCHAR 04AD
ENCODING 1197
SWIDTH 454 0
DWIDTH 10 0
BBX 10 15 0 -3
BITMAP
FFC0
FFC0
0C00
0C00
0C00
0C00
0C00
0C00
0C00
0C00
0F00
0F00
0300
0300
0300
ENDCHAR
STARTCHAR 04AE
ENCODING 1198
SWIDTH 545 0
DWIDTH 12 0
BBX 12 15 0 0
BITMAP
C030
6060
6060
30C0
39C0
1980
0F00
0F00
0600
0600
0600
0600
0600
0600
0600
ENDCHAR
STARTCHAR 04AF
ENCODING 1199
SWIDTH 454 0
DWIDTH 10 0
BBX 10 16 0 -4
BITMAP
C0C0
C0C0
6180
6180
6180
3300
3300
3700
1E00
1E00
1E00
0C00
0C00
0C00
0C00
0C00
ENDCHAR
STARTCHAR 04B0
ENCODING 1200
SWIDTH 545 0
DWIDTH 12 0
BBX 12 15 0 0
BITMAP
C030
6060
6060
30C0
31C0
1980
1F80
0F00
0600
3FC0
3FC0
0600
0600
0600
0600
ENDCHAR
STARTCHAR 04B1
ENCODING 1201
SWIDTH 454 0
DWIDTH 10 0
BBX 10 16 0 -4
BITMAP
C0C0
C0C0
6180
6180
6180
3300
3300
3300
1E00
1E00
7F80
7F80
0C00
0C00
0C00
0C00
ENDCHAR
STARTCHAR 04B2
ENCODING 1202
SWIDTH 636 0
DWIDTH 14 0
BBX 13 19 1 -4
BITMAP
E070
6060
30C0
39C0
1980
0F00
0F00
0600
0F00
1F80
1980
30C0
7060
6078
E038
0018
0018
0018
0018
ENDCHAR
STARTCHAR 04B3
ENCODING 1203
SWIDTH 545 0
DWIDTH 12 0
BBX 12 15 0 -3
BITMAP
E0E0
70C0
3180
1B00
1F00
0E00
0E00
1F00
3980
31C0
60F0
E070
0030
0030
0030
ENDCHAR
STARTCHAR 04B4
ENCODING 1204
SWIDTH 863 0
DWIDTH 19 0
BBX 19 19 0 -4
BITMAP
FFE300
FFE300
060300
060300
060300
060300
060300
060300
060300
060300
060300
060300
060300
07FFE0
07FFE0
000060
000060
000060
000060
ENDCHAR
STARTCHAR 04B5
ENCODING 1205
SWIDTH 681 0
DWIDTH 15 0
BBX 15 15 0 -3
BITMAP
FF98
FF98
0C18
0C18
0C18
0C18
0C18
0C18
0C18
0C18
0FFE
0FFE
0006
0006
0006
ENDCHAR
STARTCHAR 04B6
ENCODING 1206
SWIDTH 636 0
DWIDTH 14 0
BBX 13 19 1 -5
BITMAP
C060
C060
C060
C060
C060
C060
C060
E060
7FE0
1FE0
0060
0060
0060
0078
0078
0018
0018
0018
0018
ENDCHAR
STARTCHAR 04B7
ENCODING 1207
SWIDTH 545 0
DWIDTH 12 0
BBX 10 15 2 -3
BITMAP
C300
C300
C300
C300
C300
E300
7F00
3F00
0300
0300
03C0
03C0
00C0
00C0
00C0
ENDCHAR
STARTCHAR 04B8
ENCODING 1208
SWIDTH 636 0
DWIDTH 14 0
BBX 11 15 1 0
BITMAP
C060
C060
C060
C060
C060
C660
C660
E660
7FE0
1FE0
0660
0660
0660
0060
0060
ENDCHAR
STARTCHAR 04B9
ENCODING 1209
SWIDTH 545 0
DWIDTH 12 0
BBX 8 12 2 0
BITMAP
C3
C3
C3
C3
DB
DB
7F
7F
1B
1B
03
03
ENDCHAR
STARTCHAR 04BA
ENCODING 1210
SWIDTH 636 0
DWIDTH 14 0
BBX 11 15 2 0
BITMAP
C000
C000
C000
C000
C000
FF00
FFC0
C0E0
C060
C060
C060
C060
C060
C060
C060
ENDCHAR
STARTCHAR 04BB
ENCODING 1211
SWIDTH 590 0
DWIDTH 13 0
BBX 9 17 2 0
BITMAP
C000
C000
C000
C000
C000
FE00
FF00
C380
C180
C180
C180
C180
C180
C180
C180
C180
C180
ENDCHAR
STARTCHAR 04BC
ENCODING 1212
SWIDTH 818 0
DWIDTH 18 0
BBX 17 15 0 0
BITMAP
00FC00
03FE00
070700
060300
CC0180
CC0180
FFFF80
3FFF80
0C0000
0C0000
0E0000
060000
078100
03FF00
00FE00
ENDCHAR
STARTCHAR 04BD
ENCODING 1213
SWIDTH 681 0
DWIDTH 15 0
BBX 14 12 0 0
BITMAP
01F0
03F8
0618
CE0C
CC0C
FFFC
3FFC
0C00
0C00
0600
07F8
01F8
ENDCHAR
STARTCHAR 04BE
ENCODING 1214
SWIDTH 818 0
DWIDTH 18 0
BBX 17 19 0 -4
BITMAP
00FC00
03FE00
070700
060300
CC0180
CC0180
FFFF80
3FFF80
0C0000
0C0000
0E0000
060000
038100
01FF00
007E00
003000
003000
003000
003000
ENDCHAR
STARTCHAR 04BF
ENCODING 1215
SWIDTH 681 0
DWIDTH 15 0
BBX 14 15 0 -3
BITMAP
01F0
03F8
0618
CE0C
CC0C
FFFC
3FFC
0C00
0C00
0600
07F8
01F8
00C0
00C0
00C0
ENDCHAR
STARTCHAR 04C0
ENCODING 1216
SWIDTH 272 0
DWIDTH 6 0
BBX 2 15 2 0
BITMAP
C0
C0
C0
C0
C0
C0
C0
C0
C0
C0
C0
C0
C0
C0
C0
ENDCHAR
STARTCHAR 04C1
ENCODING 1217
SWIDTH 909 0
DWIDTH 20 0
BBX 18 19 1 0
BITMAP
031800
01F000
00E000
000000
E0C1C0
60C180
30C300
18C600
1CCE00
0EDC00
06D800
03F000
06D800
0CCC00
18C600
38C700
30C300
60C180
E0C1C0
ENDCHAR
STARTCHAR 04C2
ENCODING 1218
SWIDTH 727 0
DWIDTH 16 0
BBX 16 16 0 0
BITMAP
0630
03E0
01C0
0000
718E
318C
1998
1DB8
0FF0
07E0
0DB0
1998
399C
318C
6186
E187
ENDCHAR
STARTCHAR 04C3
ENCODING 1219
SWIDTH 636 0
DWIDTH 14 0
BBX 11 19 2 -4
BITMAP
C0E0
C1C0
C380
C700
C600
CC00
D800
FE00
FF80
C1C0
C0E0
C060
C060
C060
C060
00E0
01C0
0F80
0F00
ENDCHAR
STARTCHAR 04C4
ENCODING 1220
SWIDTH 545 0
DWIDTH 12 0
BBX 9 16 2 -4
BITMAP
C380
C700
CE00
DC00
D800
FC00
FF00
C700
C180
C180
C180
C180
0180
0300
0F00
0E00
ENDCHAR
STARTCHAR 04C5
ENCODING 1221
SWIDTH 727 0
DWIDTH 16 0
BBX 16 19 0 -4
BITMAP
07FC
07FC
060C
060C
060C
060C
060C
060C
0C0C
0C0C
0C0C
1C0C
380C
F00F
E00F
0003
0006
0006
0004
ENDCHAR
STARTCHAR 04C6
ENCODING 1222
SWIDTH 590 0
DWIDTH 13 0
BBX 13 16 0 -4
BITMAP
1FE0
1FE0
1860
1860
1860
1860
1860
3860
3060
7060
E078
C078
0018
0030
0030
0020
ENDCHAR
STARTCHAR 04C7
ENCODING 1223
SWIDTH 727 0
DWIDTH 16 0
BBX 12 19 2 -4
BITMAP
C030
C030
C030
C030
C030
C030
FFF0
FFF0
C030
C030
C030
C030
C030
C030
C030
0030
0030
01F0
01E0
ENDCHAR
STARTCHAR 04C8
ENCODING 1224
SWIDTH 590 0
DWIDTH 13 0
BBX 9 16 2 -4
BITMAP
C180
C180
C180
C180
C180
FF80
FF80
C180
C180
C180
C180
C180
0180
0180
0F80
0F00
ENDCHAR
STARTCHAR 04C9
ENCODING 1225
SWIDTH 727 0
DWIDTH 16 0
BBX 14 19 2 -4
BITMAP
C030
C030
C030
C030
C030
C030
FFF0
FFF0
C030
C030
C030
C030
C030
C03C
C03C
000C
0018
0018
0010
ENDCHAR
STARTCHAR 04CA
ENCODING 1226
SWIDTH 590 0
DWIDTH 13 0
BBX 11 16 2 -4
BITMAP
C180
C180
C180
C180
C180
FF80
FF80
C180
C180
C180
C1E0
C1E0
0060
00C0
00C0
0080
ENDCHAR
STARTCHAR 04CB
ENCODING 1227
SWIDTH 636 0
DWIDTH 14 0
BBX 11 19 1 -4
BITMAP
C060
C060
C060
C060
C060
C060
C060
E060
7FE0
1FE0
0060
0060
0060
01E0
01E0
0180
0180
0180
0180
ENDCHAR
STARTCHAR 04CC
ENCODING 1228
SWIDTH 545 0
DWIDTH 12 0
BBX 8 15 2 -3
BITMAP
C3
C3
C3
C3
C3
E3
7F
3F
03
03
0F
0F
0C
0C
0C
ENDCHAR
STARTCHAR 04CD
ENCODING 1229
SWIDTH 863 0
DWIDTH 19 0
BBX 18 19 1 -4
BITMAP
600600
700E00
700E00
781E00
681600
6C3600
C42300
C66300
C66300
C24300
C3C300
C3C300
C18300
C003C0
C003C0
0000C0
000180
000180
000100
ENDCHAR
STARTCHAR 04CE
ENCODING 1230
SWIDTH 727 0
DWIDTH 16 0
BBX 15 16 1 -4
BITMAP
6030
7070
5050
5058
C898
C898
CD98
C518
C718
C718
C01E
C01E
0006
000C
000C
0008
ENDCHAR
STARTCHAR 04CF
ENCODING 1231
SWIDTH 272 0
DWIDTH 6 0
BBX 2 15 2 0
BITMAP
C0
C0
C0
C0
C0
C0
C0
C0
C0
C0
C0
C0
C0
C0
C0
ENDCHAR
STARTCHAR 04D0
ENCODING 1232
SWIDTH 681 0
DWIDTH 15 0
BBX 15 19 0 0
BITMAP
0C60
07C0
0380
0000
0380
0380
06C0
06C0
0C60
0C60
1C60
1830
1830
3FF8
3FF8
701C
600C
600C
C006
ENDCHAR
STARTCHAR 04D1
ENCODING 1233
SWIDTH 500 0
DWIDTH 11 0
BBX 9 16 1 0
BITMAP
3180
1F00
0E00
0000
7C00
7E00
0700
0300
3F00
7F00
E300
C300
C300
E300
7F00
3F00
ENDCHAR
STARTCHAR 04D2
ENCODING 1234
SWIDTH 681 0
DWIDTH 15 0
BBX 15 20 0 0
BITMAP
1CE0
1CE0
1CE0
0000
0000
0380
0380
06C0
06C0
0C60
0C60
1C60
1830
1830
3FF8
3FF8
701C
600C
600C
C006
ENDCHAR
STARTCHAR 04D3
ENCODING 1235
SWIDTH 500 0
DWIDTH 11 0
BBX 9 17 1 0
BITMAP
7380
7380
7380
0000
0000
7C00
7E00
0700
0300
3F00
7F00
E300
C300
C300
E300
7F00
3F00
ENDCHAR
STARTCHAR 04D4
ENCODING 1236
SWIDTH 954 0
DWIDTH 21 0
BBX 20 15 0 0
BITMAP
003FE0
007FE0
00F800
00D800
019800
031800
031FE0
061FE0
0E1800
0FF800
1FF800
381800
301800
601FF0
E01FF0
ENDCHAR
STARTCHAR 04D5
ENCODING 1237
SWIDTH 863 0
DWIDTH 19 0
BBX 17 12 1 0
BITMAP
7E3E00
7F7F00
03C300
018180
3FFF80
7FFF80
E18000
C18000
C1C000
E1E000
7FFF00
3E3F00
ENDCHAR
STARTCHAR 04D6
ENCODING 1238
SWIDTH 590 0
DWIDTH 13 0
BBX 10 19 2 0
BITMAP
6300
3E00
1C00
0000
FF80
FF80
C000
C000
C000
C000
FF80
FF80
C000
C000
C000
C000
C000
FFC0
FFC0
ENDCHAR
STARTCHAR 04D7
ENCODING 1239
SWIDTH 545 0
DWIDTH 12 0
BBX 10 16 1 0
BITMAP
3180
1F00
0E00
0000
1F00
3F80
6180
C0C0
C0C0
FFC0
FFC0
C000
C000
6000
3F80
1F80
ENDCHAR
STARTCHAR 04D8
ENCODING 1240
SWIDTH 727 0
DWIDTH 16 0
BBX 14 15 1 0
BITMAP
3F80
7FE0
6070
0018
001C
000C
000C
FFFC
FFFC
C00C
C00C
6018
7070
3FE0
0FC0
ENDCHAR
STARTCHAR 04D9
ENCODING 1241
SWIDTH 545 0
DWIDTH 12 0
BBX 10 12 1 0
BITMAP
7E00
7F00
0180
00C0
00C0
FFC0
FFC0
C0C0
C1C0
6180
7F00
1E00
ENDCHAR
STARTCHAR 04DA
ENCODING 1242
SWIDTH 727 0
DWIDTH 16 0
BBX 14 20 1 0
BITMAP
39C0
39C0
39C0
0000
0000
3F80
7FE0
6070
0018
001C
000C
000C
FFFC
FFFC
C00C
C00C
6018
7070
3FE0
0FC0
ENDCHAR
STARTCHAR 04DB
ENCODING 1243
SWIDTH 545 0
DWIDTH 12 0
BBX 10 17 1 0
BITMAP
7380
7380
7380
0000
0000
7E00
7F00
0180
00C0
00C0
FFC0
FFC0
C0C0
C1C0
6180
7F00
1E00
ENDCHAR
STARTCHAR 04DC
ENCODING 1244
SWIDTH 909 0
DWIDTH 20 0
BBX 18 20 1 0
BITMAP
073800
073800
073800
000000
000000
E0C1C0
60C180
30C300
18C600
1CCE00
0EDC00
06D800
03F000
06D800
0CCC00
18C600
38C700
30C300
60C180
E0C1C0
ENDCHAR
STARTCHAR 04DD
ENCODING 1245
SWIDTH 727 0
DWIDTH 16 0
BBX 16 17 0 0
BITMAP
0E70
0E70
0E70
0000
0000
718E
318C
1998
1DB8
0FF0
07E0
0DB0
1998
399C
318C
6186
E187
ENDCHAR
STARTCHAR 04DE
ENCODING 1246
SWIDTH 590 0
DWIDTH 13 0
BBX 11 20 1 0
BITMAP
E700
E700
E700
0000
0000
3F00
7F80
01C0
00C0
00C0
0180
1F00
1F80
00C0
0060
0060
0060
C0E0
FFC0
7F00
ENDCHAR
STARTCHAR 04DF
ENCODING 1247
SWIDTH 500 0
DWIDTH 11 0
BBX 9 17 1 0
BITMAP
E700
E700
E700
0000
0000
FE00
FF00
8380
0180
0380
3F00
3F00
0380
0180
8380
FF00
FE00
ENDCHAR
STARTCHAR 04E0
ENCODING 1248
SWIDTH 545 0
DWIDTH 12 0
BBX 10 15 1 0
BITMAP
7FC0
7FC0
0180
0300
0600
0C00
1F00
1F80
01C0
00C0
00C0
00C0
C1C0
FF80
7E00
ENDCHAR
STARTCHAR 04E1
ENCODING 1249
SWIDTH 454 0
DWIDTH 10 0
BBX 9 16 0 -4
BITMAP
7F00
7F00
0600
0600
0C00
0C00
1800
3E00
0300
0180
0180
0180
0180
8380
FF00
FC00
ENDCHAR
STARTCHAR 04E2
ENCODING 1250
SWIDTH 727 0
DWIDTH 16 0
BBX 12 19 2 0
BITMAP
1F80
1F80
0000
0000
C030
C070
C0F0
C0F0
C1B0
C330
C730
C630
CC30
D830
F830
F030
E030
C030
C030
ENDCHAR
STARTCHAR 04E3
ENCODING 1251
SWIDTH 590 0
DWIDTH 13 0
BBX 9 16 2 0
BITMAP
7E00
7E00
0000
0000
C180
C380
C780
C780
CD80
C980
D980
D180
F180
E180
E180
C180
ENDCHAR
STARTCHAR 04E4
ENCODING 1252
SWIDTH 727 0
DWIDTH 16 0
BBX 12 20 2 0
BITMAP
39C0
39C0
39C0
0000
0000
C030
C070
C0F0
C0F0
C1B0
C330
C730
C630
CC30
D830
F830
F030
E030
C030
C030
ENDCHAR
STARTCHAR 04E5
ENCODING 1253
SWIDTH 590 0
DWIDTH 13 0
BBX 9 17 2 0
BITMAP
E700
E700
E700
0000
0000
C180
C380
C780
C780
CD80
C980
D980
D180
F180
E180
E180
C180
ENDCHAR
STARTCHAR 04E6
ENCODING 1254
SWIDTH 772 0
DWIDTH 17 0
BBX 15 20 1 0
BITMAP
1CE0
1CE0
1CE0
0000
0000
07C0
1FF0
3838
600C
E00C
C006
C006
C006
C006
C006
E00C
600C
3838
1FF0
07C0
ENDCHAR
STARTCHAR 04E7
ENCODING 1255
SWIDTH 590 0
DWIDTH 13 0
BBX 11 17 1 0
BITMAP
7380
7380
7380
0000
0000
1F00
3F80
71C0
E0E0
C060
C060
C060
C060
E0E0
71C0
3F80
1F00
ENDCHAR
STARTCHAR 04E8
ENCODING 1256
SWIDTH 772 0
DWIDTH 17 0
BBX 15 15 1 0
BITMAP
07C0
1FF0
3838
600C
C004
C006
FFFE
FFFE
C006
C006
E00C
600C
3838
1FF0
07C0
ENDCHAR
STARTCHAR 04E9
ENCODING 1257
SWIDTH 590 0
DWIDTH 13 0
BBX 11 12 1 0
BITMAP
1F00
3F80
71C0
E0E0
C060
FFE0
FFE0
C060
C060
60C0
3F80
1F00
ENDCHAR
STARTCHAR 04EA
ENCODING 1258
SWIDTH 772 0
DWIDTH 17 0
BBX 15 20 1 0
BITMAP
1CE0
1CE0
1CE0
0000
0000
07C0
1FF0
3838
600C
C004
C006
FFFE
FFFE
C006
C006
E00C
600C
3838
1FF0
07C0
ENDCHAR
STARTCHAR 04EB
ENCODING 1259
SWIDTH 590 0
DWIDTH 13 0
BBX 11 17 1 0
BITMAP
7380
7380
7380
0000
0000
1F00
3F80
71C0
E0E0
C060
FFE0
FFE0
C060
C060
60C0
3F80
1F00
ENDCHAR
STARTCHAR 04EC
ENCODING 1260
SWIDTH 636 0
DWIDTH 14 0
BBX 12 20 1 0
BITMAP
E700
E700
E700
0000
0000
7F00
FF80
81C0
0060
0030
0030
1FF0
1FF0
0030
0030
0070
0060
81C0
FF80
7F00
ENDCHAR
STARTCHAR 04ED
ENCODING 1261
SWIDTH 500 0
DWIDTH 11 0
BBX 10 17 0 0
BITMAP
E700
E700
E700
0000
0000
7E00
7F00
0380
01C0
00C0
1FC0
1FC0
00C0
00C0
0180
7F00
7E00
ENDCHAR
STARTCHAR 04EE
ENCODING 1262
SWIDTH 590 0
DWIDTH 13 0
BBX 13 19 0 0
BITMAP
0FC0
0FC0
0000
0000
C018
6030
7030
3070
3860
1860
0CC0
0CC0
0780
0780
0380
0300
0700
7E00
7800
ENDCHAR
STARTCHAR 04EF
ENCODING 1263
SWIDTH 454 0
DWIDTH 10 0
BBX 10 20 0 -4
BITMAP
1F80
1F80
0000
0000
C0C0
60C0
6180
6180
3180
3300
3300
1B00
1B00
1E00
0E00
0E00
0C00
0C00
F800
F000
ENDCHAR
STARTCHAR 04F0
ENCODING 1264
SWIDTH 590 0
DWIDTH 13 0
BBX 13 20 0 0
BITMAP
1CE0
1CE0
1CE0
0000
0000
C018
6030
7030
3070
3860
1860
0CC0
0CC0
0780
0780
0380
0300
0700
7E00
7800
ENDCHAR
STARTCHAR 04F1
ENCODING 1265
SWIDTH 454 0
DWIDTH 10 0
BBX 10 21 0 -4
BITMAP
39C0
39C0
39C0
0000
0000
C0C0
60C0
6180
6180
3180
3300
3300
1B00
1B00
1E00
0E00
0E00
0C00
0C00
F800
F000
ENDCHAR
STARTCHAR 04F2
ENCODING 1266
SWIDTH 590 0
DWIDTH 13 0
BBX 13 20 0 0
BITMAP
0220
0770
0EE0
0440
0000
C018
6030
7030
3070
3860
1860
0CC0
0CC0
0780
0780
0380
0300
0700
7E00
7800
ENDCHAR
STARTCHAR 04F3
ENCODING 1267
SWIDTH 454 0
DWIDTH 10 0
BBX 11 21 0 -4
BITMAP
0440
0EE0
1DC0
0880
0000
C0C0
60C0
6180
6180
3180
3300
3300
1B00
1B00
1E00
0E00
0E00
0C00
0C00
F800
F000
ENDCHAR
STARTCHAR 04F4
ENCODING 1268
SWIDTH 636 0
DWIDTH 14 0
BBX 11 20 1 0
BITMAP
39C0
39C0
39C0
0000
0000
C060
C060
C060
C060
C060
C060
C060
E060
7FE0
1FE0
0060
0060
0060
0060
0060
ENDCHAR
STARTCHAR 04F5
ENCODING 1269
SWIDTH 545 0
DWIDTH 12 0
BBX 9 17 1 0
BITMAP
E700
E700
E700
0000
0000
6180
6180
6180
6180
6180
7180
3F80
1F80
0180
0180
0180
0180
ENDCHAR
STARTCHAR 04F6
ENCODING 1270
SWIDTH 500 0
DWIDTH 11 0
BBX 9 19 2 -4
BITMAP
FF80
FF80
C000
C000
C000
C000
C000
C000
C000
C000
C000
C000
C000
F000
F000
3000
3000
3000
3000
ENDCHAR
STARTCHAR 04F7
ENCODING 1271
SWIDTH 409 0
DWIDTH 9 0
BBX 7 15 2 -3
BITMAP
FE
FE
C0
C0
C0
C0
C0
C0
C0
C0
F0
F0
30
30
30
ENDCHAR
STARTCHAR 04F8
ENCODING 1272
SWIDTH 863 0
DWIDTH 19 0
BBX 15 20 2 0
BITMAP
1CE0
1CE0
1CE0
0000
0000
C006
C006
C006
C006
C006
FE06
FF86
C186
C0C6
C0C6
C0C6
C0C6
C186
FF86
FE06
ENDCHAR
STARTCHAR 04F9
ENCODING 1273
SWIDTH 772 0
DWIDTH 17 0
BBX 13 17 2 0
BITMAP
39C0
39C0
39C0
0000
0000
C018
C018
C018
C018
FE18
FF18
C398
C198
C198
C398
FF18
FE18
ENDCHAR
STARTCHAR 1E80
ENCODING 7808
SWIDTH 954 0
DWIDTH 21 0
BBX 19 20 1 0
BITMAP
008000
01C000
00E000
004000
000000
C00060
C00060
C0E060
60E0C0
60E0C0
61B0C0
61B0C0
61B0C0
7319C0
331980
360D80
360D80
3E0F80
1C0700
1C0700
ENDCHAR
STARTCHAR 1E81
ENCODING 7809
SWIDTH 772 0
DWIDTH 17 0
BBX 17 17 0 0
BITMAP
010000
038000
01C000
008000
000000
C0C180
C0C180
60C300
61E300
616300
636300
327600
363600
363600
1C3C00
1C1C00
181C00
ENDCHAR
STARTCHAR 1E82
ENCODING 7810
SWIDTH 954 0
DWIDTH 21 0
BBX 19 20 1 0
BITMAP
002000
007000
00E000
004000
000000
C00060
C00060
C0E060
60E0C0
60E0C0
61B0C0
61B0C0
61B0C0
7319C0
331980
360D80
360D80
3E0F80
1C0700
1C0700
ENDCHAR
STARTCHAR 1E83
ENCODING 7811
SWIDTH 772 0
DWIDTH 17 0
BBX 17 17 0 0
BITMAP
004000
00E000
01C000
008000
000000
C0C180
C0C180
60C300
61E300
616300
636300
327600
363600
363600
1C3C00
1C1C00
181C00
ENDCHAR
STARTCHAR 1E84
ENCODING 7812
SWIDTH 954 0
DWIDTH 21 0
BBX 19 20 1 0
BITMAP
039C00
039C00
039C00
000000
000000
C00060
C00060
C0E060
60E0C0
60E0C0
61B0C0
61B0C0
61B0C0
7319C0
331980
360D80
360D80
3E0F80
1C0700
1C0700
ENDCHAR
STARTCHAR 1E85
ENCODING 7813
SWIDTH 772 0
DWIDTH 17 0
BBX 17 17 0 0
BITMAP
073800
073800
073800
000000
000000
C0C180
C0C180
60C300
61E300
616300
636300
327600
363600
363600
1C3C00
1C1C00
181C00
ENDCHAR
STARTCHAR 1EF2
ENCODING 7922
SWIDTH 545 0
DWIDTH 12 0
BBX 12 20 0 0
BITMAP
0800
1C00
0E00
0400
0000
C030
6060
6060
30C0
39C0
1980
0F00
0F00
0600
0600
0600
0600
0600
0600
0600
ENDCHAR
STARTCHAR 1EF3
ENCODING 7923
SWIDTH 454 0
DWIDTH 10 0
BBX 10 22 0 -4
BITMAP
0800
1C00
0E00
0400
0000
0000
C0C0
60C0
6180
6180
3180
3300
3300
1B00
1B00
1E00
0E00
0E00
0C00
0C00
F800
F000
ENDCHAR
STARTCHAR 1F00
ENCODING 7936
SWIDTH 590 0
DWIDTH 13 0
BBX 12 18 1 0
BITMAP
0600
0600
0200
0400
0800
0000
1F80
3FC0
70C0
E0C0
C0C0
C0C0
C0C0
C0C0
E0C0
60C0
7FF0
1F30
ENDCHAR
STARTCHAR 1F01
ENCODING 7937
SWIDTH 590 0
DWIDTH 13 0
BBX 12 18 1 0
BITMAP
0C00
0C00
0800
0400
0200
0000
1F80
3FC0
70C0
E0C0
C0C0
C0C0
C0C0
C0C0
E0C0
60C0
7FF0
1F30
ENDCHAR
STARTCHAR 1F02
ENCODING 7938
SWIDTH 590 0
DWIDTH 13 0
BBX 12 18 1 0
BITMAP
1900
1B00
1980
1180
20C0
0000
1F80
3FC0
70C0
E0C0
C0C0
C0C0
C0C0
C0C0
E0C0
60C0
7FF0
1F30
ENDCHAR
STARTCHAR 1F03
ENCODING 7939
SWIDTH 590 0
DWIDTH 13 0
BBX 12 18 1 0
BITMAP
3200
3700
3300
1180
0880
0000
1F80
3FC0
70C0
E0C0
C0C0
C0C0
C0C0
C0C0
E0C0
60C0
7FF0
1F30
ENDCHAR
STARTCHAR 1F04
ENCODING 7940
SWIDTH 590 0
DWIDTH 13 0
BBX 12 18 1 0
BITMAP
0C40
0CE0
0CC0
0980
1100
0000
1F80
3FC0
70C0
E0C0
C0C0
C0C0
C0C0
C0C0
E0C0
60C0
7FF0
1F30
ENDCHAR
STARTCHAR 1F05
ENCODING 7941
SWIDTH 590 0
DWIDTH 13 0
BBX 12 18 1 0
BITMAP
3080
31C0
3180
1300
0A00
0000
1F80
3FC0
70C0
E0C0
C0C0
C0C0
C0C0
C0C0
E0C0
60C0
7FF0
1F30
ENDCHAR
STARTCHAR 1F06
ENCODING 7942
SWIDTH 590 0
DWIDTH 13 0
BBX 12 21 1 0
BITMAP
0F00
1F80
1080
0000
0600
0600
0600
0800
0000
1F80
3FC0
70C0
E0C0
C0C0
C0C0
C0C0
C0C0
E0C0
60C0
7FF0
1F30
ENDCHAR
STARTCHAR 1F07
ENCODING 7943
SWIDTH 590 0
DWIDTH 13 0
BBX 12 21 1 0
BITMAP
0F00
1F80
1080
0000
0600
0600
0600
0100
0000
1F80
3FC0
70C0
E0C0
C0C0
C0C0
C0C0
C0C0
E0C0
60C0
7FF0
1F30
ENDCHAR
STARTCHAR 1F08
ENCODING 7944
SWIDTH 681 0
DWIDTH 15 0
BBX 15 15 0 0
BITMAP
6380
6380
26C0
46C0
8C60
0C60
1C60
1830
1830
3FF8
3FF8
701C
600C
600C
C006
ENDCHAR
STARTCHAR 1F09
ENCODING 7945
SWIDTH 681 0
DWIDTH 15 0
BBX 15 15 0 0
BITMAP
C380
C380
86C0
46C0
2C60
0C60
1C60
1830
1830
3FF8
3FF8
701C
600C
600C
C006
ENDCHAR
STARTCHAR 1F0A
ENCODING 7946
SWIDTH 818 0
DWIDTH 18 0
BBX 19 15 -1 0
BITMAP
643800
6C3800
666C00
466C00
83C600
00C600
01C600
018300
018300
03FF80
03FF80
0701C0
0600C0
0600C0
0C0060
ENDCHAR
STARTCHAR 1F0B
ENCODING 7947
SWIDTH 772 0
DWIDTH 17 0
BBX 19 15 -2 0
BITMAP
C83800
DC3800
CC6C00
466C00
22C600
00C600
01C600
018300
018300
03FF80
03FF80
0701C0
0600C0
0600C0
0C0060
ENDCHAR
STARTCHAR 1F0C
ENCODING 7948
SWIDTH 727 0
DWIDTH 16 0
BBX 17 15 -1 0
BITMAP
62E000
67E000
67B000
4DB000
8B1800
031800
071800
060C00
060C00
0FFE00
0FFE00
1C0700
180300
180300
300180
ENDCHAR
STARTCHAR 1F0D
ENCODING 7949
SWIDTH 772 0
DWIDTH 17 0
BBX 17 16 0 0
BITMAP
C20000
C7E000
C6E000
4DB000
29B000
031800
031800
071800
060C00
060C00
0FFE00
0FFE00
1C0700
180300
180300
300180
ENDCHAR
STARTCHAR 1F0E
ENCODING 7950
SWIDTH 681 0
DWIDTH 15 0
BBX 16 19 -1 0
BITMAP
7800
FC00
8400
0000
31C0
31C0
3360
4360
0630
0630
0E30
0C18
0C18
1FFC
1FFC
380E
3006
3006
6003
ENDCHAR
STARTCHAR 1F0F
ENCODING 7951
SWIDTH 681 0
DWIDTH 15 0
BBX 16 19 -1 0
BITMAP
7800
FC00
8400
0000
31C0
31C0
3360
0B60
0630
0630
0E30
0C18
0C18
1FFC
1FFC
380E
3006
3006
6003
ENDCHAR
STARTCHAR 1F10
ENCODING 7952
SWIDTH 500 0
DWIDTH 11 0
BBX 9 18 1 0
BITMAP
0C00
0C00
0400
0800
1000
0000
3F00
7F00
E100
C000
C000
7C00
FC00
C000
C000
E080
7F80
3F00
ENDCHAR
STARTCHAR 1F11
ENCODING 7953
SWIDTH 500 0
DWIDTH 11 0
BBX 9 18 1 0
BITMAP
1800
1800
1000
0800
0400
0000
3F00
7F00
E100
C000
C000
7C00
FC00
C000
C000
E080
7F80
3F00
ENDCHAR
STARTCHAR 1F12
ENCODING 7954
SWIDTH 500 0
DWIDTH 11 0
BBX 9 18 1 0
BITMAP
3200
3600
3300
2300
4180
0000
3F00
7F00
E100
C000
C000
7C00
FC00
C000
C000
E080
7F80
3F00
ENDCHAR
STARTCHAR 1F13
ENCODING 7955
SWIDTH 500 0
DWIDTH 11 0
BBX 9 18 1 0
BITMAP
6400
6E00
6600
2300
1100
0000
3F00
7F00
E100
C000
C000
7C00
FC00
C000
C000
E080
7F80
3F00
ENDCHAR
STARTCHAR 1F14
ENCODING 7956
SWIDTH 500 0
DWIDTH 11 0
BBX 10 18 1 0
BITMAP
1880
19C0
1980
1300
2200
0000
3F00
7F00
E100
C000
C000
7C00
FC00
C000
C000
E080
7F80
3F00
ENDCHAR
STARTCHAR 1F15
ENCODING 7957
SWIDTH 500 0
DWIDTH 11 0
BBX 9 18 1 0
BITMAP
6100
6380
6300
2600
1400
0000
3F00
7F00
E100
C000
C000
7C00
FC00
C000
C000
E080
7F80
3F00
ENDCHAR
STARTCHAR 1F18
ENCODING 7960
SWIDTH 636 0
DWIDTH 14 0
BBX 15 16 -2 0
BITMAP
6000
67FC
27FC
4600
8600
0600
0600
07FC
07FC
0600
0600
0600
0600
0600
07FE
07FE
ENDCHAR
STARTCHAR 1F19
ENCODING 7961
SWIDTH 636 0
DWIDTH 14 0
BBX 13 16 0 0
BITMAP
C000
DFF0
9FF0
5800
3800
1800
1800
1FF0
1FF0
1800
1800
1800
1800
1800
1FF8
1FF8
ENDCHAR
STARTCHAR 1F1A
ENCODING 7962
SWIDTH 818 0
DWIDTH 18 0
BBX 19 16 -1 0
BITMAP
640000
6C7FC0
667FC0
466000
836000
006000
006000
007FC0
007FC0
006000
006000
006000
006000
006000
007FE0
007FE0
ENDCHAR
STARTCHAR 1F1B
ENCODING 7963
SWIDTH 818 0
DWIDTH 18 0
BBX 17 16 0 0
BITMAP
C80000
DDFF00
CDFF00
478000
238000
018000
018000
01FF00
01FF00
018000
018000
018000
018000
018000
01FF80
01FF80
ENDCHAR
STARTCHAR 1F1C
ENCODING 7964
SWIDTH 818 0
DWIDTH 18 0
BBX 18 16 -1 0
BITMAP
620000
67FF80
66FF80
4CC000
88C000
00C000
00C000
00FF80
00FF80
00C000
00C000
00C000
00C000
00C000
00FFC0
00FFC0
ENDCHAR
STARTCHAR 1F1D
ENCODING 7965
SWIDTH 818 0
DWIDTH 18 0
BBX 18 16 0 0
BITMAP
C20000
C7FF80
C6FF80
4CC000
28C000
00C000
00C000
00FF80
00FF80
00C000
00C000
00C000
00C000
00C000
00FFC0
00FFC0
ENDCHAR
STARTCHAR 1F20
ENCODING 7968
SWIDTH 590 0
DWIDTH 13 0
BBX 9 22 2 -4
BITMAP
0C00
0C00
0400
0800
1000
0000
FE00
FF00
C380
C180
C180
C180
C180
C180
C180
C180
C180
C180
0180
0180
0180
0180
ENDCHAR
STARTCHAR 1F21
ENCODING 7969
SWIDTH 590 0
DWIDTH 13 0
BBX 9 22 2 -4
BITMAP
1800
1800
1000
0800
0400
0000
FE00
FF00
C380
C180
C180
C180
C180
C180
C180
C180
C180
C180
0180
0180
0180
0180
ENDCHAR
STARTCHAR 1F22
ENCODING 7970
SWIDTH 590 0
DWIDTH 13 0
BBX 9 22 2 -4
BITMAP
3200
3600
3300
2300
4180
0000
FE00
FF00
C380
C180
C180
C180
C180
C180
C180
C180
C180
C180
0180
0180
0180
0180
ENDCHAR
STARTCHAR 1F23
ENCODING 7971
SWIDTH 590 0
DWIDTH 13 0
BBX 9 22 2 -4
BITMAP
C800
DC00
CC00
4600
2200
0000
FE00
FF00
C380
C180
C180
C180
C180
C180
C180
C180
C180
C180
0180
0180
0180
0180
ENDCHAR
STARTCHAR 1F24
ENCODING 7972
SWIDTH 590 0
DWIDTH 13 0
BBX 10 22 2 -4
BITMAP
1880
19C0
1980
1300
2200
0000
FE00
FF00
C380
C180
C180
C180
C180
C180
C180
C180
C180
C180
0180
0180
0180
0180
ENDCHAR
STARTCHAR 1F25
ENCODING 7973
SWIDTH 590 0
DWIDTH 13 0
BBX 9 22 2 -4
BITMAP
6100
6380
6300
2600
1400
0000
FE00
FF00
C380
C180
C180
C180
C180
C180
C180
C180
C180
C180
0180
0180
0180
0180
ENDCHAR
STARTCHAR 1F26
ENCODING 7974
SWIDTH 590 0
DWIDTH 13 0
BBX 9 25 2 -4
BITMAP
1E00
3F00
2100
0000
0C00
0C00
0C00
1000
0000
FE00
FF00
C380
C180
C180
C180
C180
C180
C180
C180
C180
C180
0180
0180
0180
0180
ENDCHAR
STARTCHAR 1F27
ENCODING 7975
SWIDTH 590 0
DWIDTH 13 0
BBX 9 25 2 -4
BITMAP
1E00
3F00
2100
0000
0C00
0C00
0C00
0200
0000
FE00
FF00
C380
C180
C180
C180
C180
C180
C180
C180
C180
C180
0180
0180
0180
0180
ENDCHAR
STARTCHAR 1F28
ENCODING 7976
SWIDTH 772 0
DWIDTH 17 0
BBX 17 16 -2 0
BITMAP
600000
660180
260180
460180
860180
060180
060180
07FF80
07FF80
060180
060180
060180
060180
060180
060180
060180
ENDCHAR
STARTCHAR 1F29
ENCODING 7977
SWIDTH 772 0
DWIDTH 17 0
BBX 15 16 0 0
BITMAP
C000
D806
9806
5806
3806
1806
1806
1FFE
1FFE
1806
1806
1806
1806
1806
1806
1806
ENDCHAR
STARTCHAR 1F2A
ENCODING 7978
SWIDTH 954 0
DWIDTH 21 0
BBX 21 16 -1 0
BITMAP
640000
6C6018
666018
466018
836018
006018
006018
007FF8
007FF8
006018
006018
006018
006018
006018
006018
006018
ENDCHAR
STARTCHAR 1F2B
ENCODING 7979
SWIDTH 954 0
DWIDTH 21 0
BBX 19 16 0 0
BITMAP
C80000
DD8060
CD8060
478060
238060
018060
018060
01FFE0
01FFE0
018060
018060
018060
018060
018060
018060
018060
ENDCHAR
STARTCHAR 1F2C
ENCODING 7980
SWIDTH 954 0
DWIDTH 21 0
BBX 20 16 -1 0
BITMAP
620000
67C030
66C030
4CC030
88C030
00C030
00C030
00FFF0
00FFF0
00C030
00C030
00C030
00C030
00C030
00C030
00C030
ENDCHAR
STARTCHAR 1F2D
ENCODING 7981
SWIDTH 954 0
DWIDTH 21 0
BBX 20 16 0 0
BITMAP
C20000
C7C030
C6C030
4CC030
28C030
00C030
00C030
00FFF0
00FFF0
00C030
00C030
00C030
00C030
00C030
00C030
00C030
ENDCHAR
STARTCHAR 1F2E
ENCODING 7982
SWIDTH 863 0
DWIDTH 19 0
BBX 19 19 -1 0
BITMAP
780000
FC0000
840000
000000
318060
318060
318060
418060
018060
018060
01FFE0
01FFE0
018060
018060
018060
018060
018060
018060
018060
ENDCHAR
STARTCHAR 1F2F
ENCODING 7983
SWIDTH 863 0
DWIDTH 19 0
BBX 19 19 -1 0
BITMAP
780000
FC0000
840000
000000
318060
318060
318060
098060
018060
018060
01FFE0
01FFE0
018060
018060
018060
018060
018060
018060
018060
ENDCHAR
STARTCHAR 1F30
ENCODING 7984
SWIDTH 318 0
DWIDTH 7 0
BBX 4 18 2 0
BITMAP
60
60
20
40
80
00
C0
C0
C0
C0
C0
C0
C0
C0
C0
C0
F0
70
ENDCHAR
STARTCHAR 1F31
ENCODING 7985
SWIDTH 318 0
DWIDTH 7 0
BBX 4 18 2 0
BITMAP
C0
C0
80
40
20
00
C0
C0
C0
C0
C0
C0
C0
C0
C0
C0
F0
70
ENDCHAR
STARTCHAR 1F32
ENCODING 7986
SWIDTH 318 0
DWIDTH 7 0
BBX 8 18 -1 0
BITMAP
64
6C
66
46
83
00
18
18
18
18
18
18
18
18
18
18
1E
0E
ENDCHAR
STARTCHAR 1F33
ENCODING 7987
SWIDTH 318 0
DWIDTH 7 0
BBX 7 18 -1 0
BITMAP
C8
DC
CC
46
22
00
18
18
18
18
18
18
18
18
18
18
1E
0E
ENDCHAR
STARTCHAR 1F34
ENCODING 7988
SWIDTH 318 0
DWIDTH 7 0
BBX 8 18 0 0
BITMAP
62
67
66
4C
88
00
30
30
30
30
30
30
30
30
30
30
3C
1C
ENDCHAR
STARTCHAR 1F35
ENCODING 7989
SWIDTH 318 0
DWIDTH 7 0
BBX 8 18 -1 0
BITMAP
C2
C7
C6
4C
28
00
18
18
18
18
18
18
18
18
18
18
1E
0E
ENDCHAR
STARTCHAR 1F36
ENCODING 7990
SWIDTH 318 0
DWIDTH 7 0
BBX 6 21 0 0
BITMAP
78
FC
84
00
30
30
30
40
00
30
30
30
30
30
30
30
30
30
30
3C
1C
ENDCHAR
STARTCHAR 1F37
ENCODING 7991
SWIDTH 318 0
DWIDTH 7 0
BBX 6 21 0 0
BITMAP
78
FC
84
00
30
30
30
08
00
30
30
30
30
30
30
30
30
30
30
3C
1C
ENDCHAR
STARTCHAR 1F38
ENCODING 7992
SWIDTH 318 0
DWIDTH 7 0
BBX 7 16 -2 0
BITMAP
60
66
26
46
86
06
06
06
06
06
06
06
06
06
06
06
ENDCHAR
STARTCHAR 1F39
ENCODING 7993
SWIDTH 318 0
DWIDTH 7 0
BBX 5 16 0 0
BITMAP
C0
D8
98
58
38
18
18
18
18
18
18
18
18
18
18
18
ENDCHAR
STARTCHAR 1F3A
ENCODING 7994
SWIDTH 500 0
DWIDTH 11 0
BBX 11 16 -1 0
BITMAP
6400
6C60
6660
4660
8360
0060
0060
0060
0060
0060
0060
0060
0060
0060
0060
0060
ENDCHAR
STARTCHAR 1F3B
ENCODING 7995
SWIDTH 500 0
DWIDTH 11 0
BBX 9 16 0 0
BITMAP
C800
DD80
CD80
4780
2380
0180
0180
0180
0180
0180
0180
0180
0180
0180
0180
0180
ENDCHAR
STARTCHAR 1F3C
ENCODING 7996
SWIDTH 500 0
DWIDTH 11 0
BBX 10 16 -1 0
BITMAP
6200
67C0
66C0
4CC0
88C0
00C0
00C0
00C0
00C0
00C0
00C0
00C0
00C0
00C0
00C0
00C0
ENDCHAR
STARTCHAR 1F3D
ENCODING 7997
SWIDTH 545 0
DWIDTH 12 0
BBX 10 16 0 0
BITMAP
C200
C7C0
C6C0
4CC0
28C0
00C0
00C0
00C0
00C0
00C0
00C0
00C0
00C0
00C0
00C0
00C0
ENDCHAR
STARTCHAR 1F3E
ENCODING 7998
SWIDTH 454 0
DWIDTH 10 0
BBX 9 19 -1 0
BITMAP
7800
FC00
8400
0000
3180
3180
3180
4180
0180
0180
0180
0180
0180
0180
0180
0180
0180
0180
0180
ENDCHAR
STARTCHAR 1F3F
ENCODING 7999
SWIDTH 454 0
DWIDTH 10 0
BBX 9 19 -1 0
BITMAP
7800
FC00
8400
0000
3180
3180
3180
0980
0180
0180
0180
0180
0180
0180
0180
0180
0180
0180
0180
ENDCHAR
STARTCHAR 1F40
ENCODING 8000
SWIDTH 590 0
DWIDTH 13 0
BBX 11 18 1 0
BITMAP
0600
0600
0200
0400
0800
0000
1F00
3F80
71C0
E0E0
C060
C060
C060
C060
E0E0
71C0
3F80
1F00
ENDCHAR
STARTCHAR 1F41
ENCODING 8001
SWIDTH 590 0
DWIDTH 13 0
BBX 11 18 1 0
BITMAP
0C00
0C00
0800
0400
0200
0000
1F00
3F80
71C0
E0E0
C060
C060
C060
C060
E0E0
71C0
3F80
1F00
ENDCHAR
STARTCHAR 1F42
ENCODING 8002
SWIDTH 590 0
DWIDTH 13 0
BBX 11 18 1 0
BITMAP
1900
1B00
1980
1180
20C0
0000
1F00
3F80
71C0
E0E0
C060
C060
C060
C060
E0E0
71C0
3F80
1F00
ENDCHAR
STARTCHAR 1F43
ENCODING 8003
SWIDTH 590 0
DWIDTH 13 0
BBX 11 18 1 0
BITMAP
6400
6E00
6600
2300
1100
0000
1F00
3F80
71C0
E0E0
C060
C060
C060
C060
E0E0
71C0
3F80
1F00
ENDCHAR
STARTCHAR 1F44
ENCODING 8004
SWIDTH 590 0
DWIDTH 13 0
BBX 11 18 1 0
BITMAP
0C40
0CE0
0CC0
0980
1100
0000
1F00
3F80
71C0
E0E0
C060
C060
C060
C060
E0E0
71C0
3F80
1F00
ENDCHAR
STARTCHAR 1F45
ENCODING 8005
SWIDTH 590 0
DWIDTH 13 0
BBX 11 18 1 0
BITMAP
3080
31C0
3180
1300
0A00
0000
1F00
3F80
71C0
E0E0
C060
C060
C060
C060
E0E0
71C0
3F80
1F00
ENDCHAR
STARTCHAR 1F48
ENCODING 8008
SWIDTH 772 0
DWIDTH 17 0
BBX 18 16 -2 0
BITMAP
600000
60F800
23FE00
470700
8C0180
1C0180
1800C0
1800C0
1800C0
1800C0
1800C0
1C0180
0C0180
070700
03FE00
00F800
ENDCHAR
STARTCHAR 1F49
ENCODING 8009
SWIDTH 818 0
DWIDTH 18 0
BBX 17 16 0 0
BITMAP
C00000
C1F000
87FC00
4E0E00
380300
380300
300180
300180
300180
300180
300180
380300
180300
0E0E00
07FC00
01F000
ENDCHAR
STARTCHAR 1F4A
ENCODING 8010
SWIDTH 1000 0
DWIDTH 22 0
BBX 22 16 -1 0
BITMAP
640000
6C0F80
663FE0
467070
83C018
01C018
01800C
01800C
01800C
01800C
01800C
01C018
00C018
007070
003FE0
000F80
ENDCHAR
STARTCHAR 1F4B
ENCODING 8011
SWIDTH 1000 0
DWIDTH 22 0
BBX 21 16 0 0
BITMAP
C80000
DC1F00
CC7FC0
46E0E0
238030
038030
030018
030018
030018
030018
030018
038030
018030
00E0E0
007FC0
001F00
ENDCHAR
STARTCHAR 1F4C
ENCODING 8012
SWIDTH 954 0
DWIDTH 21 0
BBX 21 16 -1 0
BITMAP
620000
671F00
667FC0
4CE0E0
898030
038030
030018
030018
030018
030018
030018
038030
018030
00E0E0
007FC0
001F00
ENDCHAR
STARTCHAR 1F4D
ENCODING 8013
SWIDTH 954 0
DWIDTH 21 0
BBX 20 16 0 0
BITMAP
C20000
C73E00
C6FF80
4DC1C0
2B0060
070060
060030
060030
060030
060030
060030
070060
030060
01C1C0
00FF80
003E00
ENDCHAR
STARTCHAR 1F50
ENCODING 8016
SWIDTH 590 0
DWIDTH 13 0
BBX 9 18 2 0
BITMAP
0C00
0C00
0400
0800
1000
0000
C180
C180
C180
C180
C180
C180
C180
C180
C180
E380
7F00
3E00
ENDCHAR
STARTCHAR 1F51
ENCODING 8017
SWIDTH 590 0
DWIDTH 13 0
BBX 9 18 2 0
BITMAP
1800
1800
1000
0800
0400
0000
C180
C180
C180
C180
C180
C180
C180
C180
C180
E380
7F00
3E00
ENDCHAR
STARTCHAR 1F52
ENCODING 8018
SWIDTH 590 0
DWIDTH 13 0
BBX 9 18 2 0
BITMAP
3200
3600
3300
2300
4180
0000
C180
C180
C180
C180
C180
C180
C180
C180
C180
E380
7F00
3E00
ENDCHAR
STARTCHAR 1F53
ENCODING 8019
SWIDTH 590 0
DWIDTH 13 0
BBX 9 18 2 0
BITMAP
C800
DC00
CC00
4600
2200
0000
C180
C180
C180
C180
C180
C180
C180
C180
C180
E380
7F00
3E00
ENDCHAR
STARTCHAR 1F54
ENCODING 8020
SWIDTH 590 0
DWIDTH 13 0
BBX 10 18 2 0
BITMAP
1880
19C0
1980
1300
2200
0000
C180
C180
C180
C180
C180
C180
C180
C180
C180
E380
7F00
3E00
ENDCHAR
STARTCHAR 1F55
ENCODING 8021
SWIDTH 590 0
DWIDTH 13 0
BBX 9 18 2 0
BITMAP
6100
6380
6300
2600
1400
0000
C180
C180
C180
C180
C180
C180
C180
C180
C180
E380
7F00
3E00
ENDCHAR
STARTCHAR 1F56
ENCODING 8022
SWIDTH 590 0
DWIDTH 13 0
BBX 9 21 2 0
BITMAP
1E00
3F00
2100
0000
0C00
0C00
0C00
1000
0000
C180
C180
C180
C180
C180
C180
C180
C180
C180
E380
7F00
3E00
ENDCHAR
STARTCHAR 1F57
ENCODING 8023
SWIDTH 590 0
DWIDTH 13 0
BBX 9 21 2 0
BITMAP
1E00
3F00
2100
0000
0C00
0C00
0C00
0200
0000
C180
C180
C180
C180
C180
C180
C180
C180
C180
E380
7F00
3E00
ENDCHAR
STARTCHAR 1F59
ENCODING 8025
SWIDTH 681 0
DWIDTH 15 0
BBX 14 16 0 0
BITMAP
C000
F00C
9818
5818
2C30
0E70
0660
03C0
03C0
0180
0180
0180
0180
0180
0180
0180
ENDCHAR
STARTCHAR 1F5B
ENCODING 8027
SWIDTH 863 0
DWIDTH 19 0
BBX 18 16 0 0
BITMAP
C80000
DF00C0
CD8180
478180
22C300
00E700
006600
003C00
003C00
001800
001800
001800
001800
001800
001800
001800
ENDCHAR
STARTCHAR 1F5D
ENCODING 8029
SWIDTH 909 0
DWIDTH 20 0
BBX 19 16 0 0
BITMAP
C20000
C78060
C6C0C0
4CC0C0
286180
007380
003300
001E00
001E00
000C00
000C00
000C00
000C00
000C00
000C00
000C00
ENDCHAR
STARTCHAR 1F5F
ENCODING 8031
SWIDTH 863 0
DWIDTH 19 0
BBX 18 19 -1 0
BITMAP
780000
FC0000
840000
000000
3300C0
318180
318180
08C300
00E700
006600
003C00
003C00
001800
001800
001800
001800
001800
001800
001800
ENDCHAR
STARTCHAR 1F60
ENCODING 8032
SWIDTH 818 0
DWIDTH 18 0
BBX 16 18 1 0
BITMAP
00C0
00C0
0040
0080
0100
0000
300C
6006
6186
C183
C183
C183
C183
C183
C183
63C6
7FFE
3E7C
ENDCHAR
STARTCHAR 1F61
ENCODING 8033
SWIDTH 818 0
DWIDTH 18 0
BBX 16 18 1 0
BITMAP
0300
0300
0200
0100
0080
0000
300C
6006
6186
C183
C183
C183
C183
C183
C183
63C6
7FFE
3E7C
ENDCHAR
STARTCHAR 1F62
ENCODING 8034
SWIDTH 818 0
DWIDTH 18 0
BBX 16 18 1 0
BITMAP
0640
06C0
0660
0460
0830
0000
300C
6006
6186
C183
C183
C183
C183
C183
C183
63C6
7FFE
3E7C
ENDCHAR
STARTCHAR 1F63
ENCODING 8035
SWIDTH 818 0
DWIDTH 18 0
BBX 16 18 1 0
BITMAP
0C80
0DC0
0CC0
0460
0220
0000
300C
6006
6186
C183
C183
C183
C183
C183
C183
63C6
7FFE
3E7C
ENDCHAR
STARTCHAR 1F64
ENCODING 8036
SWIDTH 818 0
DWIDTH 18 0
BBX 16 18 1 0
BITMAP
0310
0338
0330
0260
0440
0000
300C
6006
6186
C183
C183
C183
C183
C183
C183
63C6
7FFE
3E7C
ENDCHAR
STARTCHAR 1F65
ENCODING 8037
SWIDTH 818 0
DWIDTH 18 0
BBX 16 18 1 0
BITMAP
0C20
0C70
0C60
04C0
0280
0000
300C
6006
6186
C183
C183
C183
C183
C183
C183
63C6
7FFE
3E7C
ENDCHAR
STARTCHAR 1F66
ENCODING 8038
SWIDTH 818 0
DWIDTH 18 0
BBX 16 21 1 0
BITMAP
03C0
07E0
0420
0000
0180
0180
0180
0200
0000
300C
6006
6186
C183
C183
C183
C183
C183
C183
63C6
7FFE
3E7C
ENDCHAR
STARTCHAR 1F67
ENCODING 8039
SWIDTH 818 0
DWIDTH 18 0
BBX 16 21 1 0
BITMAP
03C0
07E0
0420
0000
0180
0180
0180
0040
0000
300C
6006
6186
C183
C183
C183
C183
C183
C183
63C6
7FFE
3E7C
ENDCHAR
STARTCHAR 1F68
ENCODING 8040
SWIDTH 772 0
DWIDTH 17 0
BBX 18 16 -2 0
BITMAP
600000
61F800
23FE00
470700
8C0180
1C01C0
1800C0
1800C0
1800C0
1800C0
080080
0C0180
060300
030600
1F8FC0
1F8FC0
ENDCHAR
STARTCHAR 1F69
ENCODING 8041
SWIDTH 818 0
DWIDTH 18 0
BBX 17 16 0 0
BITMAP
C00000
C3F000
87FC00
4E0E00
380300
380380
300180
300180
300180
300180
100100
180300
0C0600
060C00
3F1F80
3F1F80
ENDCHAR
STARTCHAR 1F6A
ENCODING 8042
SWIDTH 1000 0
DWIDTH 22 0
BBX 22 16 -1 0
BITMAP
640000
6C1F80
663FE0
467070
83C018
01C01C
01800C
01800C
01800C
01800C
008008
00C018
006030
003060
01F8FC
01F8FC
ENDCHAR
STARTCHAR 1F6B
ENCODING 8043
SWIDTH 1000 0
DWIDTH 22 0
BBX 21 16 0 0
BITMAP
C80000
DC3F00
CC7FC0
46E0E0
238030
038038
030018
030018
030018
030018
010010
018030
00C060
0060C0
03F1F8
03F1F8
ENDCHAR
STARTCHAR 1F6C
ENCODING 8044
SWIDTH 954 0
DWIDTH 21 0
BBX 21 16 -1 0
BITMAP
620000
673F00
667FC0
4CE0E0
898030
038038
030018
030018
030018
030018
010010
018030
00C060
0060C0
03F1F8
03F1F8
ENDCHAR
STARTCHAR 1F6D
ENCODING 8045
SWIDTH 954 0
DWIDTH 21 0
BBX 20 16 0 0
BITMAP
C20000
C77E00
C6FF80
4DC1C0
2B0060
070070
060030
060030
060030
060030
020020
030060
0180C0
00C180
07E3F0
07E3F0
ENDCHAR
STARTCHAR 1F6E
ENCODING 8046
SWIDTH 863 0
DWIDTH 19 0
BBX 19 19 -1 0
BITMAP
780000
FC0000
840000
000000
30FC00
31FF00
338380
4600C0
0E00E0
0C0060
0C0060
0C0060
0C0060
040040
0600C0
030180
018300
0FC7E0
0FC7E0
ENDCHAR
STARTCHAR 1F6F
ENCODING 8047
SWIDTH 909 0
DWIDTH 20 0
BBX 20 19 -1 0
BITMAP
780000
FC0000
840000
000000
307E00
30FF80
31C1C0
0B0060
070070
060030
060030
060030
060030
020020
030060
0180C0
00C180
07E3F0
07E3F0
ENDCHAR
STARTCHAR 1F70
ENCODING 8048
SWIDTH 590 0
DWIDTH 13 0
BBX 12 17 1 0
BITMAP
0800
1C00
0E00
0300
0000
1F80
3FC0
70C0
E0C0
C0C0
C0C0
C0C0
C0C0
E0C0
60C0
7FF0
1F30
ENDCHAR
STARTCHAR 1F71
ENCODING 8049
SWIDTH 590 0
DWIDTH 13 0
BBX 12 17 1 0
BITMAP
0100
0380
0700
0C00
0000
1F80
3FC0
70C0
E0C0
C0C0
C0C0
C0C0
C0C0
E0C0
60C0
7FF0
1F30
ENDCHAR
STARTCHAR 1F72
ENCODING 8050
SWIDTH 500 0
DWIDTH 11 0
BBX 9 17 1 0
BITMAP
1000
3800
1C00
0600
0000
3F00
7F00
E100
C000
C000
7C00
FC00
C000
C000
E080
7F80
3F00
ENDCHAR
STARTCHAR 1F73
ENCODING 8051
SWIDTH 500 0
DWIDTH 11 0
BBX 9 17 1 0
BITMAP
0200
0700
0E00
1800
0000
3F00
7F00
E100
C000
C000
7C00
FC00
C000
C000
E080
7F80
3F00
ENDCHAR
STARTCHAR 1F74
ENCODING 8052
SWIDTH 590 0
DWIDTH 13 0
BBX 9 21 2 -4
BITMAP
2000
7000
3800
0C00
0000
FE00
FF00
C380
C180
C180
C180
C180
C180
C180
C180
C180
C180
0180
0180
0180
0180
ENDCHAR
STARTCHAR 1F75
ENCODING 8053
SWIDTH 590 0
DWIDTH 13 0
BBX 9 21 2 -4
BITMAP
0200
0700
0E00
1800
0000
FE00
FF00
C380
C180
C180
C180
C180
C180
C180
C180
C180
C180
0180
0180
0180
0180
ENDCHAR
STARTCHAR 1F76
ENCODING 8054
SWIDTH 318 0
DWIDTH 7 0
BBX 6 17 0 0
BITMAP
40
E0
70
18
00
30
30
30
30
30
30
30
30
30
30
3C
1C
ENDCHAR
STARTCHAR 1F77
ENCODING 8055
SWIDTH 318 0
DWIDTH 7 0
BBX 5 17 1 0
BITMAP
10
38
70
C0
00
60
60
60
60
60
60
60
60
60
60
78
38
ENDCHAR
STARTCHAR 1F78
ENCODING 8056
SWIDTH 590 0
DWIDTH 13 0
BBX 11 17 1 0
BITMAP
1000
3800
1C00
0600
0000
1F00
3F80
71C0
E0E0
C060
C060
C060
C060
E0E0
71C0
3F80
1F00
ENDCHAR
STARTCHAR 1F79
ENCODING 8057
SWIDTH 590 0
DWIDTH 13 0
BBX 11 17 1 0
BITMAP
0100
0380
0700
0C00
0000
1F00
3F80
71C0
E0E0
C060
C060
C060
C060
E0E0
71C0
3F80
1F00
ENDCHAR
STARTCHAR 1F7A
ENCODING 8058
SWIDTH 590 0
DWIDTH 13 0
BBX 9 17 2 0
BITMAP
2000
7000
3800
0C00
0000
C180
C180
C180
C180
C180
C180
C180
C180
C180
E380
7F00
3E00
ENDCHAR
STARTCHAR 1F7B
ENCODING 8059
SWIDTH 590 0
DWIDTH 13 0
BBX 9 17 2 0
BITMAP
0200
0700
0E00
1800
0000
C180
C180
C180
C180
C180
C180
C180
C180
C180
E380
7F00
3E00
ENDCHAR
STARTCHAR 1F7C
ENCODING 8060
SWIDTH 818 0
DWIDTH 18 0
BBX 16 17 1 0
BITMAP
0200
0700
0380
00C0
0000
300C
6006
6186
C183
C183
C183
C183
C183
C183
63C6
7FFE
3E7C
ENDCHAR
STARTCHAR 1F7D
ENCODING 8061
SWIDTH 818 0
DWIDTH 18 0
BBX 16 17 1 0
BITMAP
0040
00E0
01C0
0300
0000
300C
6006
6186
C183
C183
C183
C183
C183
C183
63C6
7FFE
3E7C
ENDCHAR
STARTCHAR 1F80
ENCODING 8064
SWIDTH 590 0
DWIDTH 13 0
BBX 12 22 1 -4
BITMAP
0600
0600
0200
0400
0800
0000
1F80
3FC0
70C0
E0C0
C0C0
C0C0
C0C0
C0C0
E0C0
60C0
7FF0
1F30
0000
0600
0600
0300
ENDCHAR
STARTCHAR 1F81
ENCODING 8065
SWIDTH 590 0
DWIDTH 13 0
BBX 12 22 1 -4
BITMAP
0600
0600
0400
0200
0100
0000
1F80
3FC0
70C0
E0C0
C0C0
C0C0
C0C0
C0C0
E0C0
60C0
7FF0
1F30
0000
0600
0600
0300
ENDCHAR
STARTCHAR 1F82
ENCODING 8066
SWIDTH 590 0
DWIDTH 13 0
BBX 12 24 1 -6
BITMAP
1900
1B00
1980
1180
20C0
0000
1F80
3FC0
70C0
E0C0
C0C0
C0C0
C0C0
C0C0
E0C0
60C0
7FF0
1F30
0000
0000
0600
0600
0700
0300
ENDCHAR
STARTCHAR 1F83
ENCODING 8067
SWIDTH 590 0
DWIDTH 13 0
BBX 12 22 1 -4
BITMAP
3200
3700
3300
1180
0880
0000
1F80
3FC0
70C0
E0C0
C0C0
C0C0
C0C0
C0C0
E0C0
60C0
7FF0
1F30
0000
0600
0600
0300
ENDCHAR
STARTCHAR 1F84
ENCODING 8068
SWIDTH 590 0
DWIDTH 13 0
BBX 12 22 1 -4
BITMAP
3100
3380
3300
2600
4400
0000
1F80
3FC0
70C0
E0C0
C0C0
C0C0
C0C0
C0C0
E0C0
60C0
7FF0
1F30
0000
0600
0600
0300
ENDCHAR
STARTCHAR 1F85
ENCODING 8069
SWIDTH 590 0
DWIDTH 13 0
BBX 12 22 1 -4
BITMAP
3080
31C0
3180
1300
0A00
0000
1F80
3FC0
70C0
E0C0
C0C0
C0C0
C0C0
C0C0
E0C0
60C0
7FF0
1F30
0000
0600
0600
0300
ENDCHAR
STARTCHAR 1F86
ENCODING 8070
SWIDTH 590 0
DWIDTH 13 0
BBX 12 25 1 -4
BITMAP
0F00
1F80
1080
0000
0600
0600
0600
0800
0000
1F80
3FC0
70C0
E0C0
C0C0
C0C0
C0C0
C0C0
E0C0
60C0
7FF0
1F30
0000
0600
0600
0300
ENDCHAR
STARTCHAR 1F87
ENCODING 8071
SWIDTH 590 0
DWIDTH 13 0
BBX 12 25 1 -4
BITMAP
0F00
1F80
1080
0000
0600
0600
0600
0100
0000
1F80
3FC0
70C0
E0C0
C0C0
C0C0
C0C0
C0C0
E0C0
60C0
7FF0
1F30
0000
0600
0600
0300
ENDCHAR
STARTCHAR 1F88
ENCODING 8072
SWIDTH 954 0
DWIDTH 21 0
BBX 21 16 0 0
BITMAP
300000
338000
138000
26C000
46C060
0C6060
0C6060
1C6060
183060
183060
3FF860
3FF860
701C60
600C60
600C78
C00638
ENDCHAR
STARTCHAR 1F89
ENCODING 8073
SWIDTH 954 0
DWIDTH 21 0
BBX 21 16 0 0
BITMAP
600000
638000
438000
26C000
16C060
0C6060
0C6060
1C6060
183060
183060
3FF860
3FF860
701C60
600C60
600C78
C00638
ENDCHAR
STARTCHAR 1F8A
ENCODING 8074
SWIDTH 1045 0
DWIDTH 23 0
BBX 24 16 -1 0
BITMAP
640000
6C3800
663800
466C00
836C0C
00C60C
00C60C
01C60C
01830C
01830C
03FF8C
03FF8C
0701CC
0600CC
0600CF
0C0067
ENDCHAR
STARTCHAR 1F8B
ENCODING 8075
SWIDTH 1045 0
DWIDTH 23 0
BBX 23 16 0 0
BITMAP
C80000
DCE000
CCE000
47B000
23B018
031818
031818
071818
060C18
060C18
0FFE18
0FFE18
1C0718
180318
18031E
30018E
ENDCHAR
STARTCHAR 1F8C
ENCODING 8076
SWIDTH 1000 0
DWIDTH 22 0
BBX 23 16 -1 0
BITMAP
620000
67E000
66E000
4DB000
89B018
031818
031818
071818
060C18
060C18
0FFE18
0FFE18
1C0718
180318
18031E
30018E
ENDCHAR
STARTCHAR 1F8D
ENCODING 8077
SWIDTH 1045 0
DWIDTH 23 0
BBX 23 16 0 0
BITMAP
C20000
C7E000
C6E000
4DB000
29B018
031818
031818
071818
060C18
060C18
0FFE18
0FFE18
1C0718
180318
18031E
30018E
ENDCHAR
STARTCHAR 1F8E
ENCODING 8078
SWIDTH 954 0
DWIDTH 21 0
BBX 22 19 -1 0
BITMAP
780000
FC0000
840000
000000
31C000
31C000
336000
436030
063030
063030
0E3030
0C1830
0C1830
1FFC30
1FFC30
380E30
300630
30063C
60031C
ENDCHAR
STARTCHAR 1F8F
ENCODING 8079
SWIDTH 954 0
DWIDTH 21 0
BBX 22 19 -1 0
BITMAP
780000
FC0000
840000
000000
31C000
31C000
336000
0B6030
063030
063030
0E3030
0C1830
0C1830
1FFC30
1FFC30
380E30
300630
30063C
60031C
ENDCHAR
STARTCHAR 1F90
ENCODING 8080
SWIDTH 590 0
DWIDTH 13 0
BBX 9 22 2 -4
BITMAP
0C00
0C00
0400
0800
1000
0000
FE00
FF00
C380
C180
C180
C180
C180
C180
C180
C180
C180
C180
0180
C180
C180
6180
ENDCHAR
STARTCHAR 1F91
ENCODING 8081
SWIDTH 590 0
DWIDTH 13 0
BBX 9 22 2 -4
BITMAP
1800
1800
1000
0800
0400
0000
FE00
FF00
C380
C180
C180
C180
C180
C180
C180
C180
C180
C180
0180
C180
C180
6180
ENDCHAR
STARTCHAR 1F92
ENCODING 8082
SWIDTH 590 0
DWIDTH 13 0
BBX 9 24 2 -6
BITMAP
3200
3600
3300
2300
4180
0000
FE00
FF00
C380
C180
C180
C180
C180
C180
C180
C180
C180
C180
0180
0180
C180
C180
E000
6000
ENDCHAR
STARTCHAR 1F93
ENCODING 8083
SWIDTH 590 0
DWIDTH 13 0
BBX 9 22 2 -4
BITMAP
6400
6E00
6600
2300
1100
0000
FE00
FF00
C380
C180
C180
C180
C180
C180
C180
C180
C180
C180
0180
C180
C180
6180
ENDCHAR
STARTCHAR 1F94
ENCODING 8084
SWIDTH 590 0
DWIDTH 13 0
BBX 9 22 2 -4
BITMAP
3100
3380
3300
2600
4400
0000
FE00
FF00
C380
C180
C180
C180
C180
C180
C180
C180
C180
C180
0180
C180
C180
6180
ENDCHAR
STARTCHAR 1F95
ENCODING 8085
SWIDTH 590 0
DWIDTH 13 0
BBX 9 22 2 -4
BITMAP
C200
C700
C600
4C00
2800
0000
FE00
FF00
C380
C180
C180
C180
C180
C180
C180
C180
C180
C180
0180
C180
C180
6180
ENDCHAR
STARTCHAR 1F96
ENCODING 8086
SWIDTH 590 0
DWIDTH 13 0
BBX 9 25 2 -4
BITMAP
1E00
3F00
2100
0000
0C00
0C00
0C00
1000
0000
FE00
FF00
C380
C180
C180
C180
C180
C180
C180
C180
C180
C180
0180
C180
C180
6180
ENDCHAR
STARTCHAR 1F97
ENCODING 8087
SWIDTH 590 0
DWIDTH 13 0
BBX 9 25 2 -4
BITMAP
1E00
3F00
2100
0000
0C00
0C00
0C00
0200
0000
FE00
FF00
C380
C180
C180
C180
C180
C180
C180
C180
C180
C180
0180
C180
C180
6180
ENDCHAR
STARTCHAR 1F98
ENCODING 8088
SWIDTH 1045 0
DWIDTH 23 0
BBX 25 16 -2 0
BITMAP
60000000
66018000
26018000
46018000
86018600
06018600
06018600
07FF8600
07FF8600
06018600
06018600
06018600
06018600
06018600
06018780
06018380
ENDCHAR
STARTCHAR 1F99
ENCODING 8089
SWIDTH 1045 0
DWIDTH 23 0
BBX 23 16 0 0
BITMAP
C00000
D80600
980600
580600
380618
180618
180618
1FFE18
1FFE18
180618
180618
180618
180618
180618
18061E
18060E
ENDCHAR
STARTCHAR 1F9A
ENCODING 8090
SWIDTH 1227 0
DWIDTH 27 0
BBX 28 16 -1 0
BITMAP
64000000
6C601800
66601800
46601800
836018C0
006018C0
006018C0
007FF8C0
007FF8C0
006018C0
006018C0
006018C0
006018C0
006018C0
006018F0
00601870
ENDCHAR
STARTCHAR 1F9B
ENCODING 8091
SWIDTH 1227 0
DWIDTH 27 0
BBX 27 16 0 0
BITMAP
C8000000
DD806000
CD806000
47806000
23806180
01806180
01806180
01FFE180
01FFE180
01806180
01806180
01806180
01806180
01806180
018061E0
018060E0
ENDCHAR
STARTCHAR 1F9C
ENCODING 8092
SWIDTH 1227 0
DWIDTH 27 0
BBX 28 16 -1 0
BITMAP
62000000
67C03000
66C03000
4CC03000
88C030C0
00C030C0
00C030C0
00FFF0C0
00FFF0C0
00C030C0
00C030C0
00C030C0
00C030C0
00C030C0
00C030F0
00C03070
ENDCHAR
STARTCHAR 1F9D
ENCODING 8093
SWIDTH 1227 0
DWIDTH 27 0
BBX 27 16 0 0
BITMAP
C2000000
C7C03000
C6C03000
4CC03000
28C03180
00C03180
00C03180
00FFF180
00FFF180
00C03180
00C03180
00C03180
00C03180
00C03180
00C031E0
00C030E0
ENDCHAR
STARTCHAR 1F9E
ENCODING 8094
SWIDTH 1136 0
DWIDTH 25 0
BBX 26 19 -1 0
BITMAP
78000000
FC000000
84000000
00000000
31806000
31806000
31806000
41806300
01806300
01806300
01FFE300
01FFE300
01806300
01806300
01806300
01806300
01806300
018063C0
018061C0
ENDCHAR
STARTCHAR 1F9F
ENCODING 8095
SWIDTH 1136 0
DWIDTH 25 0
BBX 26 19 -1 0
BITMAP
78000000
FC000000
84000000
00000000
31806000
31806000
31806000
09806300
01806300
01806300
01FFE300
01FFE300
01806300
01806300
01806300
01806300
01806300
018063C0
018061C0
ENDCHAR
STARTCHAR 1FA0
ENCODING 8096
SWIDTH 818 0
DWIDTH 18 0
BBX 16 22 1 -4
BITMAP
00C0
00C0
0040
0080
0100
0000
300C
6006
6186
C183
C183
C183
C183
C183
C183
63C6
7FFE
3E7C
0000
0180
0180
00C0
ENDCHAR
STARTCHAR 1FA1
ENCODING 8097
SWIDTH 818 0
DWIDTH 18 0
BBX 16 22 1 -4
BITMAP
0300
0300
0200
0100
0080
0000
300C
6006
6186
C183
C183
C183
C183
C183
C183
63C6
7FFE
3E7C
0000
0180
0180
00C0
ENDCHAR
STARTCHAR 1FA2
ENCODING 8098
SWIDTH 818 0
DWIDTH 18 0
BBX 16 24 1 -6
BITMAP
0640
06C0
0660
0460
0830
0000
300C
6006
6186
C183
C183
C183
C183
C183
C183
63C6
7FFE
3E7C
0000
0000
0180
0180
01C0
00C0
ENDCHAR
STARTCHAR 1FA3
ENCODING 8099
SWIDTH 818 0
DWIDTH 18 0
BBX 16 22 1 -4
BITMAP
0C80
0DC0
0CC0
0460
0220
0000
300C
6006
6186
C183
C183
C183
C183
C183
C183
63C6
7FFE
3E7C
0000
0180
0180
00C0
ENDCHAR
STARTCHAR 1FA4
ENCODING 8100
SWIDTH 818 0
DWIDTH 18 0
BBX 16 22 1 -4
BITMAP
0310
0338
0330
0260
0440
0000
300C
6006
6186
C183
C183
C183
C183
C183
C183
63C6
7FFE
3E7C
0000
0180
0180
00C0
ENDCHAR
STARTCHAR 1FA5
ENCODING 8101
SWIDTH 818 0
DWIDTH 18 0
BBX 16 22 1 -4
BITMAP
0C20
0C70
0C60
04C0
0280
0000
300C
6006
6186
C183
C183
C183
C183
C183
C183
63C6
7FFE
3E7C
0000
0180
0180
00C0
ENDCHAR
STARTCHAR 1FA6
ENCODING 8102
SWIDTH 818 0
DWIDTH 18 0
BBX 16 25 1 -4
BITMAP
03C0
07E0
0420
0000
0180
0180
0180
0200
0000
300C
6006
6186
C183
C183
C183
C183
C183
C183
63C6
7FFE
3E7C
0000
0180
0180
00C0
ENDCHAR
STARTCHAR 1FA7
ENCODING 8103
SWIDTH 818 0
DWIDTH 18 0
BBX 16 25 1 -4
BITMAP
03C0
07E0
0420
0000
0180
0180
0180
0040
0000
300C
6006
6186
C183
C183
C183
C183
C183
C183
63C6
7FFE
3E7C
0000
0180
0180
00C0
ENDCHAR
STARTCHAR 1FA8
ENCODING 8104
SWIDTH 1090 0
DWIDTH 24 0
BBX 25 16 -2 0
BITMAP
60000000
61F80000
23FE0000
47070000
8C018600
1C01C600
1800C600
1800C600
1800C600
1800C600
08008600
0C018600
06030600
03060600
1F8FC780
1F8FC380
ENDCHAR
STARTCHAR 1FA9
ENCODING 8105
SWIDTH 1090 0
DWIDTH 24 0
BBX 24 16 0 0
BITMAP
C00000
C3F000
87FC00
4E0E00
38030C
38038C
30018C
30018C
30018C
30018C
10010C
18030C
0C060C
060C0C
3F1F8F
3F1F87
ENDCHAR
STARTCHAR 1FAA
ENCODING 8106
SWIDTH 1272 0
DWIDTH 28 0
BBX 29 16 -1 0
BITMAP
64000000
6C1F8000
663FE000
46707000
83C01860
01C01C60
01800C60
01800C60
01800C60
01800C60
00800860
00C01860
00603060
00306060
01F8FC78
01F8FC38
ENDCHAR
STARTCHAR 1FAB
ENCODING 8107
SWIDTH 1272 0
DWIDTH 28 0
BBX 28 16 0 0
BITMAP
C8000000
DC3F0000
CC7FC000
46E0E000
238030C0
038038C0
030018C0
030018C0
030018C0
030018C0
010010C0
018030C0
00C060C0
0060C0C0
03F1F8F0
03F1F870
ENDCHAR
STARTCHAR 1FAC
ENCODING 8108
SWIDTH 1227 0
DWIDTH 27 0
BBX 28 16 -1 0
BITMAP
62000000
673F0000
667FC000
4CE0E000
898030C0
038038C0
030018C0
030018C0
030018C0
030018C0
010010C0
018030C0
00C060C0
0060C0C0
03F1F8F0
03F1F870
ENDCHAR
STARTCHAR 1FAD
ENCODING 8109
SWIDTH 1227 0
DWIDTH 27 0
BBX 27 16 0 0
BITMAP
C2000000
C77E0000
C6FF8000
4DC1C000
2B006180
07007180
06003180
06003180
06003180
06003180
02002180
03006180
0180C180
00C18180
07E3F1E0
07E3F0E0
ENDCHAR
STARTCHAR 1FAE
ENCODING 8110
SWIDTH 1136 0
DWIDTH 25 0
BBX 26 19 -1 0
BITMAP
78000000
FC000000
84000000
00000000
30FC0000
31FF0000
33838000
4600C300
0E00E300
0C006300
0C006300
0C006300
0C006300
04004300
0600C300
03018300
01830300
0FC7E3C0
0FC7E1C0
ENDCHAR
STARTCHAR 1FAF
ENCODING 8111
SWIDTH 1181 0
DWIDTH 26 0
BBX 27 19 -1 0
BITMAP
78000000
FC000000
84000000
00000000
307E0000
30FF8000
31C1C000
0B006180
07007180
06003180
06003180
06003180
06003180
02002180
03006180
0180C180
00C18180
07E3F1E0
07E3F0E0
ENDCHAR
STARTCHAR 1FB0
ENCODING 8112
SWIDTH 590 0
DWIDTH 13 0
BBX 12 16 1 0
BITMAP
1100
1F00
0E00
0000
1F80
3FC0
70C0
E0C0
C0C0
C0C0
C0C0
C0C0
E0C0
60C0
7FF0
1F30
ENDCHAR
STARTCHAR 1FB1
ENCODING 8113
SWIDTH 590 0
DWIDTH 13 0
BBX 12 16 1 0
BITMAP
1F80
1F80
0000
0000
1F80
3FC0
70C0
E0C0
C0C0
C0C0
C0C0
C0C0
E0C0
60C0
7FF0
1F30
ENDCHAR
STARTCHAR 1FB2
ENCODING 8114
SWIDTH 590 0
DWIDTH 13 0
BBX 12 21 1 -4
BITMAP
0800
1C00
0E00
0300
0000
1F80
3FC0
70C0
E0C0
C0C0
C0C0
C0C0
C0C0
E0C0
60C0
7FF0
1F30
0000
0600
0600
0300
ENDCHAR
STARTCHAR 1FB3
ENCODING 8115
SWIDTH 590 0
DWIDTH 13 0
BBX 12 16 1 -4
BITMAP
1F80
3FC0
70C0
E0C0
C0C0
C0C0
C0C0
C0C0
E0C0
60C0
7FF0
1F30
0000
0600
0600
0300
ENDCHAR
STARTCHAR 1FB4
ENCODING 8116
SWIDTH 590 0
DWIDTH 13 0
BBX 12 21 1 -4
BITMAP
0200
0700
0E00
0800
0000
1F80
3FC0
70C0
E0C0
C0C0
C0C0
C0C0
C0C0
E0C0
60C0
7FF0
1F30
0000
0600
0600
0300
ENDCHAR
STARTCHAR 1FB6
ENCODING 8118
SWIDTH 590 0
DWIDTH 13 0
BBX 12 16 1 0
BITMAP
0E00
1F00
1100
0000
1F80
3FC0
70C0
E0C0
C0C0
C0C0
C0C0
C0C0
E0C0
60C0
7FF0
1F30
ENDCHAR
STARTCHAR 1FB7
ENCODING 8119
SWIDTH 590 0
DWIDTH 13 0
BBX 12 20 1 -4
BITMAP
0E00
1F00
1100
0000
1F80
3FC0
70C0
E0C0
C0C0
C0C0
C0C0
C0C0
E0C0
60C0
7FF0
1F30
0000
0600
0600
0300
ENDCHAR
STARTCHAR 1FB8
ENCODING 8120
SWIDTH 681 0
DWIDTH 15 0
BBX 15 19 0 0
BITMAP
0880
0F80
0700
0000
0380
0380
06C0
06C0
0C60
0C60
1C60
1830
1830
3FF8
3FF8
701C
600C
600C
C006
ENDCHAR
STARTCHAR 1FB9
ENCODING 8121
SWIDTH 681 0
DWIDTH 15 0
BBX 15 19 0 0
BITMAP
0FC0
0FC0
0000
0000
0380
0380
06C0
06C0
0C60
0C60
1C60
1830
1830
3FF8
3FF8
701C
600C
600C
C006
ENDCHAR
STARTCHAR 1FBA
ENCODING 8122
SWIDTH 681 0
DWIDTH 15 0
BBX 16 15 -1 0
BITMAP
41C0
E1C0
7360
2360
0630
0630
0E30
0C18
0C18
1FFC
1FFC
380E
3006
3006
6003
ENDCHAR
STARTCHAR 1FBB
ENCODING 8123
SWIDTH 681 0
DWIDTH 15 0
BBX 15 15 0 0
BITMAP
1380
3B80
76C0
26C0
0C60
0C60
1C60
1830
1830
3FF8
3FF8
701C
600C
600C
C006
ENDCHAR
STARTCHAR 1FBC
ENCODING 8124
SWIDTH 954 0
DWIDTH 21 0
BBX 21 15 0 0
BITMAP
038000
038000
06C000
06C060
0C6060
0C6060
1C6060
183060
183060
3FF860
3FF860
701C60
600C60
600C78
C00638
ENDCHAR
STARTCHAR 1FBD
ENCODING 8125
SWIDTH 363 0
DWIDTH 8 0
BBX 3 5 2 13
BITMAP
60
60
20
40
80
ENDCHAR
STARTCHAR 1FBE
ENCODING 8126
SWIDTH 272 0
DWIDTH 6 0
BBX 3 3 2 -4
BITMAP
C0
C0
60
ENDCHAR
STARTCHAR 1FBF
ENCODING 8127
SWIDTH 363 0
DWIDTH 8 0
BBX 3 5 2 13
BITMAP
60
60
20
40
80
ENDCHAR
STARTCHAR 1FC0
ENCODING 8128
SWIDTH 363 0
DWIDTH 8 0
BBX 5 3 1 13
BITMAP
70
F8
88
ENDCHAR
STARTCHAR 1FC1
ENCODING 8129
SWIDTH 363 0
DWIDTH 8 0
BBX 6 6 1 13
BITMAP
78
FC
84
00
CC
CC
ENDCHAR
STARTCHAR 1FC2
ENCODING 8130
SWIDTH 590 0
DWIDTH 13 0
BBX 9 21 2 -4
BITMAP
2000
7000
3800
0C00
0000
FE00
FF00
C380
C180
C180
C180
C180
C180
C180
C180
C180
C180
0180
C180
C180
6180
ENDCHAR
STARTCHAR 1FC3
ENCODING 8131
SWIDTH 590 0
DWIDTH 13 0
BBX 9 16 2 -4
BITMAP
FE00
FF00
C380
C180
C180
C180
C180
C180
C180
C180
C180
C180
0180
C180
C180
6180
ENDCHAR
STARTCHAR 1FC4
ENCODING 8132
SWIDTH 590 0
DWIDTH 13 0
BBX 9 21 2 -4
BITMAP
0400
0E00
1C00
3000
0000
FE00
FF00
C380
C180
C180
C180
C180
C180
C180
C180
C180
C180
0180
C180
C180
6180
ENDCHAR
STARTCHAR 1FC6
ENCODING 8134
SWIDTH 590 0
DWIDTH 13 0
BBX 9 20 2 -4
BITMAP
1C00
3E00
2200
0000
FE00
FF00
C380
C180
C180
C180
C180
C180
C180
C180
C180
C180
0180
0180
0180
0180
ENDCHAR
STARTCHAR 1FC7
ENCODING 8135
SWIDTH 590 0
DWIDTH 13 0
BBX 9 20 2 -4
BITMAP
1C00
3E00
2200
0000
FE00
FF00
C380
C180
C180
C180
C180
C180
C180
C180
C180
C180
0180
C180
C180
6180
ENDCHAR
STARTCHAR 1FC8
ENCODING 8136
SWIDTH 681 0
DWIDTH 15 0
BBX 16 15 -1 0
BITMAP
43FE
E3FE
7300
2300
0300
0300
03FE
03FE
0300
0300
0300
0300
0300
03FF
03FF
ENDCHAR
STARTCHAR 1FC9
ENCODING 8137
SWIDTH 681 0
DWIDTH 15 0
BBX 15 15 0 0
BITMAP
27FC
77FC
E600
4600
0600
0600
07FC
07FC
0600
0600
0600
0600
0600
07FE
07FE
ENDCHAR
STARTCHAR 1FCA
ENCODING 8138
SWIDTH 818 0
DWIDTH 18 0
BBX 18 15 -1 0
BITMAP
4300C0
E300C0
7300C0
2300C0
0300C0
0300C0
03FFC0
03FFC0
0300C0
0300C0
0300C0
0300C0
0300C0
0300C0
0300C0
ENDCHAR
STARTCHAR 1FCB
ENCODING 8139
SWIDTH 818 0
DWIDTH 18 0
BBX 17 15 0 0
BITMAP
260180
760180
E60180
460180
060180
060180
07FF80
07FF80
060180
060180
060180
060180
060180
060180
060180
ENDCHAR
STARTCHAR 1FCC
ENCODING 8140
SWIDTH 1000 0
DWIDTH 22 0
BBX 20 15 2 0
BITMAP
C03000
C03000
C03000
C030C0
C030C0
C030C0
FFF0C0
FFF0C0
C030C0
C030C0
C030C0
C030C0
C030C0
C030F0
C03070
ENDCHAR
STARTCHAR 1FCD
ENCODING 8141
SWIDTH 363 0
DWIDTH 8 0
BBX 8 5 0 13
BITMAP
64
6C
66
46
83
ENDCHAR
STARTCHAR 1FCE
ENCODING 8142
SWIDTH 363 0
DWIDTH 8 0
BBX 8 5 0 13
BITMAP
62
67
66
4C
88
ENDCHAR
STARTCHAR 1FCF
ENCODING 8143
SWIDTH 363 0
DWIDTH 8 0
BBX 6 8 1 13
BITMAP
78
FC
84
00
30
30
30
40
ENDCHAR
STARTCHAR 1FD0
ENCODING 8144
SWIDTH 318 0
DWIDTH 7 0
BBX 5 16 1 0
BITMAP
88
F8
70
00
60
60
60
60
60
60
60
60
60
60
78
38
ENDCHAR
STARTCHAR 1FD1
ENCODING 8145
SWIDTH 318 0
DWIDTH 7 0
BBX 6 16 0 0
BITMAP
FC
FC
00
00
30
30
30
30
30
30
30
30
30
30
3C
1C
ENDCHAR
STARTCHAR 1FD2
ENCODING 8146
SWIDTH 318 0
DWIDTH 7 0
BBX 9 17 -1 0
BITMAP
0800
D980
CD80
0C00
0000
1800
1800
1800
1800
1800
1800
1800
1800
1800
1800
1E00
0E00
ENDCHAR
STARTCHAR 1FD3
ENCODING 8147
SWIDTH 318 0
DWIDTH 7 0
BBX 9 17 -1 0
BITMAP
0800
CD80
D980
1800
0000
1800
1800
1800
1800
1800
1800
1800
1800
1800
1800
1E00
0E00
ENDCHAR
STARTCHAR 1FD6
ENCODING 8150
SWIDTH 318 0
DWIDTH 7 0
BBX 5 16 1 0
BITMAP
70
F8
88
00
60
60
60
60
60
60
60
60
60
60
78
38
ENDCHAR
STARTCHAR 1FD7
ENCODING 8151
SWIDTH 318 0
DWIDTH 7 0
BBX 6 19 0 0
BITMAP
78
FC
84
00
CC
CC
00
30
30
30
30
30
30
30
30
30
30
3C
1C
ENDCHAR
STARTCHAR 1FD8
ENCODING 8152
SWIDTH 272 0
DWIDTH 6 0
BBX 5 19 1 0
BITMAP
88
F8
70
00
60
60
60
60
60
60
60
60
60
60
60
60
60
60
60
ENDCHAR
STARTCHAR 1FD9
ENCODING 8153
SWIDTH 272 0
DWIDTH 6 0
BBX 6 19 0 0
BITMAP
FC
FC
00
00
30
30
30
30
30
30
30
30
30
30
30
30
30
30
30
ENDCHAR
STARTCHAR 1FDA
ENCODING 8154
SWIDTH 409 0
DWIDTH 9 0
BBX 8 15 -1 0
BITMAP
43
E3
73
23
03
03
03
03
03
03
03
03
03
03
03
ENDCHAR
STARTCHAR 1FDB
ENCODING 8155
SWIDTH 409 0
DWIDTH 9 0
BBX 7 15 0 0
BITMAP
26
76
E6
46
06
06
06
06
06
06
06
06
06
06
06
ENDCHAR
STARTCHAR 1FDD
ENCODING 8157
SWIDTH 363 0
DWIDTH 8 0
BBX 7 5 1 13
BITMAP
C8
DC
CC
46
22
ENDCHAR
STARTCHAR 1FDE
ENCODING 8158
SWIDTH 363 0
DWIDTH 8 0
BBX 8 5 1 13
BITMAP
C2
C7
C6
4C
28
ENDCHAR
STARTCHAR 1FDF
ENCODING 8159
SWIDTH 363 0
DWIDTH 8 0
BBX 6 8 1 13
BITMAP
78
FC
84
00
30
30
30
08
ENDCHAR
STARTCHAR 1FE0
ENCODING 8160
SWIDTH 590 0
DWIDTH 13 0
BBX 9 16 2 0
BITMAP
2200
3E00
1C00
0000
C180
C180
C180
C180
C180
C180
C180
C180
C180
E380
7F00
3E00
ENDCHAR
STARTCHAR 1FE1
ENCODING 8161
SWIDTH 590 0
DWIDTH 13 0
BBX 9 16 2 0
BITMAP
3F00
3F00
0000
0000
C180
C180
C180
C180
C180
C180
C180
C180
C180
E380
7F00
3E00
ENDCHAR
STARTCHAR 1FE2
ENCODING 8162
SWIDTH 590 0
DWIDTH 13 0
BBX 9 17 2 0
BITMAP
0800
D980
CD80
0C00
0000
C180
C180
C180
C180
C180
C180
C180
C180
C180
E380
7F00
3E00
ENDCHAR
STARTCHAR 1FE3
ENCODING 8163
SWIDTH 590 0
DWIDTH 13 0
BBX 9 17 2 0
BITMAP
0800
CD80
D980
1800
0000
C180
C180
C180
C180
C180
C180
C180
C180
C180
E380
7F00
3E00
ENDCHAR
STARTCHAR 1FE4
ENCODING 8164
SWIDTH 590 0
DWIDTH 13 0
BBX 10 22 2 -4
BITMAP
0C00
0C00
0400
0800
1000
0000
3E00
7F80
6180
C0C0
C0C0
C0C0
C0C0
C0C0
C1C0
E180
FF80
DE00
C000
C000
C000
C000
ENDCHAR
STARTCHAR 1FE5
ENCODING 8165
SWIDTH 590 0
DWIDTH 13 0
BBX 10 22 2 -4
BITMAP
1800
1800
1000
0800
0400
0000
3E00
7F80
6180
C0C0
C0C0
C0C0
C0C0
C0C0
C1C0
E180
FF80
DE00
C000
C000
C000
C000
ENDCHAR
STARTCHAR 1FE6
ENCODING 8166
SWIDTH 590 0
DWIDTH 13 0
BBX 9 16 2 0
BITMAP
1C00
3E00
2200
0000
C180
C180
C180
C180
C180
C180
C180
C180
C180
E380
7F00
3E00
ENDCHAR
STARTCHAR 1FE7
ENCODING 8167
SWIDTH 590 0
DWIDTH 13 0
BBX 9 19 2 0
BITMAP
1E00
3F00
2100
0000
3300
3300
0000
C180
C180
C180
C180
C180
C180
C180
C180
C180
E380
7F00
3E00
ENDCHAR
STARTCHAR 1FE8
ENCODING 8168
SWIDTH 545 0
DWIDTH 12 0
BBX 12 19 0 0
BITMAP
0880
0F80
0700
0000
C030
6060
6060
30C0
39C0
1980
0F00
0F00
0600
0600
0600
0600
0600
0600
0600
ENDCHAR
STARTCHAR 1FE9
ENCODING 8169
SWIDTH 545 0
DWIDTH 12 0
BBX 12 19 0 0
BITMAP
1F80
1F80
0000
0000
C030
6060
6060
30C0
39C0
1980
0F00
0F00
0600
0600
0600
0600
0600
0600
0600
ENDCHAR
STARTCHAR 1FEA
ENCODING 8170
SWIDTH 727 0
DWIDTH 16 0
BBX 16 15 -1 0
BITMAP
4C03
E606
7606
230C
039C
0198
00F0
00F0
0060
0060
0060
0060
0060
0060
0060
ENDCHAR
STARTCHAR 1FEB
ENCODING 8171
SWIDTH 772 0
DWIDTH 17 0
BBX 16 15 0 0
BITMAP
2C03
7606
E606
430C
039C
0198
00F0
00F0
0060
0060
0060
0060
0060
0060
0060
ENDCHAR
STARTCHAR 1FEC
ENCODING 8172
SWIDTH 681 0
DWIDTH 15 0
BBX 13 16 0 0
BITMAP
C000
DFC0
9FF0
5838
3818
1818
1818
1838
1FF0
1FC0
1800
1800
1800
1800
1800
1800
ENDCHAR
STARTCHAR 1FED
ENCODING 8173
SWIDTH 363 0
DWIDTH 8 0
BBX 9 4 -1 13
BITMAP
0800
D980
CD80
0C00
ENDCHAR
STARTCHAR 1FEE
ENCODING 8174
SWIDTH 363 0
DWIDTH 8 0
BBX 9 4 0 13
BITMAP
0800
CD80
D980
1800
ENDCHAR
STARTCHAR 1FEF
ENCODING 8175
SWIDTH 363 0
DWIDTH 8 0
BBX 5 4 1 13
BITMAP
40
E0
70
18
ENDCHAR
STARTCHAR 1FF2
ENCODING 8178
SWIDTH 818 0
DWIDTH 18 0
BBX 16 21 1 -4
BITMAP
0200
0700
0380
00C0
0000
300C
6006
6186
C183
C183
C183
C183
C183
C183
63C6
7FFE
3E7C
0000
0180
0180
00C0
ENDCHAR
STARTCHAR 1FF3
ENCODING 8179
SWIDTH 818 0
DWIDTH 18 0
BBX 16 16 1 -4
BITMAP
300C
6006
6186
C183
C183
C183
C183
C183
C183
63C6
7FFE
3E7C
0000
0180
0180
00C0
ENDCHAR
STARTCHAR 1FF4
ENCODING 8180
SWIDTH 818 0
DWIDTH 18 0
BBX 16 21 1 -4
BITMAP
0040
00E0
01C0
0300
0000
300C
6006
6186
C183
C183
C183
C183
C183
C183
63C6
7FFE
3E7C
0000
0180
0180
00C0
ENDCHAR
STARTCHAR 1FF6
ENCODING 8182
SWIDTH 818 0
DWIDTH 18 0
BBX 16 16 1 0
BITMAP
01C0
03E0
0220
0000
300C
6006
6186
C183
C183
C183
C183
C183
C183
63C6
7FFE
3E7C
ENDCHAR
STARTCHAR 1FF7
ENCODING 8183
SWIDTH 818 0
DWIDTH 18 0
BBX 16 20 1 -4
BITMAP
01C0
03E0
0220
0000
300C
6006
6186
C183
C183
C183
C183
C183
C183
63C6
7FFE
3E7C
0000
0180
0180
00C0
ENDCHAR
STARTCHAR 1FF8
ENCODING 8184
SWIDTH 863 0
DWIDTH 19 0
BBX 19 15 -1 0
BITMAP
407C00
E1FF00
738380
2600C0
0E00C0
0C0060
0C0060
0C0060
0C0060
0C0060
0E00C0
0600C0
038380
01FF00
007C00
ENDCHAR
STARTCHAR 1FF9
ENCODING 8185
SWIDTH 818 0
DWIDTH 18 0
BBX 17 15 0 0
BITMAP
21F000
77FC00
EE0E00
580300
380300
300180
300180
300180
300180
300180
380300
180300
0E0E00
07FC00
01F000
ENDCHAR
STARTCHAR 1FFA
ENCODING 8186
SWIDTH 863 0
DWIDTH 19 0
BBX 19 15 -1 0
BITMAP
40FC00
E1FF00
738380
2600C0
0E00E0
0C0060
0C0060
0C0060
0C0060
040040
0600C0
030180
018300
0FC7E0
0FC7E0
ENDCHAR
STARTCHAR 1FFB
ENCODING 8187
SWIDTH 818 0
DWIDTH 18 0
BBX 17 15 0 0
BITMAP
23F000
77FC00
EE0E00
580300
380380
300180
300180
300180
300180
100100
180300
0C0600
060C00
3F1F80
3F1F80
ENDCHAR
STARTCHAR 1FFC
ENCODING 8188
SWIDTH 1045 0
DWIDTH 23 0
BBX 22 15 1 0
BITMAP
0FC000
1FF000
383800
600C30
E00E30
C00630
C00630
C00630
C00630
400430
600C30
301830
183030
FC7E3C
FC7E1C
ENDCHAR
STARTCHAR 1FFD
ENCODING 8189
SWIDTH 363 0
DWIDTH 8 0
BBX 5 4 2 13
BITMAP
10
38
70
C0
ENDCHAR
STARTCHAR 1FFE
ENCODING 8190
SWIDTH 363 0
DWIDTH 8 0
BBX 3 5 3 13
BITMAP
C0
C0
80
40
20
ENDCHAR
STARTCHAR 2013
ENCODING 8211
SWIDTH 500 0
DWIDTH 11 0
BBX 11 2 0 6
BITMAP
FFE0
FFE0
ENDCHAR
STARTCHAR 2014
ENCODING 8212
SWIDTH 1000 0
DWIDTH 22 0
BBX 22 2 0 6
BITMAP
FFFFFC
FFFFFC
ENDCHAR
STARTCHAR 2015
ENCODING 8213
SWIDTH 1000 0
DWIDTH 22 0
BBX 22 2 0 6
BITMAP
FFFFFC
FFFFFC
ENDCHAR
STARTCHAR 2018
ENCODING 8216
SWIDTH 227 0
DWIDTH 5 0
BBX 3 6 1 11
BITMAP
60
60
C0
C0
C0
C0
ENDCHAR
STARTCHAR 2019
ENCODING 8217
SWIDTH 227 0
DWIDTH 5 0
BBX 3 6 1 11
BITMAP
60
60
60
60
C0
C0
ENDCHAR
STARTCHAR 201A
ENCODING 8218
SWIDTH 227 0
DWIDTH 5 0
BBX 3 6 1 -3
BITMAP
60
60
60
60
C0
C0
ENDCHAR
STARTCHAR 201C
ENCODING 8220
SWIDTH 409 0
DWIDTH 9 0
BBX 7 6 1 11
BITMAP
66
66
CC
CC
CC
CC
ENDCHAR
STARTCHAR 201D
ENCODING 8221
SWIDTH 409 0
DWIDTH 9 0
BBX 7 6 1 11
BITMAP
66
66
66
66
CC
CC
ENDCHAR
STARTCHAR 201E
ENCODING 8222
SWIDTH 409 0
DWIDTH 9 0
BBX 7 6 1 -3
BITMAP
66
66
66
66
CC
CC
ENDCHAR
STARTCHAR 2020
ENCODING 8224
SWIDTH 454 0
DWIDTH 10 0
BBX 8 19 1 -3
BITMAP
18
18
18
18
18
FF
FF
18
18
18
18
18
18
18
18
18
18
18
18
ENDCHAR
STARTCHAR 2021
ENCODING 8225
SWIDTH 454 0
DWIDTH 10 0
BBX 8 19 1 -3
BITMAP
18
18
18
18
18
FF
FF
18
18
18
18
FF
FF
18
18
18
18
18
18
ENDCHAR
STARTCHAR 2022
ENCODING 8226
SWIDTH 363 0
DWIDTH 8 0
BBX 6 6 1 5
BITMAP
78
FC
FC
FC
FC
78
ENDCHAR
STARTCHAR 2026
ENCODING 8230
SWIDTH 1000 0
DWIDTH 22 0
BBX 18 3 2 0
BITMAP
E1C1C0
E1C1C0
E1C1C0
ENDCHAR
STARTCHAR 2030
ENCODING 8240
SWIDTH 1227 0
DWIDTH 27 0
BBX 25 15 1 0
BITMAP
3C180000
7E300000
E7300000
C3600000
C3600000
C3C00000
E7FC1E00
7FFE3F00
3FE77380
03C36180
06C36180
06C36180
0CE77380
0C7E3F00
183C1E00
ENDCHAR
STARTCHAR 2039
ENCODING 8249
SWIDTH 272 0
DWIDTH 6 0
BBX 4 9 1 2
BITMAP
10
30
60
60
C0
60
60
30
10
ENDCHAR
STARTCHAR 203A
ENCODING 8250
SWIDTH 272 0
DWIDTH 6 0
BBX 4 9 1 2
BITMAP
80
C0
60
60
30
60
60
C0
80
ENDCHAR
STARTCHAR 2044
ENCODING 8260
SWIDTH 136 0
DWIDTH 3 0
BBX 11 15 -4 0
BITMAP
0060
00C0
01C0
0180
0300
0300
0600
0E00
0C00
1800
1800
3000
7000
6000
C000
ENDCHAR
STARTCHAR 2070
ENCODING 8304
SWIDTH 363 0
DWIDTH 8 0
BBX 6 9 1 6
BITMAP
78
78
CC
CC
CC
CC
CC
78
78
ENDCHAR
STARTCHAR 2074
ENCODING 8308
SWIDTH 363 0
DWIDTH 8 0
BBX 6 9 1 6
BITMAP
18
38
78
58
D8
FC
FC
18
18
ENDCHAR
STARTCHAR 2075
ENCODING 8309
SWIDTH 363 0
DWIDTH 8 0
BBX 6 9 1 6
BITMAP
7C
7C
60
78
7C
0C
0C
FC
F8
ENDCHAR
STARTCHAR 2076
ENCODING 8310
SWIDTH 363 0
DWIDTH 8 0
BBX 6 9 1 6
BITMAP
18
78
60
F8
FC
CC
CC
FC
78
ENDCHAR
STARTCHAR 2077
ENCODING 8311
SWIDTH 363 0
DWIDTH 8 0
BBX 6 9 1 6
BITMAP
FC
FC
08
18
30
30
30
60
60
ENDCHAR
STARTCHAR 2078
ENCODING 8312
SWIDTH 363 0
DWIDTH 8 0
BBX 6 9 1 6
BITMAP
78
FC
CC
78
7C
CC
CC
FC
78
ENDCHAR
STARTCHAR 2079
ENCODING 8313
SWIDTH 363 0
DWIDTH 8 0
BBX 6 9 1 6
BITMAP
78
FC
CC
CC
FC
7C
18
F8
E0
ENDCHAR
STARTCHAR 2080
ENCODING 8320
SWIDTH 363 0
DWIDTH 8 0
BBX 6 9 1 -1
BITMAP
78
78
CC
CC
CC
CC
CC
78
78
ENDCHAR
STARTCHAR 2081
ENCODING 8321
SWIDTH 363 0
DWIDTH 8 0
BBX 4 9 2 -1
BITMAP
30
70
F0
B0
30
30
30
30
30
ENDCHAR
STARTCHAR 2082
ENCODING 8322
SWIDTH 363 0
DWIDTH 8 0
BBX 6 9 1 -1
BITMAP
78
FC
0C
0C
18
30
40
FC
FC
ENDCHAR
STARTCHAR 2083
ENCODING 8323
SWIDTH 363 0
DWIDTH 8 0
BBX 6 9 1 -1
BITMAP
F8
FC
0C
38
3C
0C
0C
FC
F8
ENDCHAR
STARTCHAR 2084
ENCODING 8324
SWIDTH 363 0
DWIDTH 8 0
BBX 6 9 1 -1
BITMAP
18
38
78
58
D8
FC
FC
18
18
ENDCHAR
STARTCHAR 2085
ENCODING 8325
SWIDTH 363 0
DWIDTH 8 0
BBX 6 9 1 -1
BITMAP
7C
7C
60
78
7C
0C
0C
FC
F8
ENDCHAR
STARTCHAR 2086
ENCODING 8326
SWIDTH 363 0
DWIDTH 8 0
BBX 6 9 1 -1
BITMAP
18
78
60
F8
FC
CC
CC
FC
78
ENDCHAR
STARTCHAR 2087
ENCODING 8327
SWIDTH 363 0
DWIDTH 8 0
BBX 6 9 1 -1
BITMAP
FC
FC
08
18
30
30
30
60
60
ENDCHAR
STARTCHAR 2088
ENCODING 8328
SWIDTH 363 0
DWIDTH 8 0
BBX 6 9 1 -1
BITMAP
78
FC
CC
78
7C
CC
CC
FC
78
ENDCHAR
STARTCHAR 2089
ENCODING 8329
SWIDTH 363 0
DWIDTH 8 0
BBX 6 9 1 -1
BITMAP
78
FC
CC
CC
FC
7C
18
F8
E0
ENDCHAR
STARTCHAR 20AC
ENCODING 8364
SWIDTH 545 0
DWIDTH 12 0
BBX 11 15 1 0
BITMAP
07E0
0FE0
1C00
3000
FF80
FF80
3000
3000
FF00
FF00
3000
1800
1C20
0FE0
07E0
ENDCHAR
STARTCHAR 20AE
ENCODING 8366
SWIDTH 545 0
DWIDTH 12 0
BBX 10 15 1 0
BITMAP
FFC0
FFC0
0C00
0C00
0D80
0F80
1E00
7C00
6C00
0D80
0F80
1E00
7C00
6C00
0C00
ENDCHAR
STARTCHAR 20B4
ENCODING 8372
SWIDTH 545 0
DWIDTH 12 0
BBX 10 15 1 0
BITMAP
3E00
3F80
2180
0180
FFC0
FFC0
0600
1800
FFC0
FFC0
6000
6000
7080
3F80
1F00
ENDCHAR
STARTCHAR 20B9
ENCODING 8377
SWIDTH 545 0
DWIDTH 12 0
BBX 11 15 1 0
BITMAP
FFE0
FFE0
0300
0180
FFC0
FFC0
0180
0700
FE00
F800
6000
3000
1800
0C00
0600
ENDCHAR
STARTCHAR 2113
ENCODING 8467
SWIDTH 454 0
DWIDTH 10 0
BBX 9 17 0 0
BITMAP
0F00
1F80
3980
3180
3180
3180
3300
3300
3600
3C00
3800
3000
F000
B000
3800
1F80
0F00
ENDCHAR
STARTCHAR 2116
ENCODING 8470
SWIDTH 1136 0
DWIDTH 25 0
BBX 22 15 2 0
BITMAP
C030F0
E03198
F0330C
F0330C
D8330C
DC3198
CE30F0
C63000
C33000
C3B3FC
C1B3FC
C0F000
C0F000
C07000
C03000
ENDCHAR
STARTCHAR 2122
ENCODING 8482
SWIDTH 772 0
DWIDTH 17 0
BBX 15 7 1 8
BITMAP
FD8C
FDDC
31DC
3356
3376
3326
3306
ENDCHAR
STARTCHAR 2126
ENCODING 8486
SWIDTH 772 0
DWIDTH 17 0
BBX 15 15 1 0
BITMAP
0FC0
1FF0
3838
600C
E00E
C006
C006
C006
C006
4004
600C
3018
1830
FC7E
FC7E
ENDCHAR
STARTCHAR 212E
ENCODING 8494
SWIDTH 954 0
DWIDTH 21 0
BBX 19 17 1 0
BITMAP
03F800
0FFE00
1C0700
300180
6000C0
6000C0
E000E0
FFFFE0
FFFFE0
E00000
E00000
600000
600180
300300
1C0E00
0FFC00
03F000
ENDCHAR
STARTCHAR 2153
ENCODING 8531
SWIDTH 863 0
DWIDTH 19 0
BBX 16 16 2 -1
BITMAP
3018
7030
F070
B060
30C0
30C0
3180
33BE
333F
0603
060E
0C0F
1C03
1803
303F
003E
ENDCHAR
STARTCHAR 2154
ENCODING 8532
SWIDTH 863 0
DWIDTH 19 0
BBX 17 16 1 -1
BITMAP
780C00
FC1800
0C3800
0C3000
186000
306000
40C000
FDDF00
FD9F80
030180
030700
060780
0E0180
0C0180
181F80
001F00
ENDCHAR
STARTCHAR 2155
ENCODING 8533
SWIDTH 863 0
DWIDTH 19 0
BBX 16 16 2 -1
BITMAP
3018
7030
F070
B060
30C0
30C0
3180
339F
331F
0618
061E
0C1F
1C03
1803
303F
003E
ENDCHAR
STARTCHAR 2156
ENCODING 8534
SWIDTH 863 0
DWIDTH 19 0
BBX 17 16 1 -1
BITMAP
780C00
FC1800
0C3800
0C3000
186000
306000
40C000
FDCF80
FD8F80
030C00
030F00
060F80
0E0180
0C0180
181F80
001F00
ENDCHAR
STARTCHAR 2157
ENCODING 8535
SWIDTH 863 0
DWIDTH 19 0
BBX 17 16 1 -1
BITMAP
F80C00
FC1800
0C3800
383000
3C6000
0C6000
0CC000
FDCF80
F98F80
030C00
030F00
060F80
0E0180
0C0180
181F80
001F00
ENDCHAR
STARTCHAR 2158
ENCODING 8536
SWIDTH 863 0
DWIDTH 19 0
BBX 17 16 1 -1
BITMAP
180C00
381800
783800
583000
D86000
FC6000
FCC000
19CF80
198F80
030C00
030F00
060F80
0E0180
0C0180
181F80
001F00
ENDCHAR
STARTCHAR 2159
ENCODING 8537
SWIDTH 863 0
DWIDTH 19 0
BBX 16 16 2 -1
BITMAP
3018
7030
F070
B060
30C0
30C0
3180
3386
331E
0618
063E
0C3F
1C33
1833
303F
001E
ENDCHAR
STARTCHAR 215A
ENCODING 8538
SWIDTH 863 0
DWIDTH 19 0
BBX 17 16 1 -1
BITMAP
7C0C00
7C1800
603800
783000
7C6000
0C6000
0CC000
FDC300
F98F00
030C00
031F00
061F80
0E1980
0C1980
181F80
000F00
ENDCHAR
STARTCHAR 215B
ENCODING 8539
SWIDTH 863 0
DWIDTH 19 0
BBX 16 16 2 -1
BITMAP
3018
7030
F070
B060
30C0
30C0
3180
339E
333F
0633
061E
0C1F
1C33
1833
303F
001E
ENDCHAR
STARTCHAR 215C
ENCODING 8540
SWIDTH 863 0
DWIDTH 19 0
BBX 17 16 1 -1
BITMAP
F80C00
FC1800
0C3800
383000
3C6000
0C6000
0CC000
FDCF00
F99F80
031980
030F00
060F80
0E1980
0C1980
181F80
000F00
ENDCHAR
STARTCHAR 215D
ENCODING 8541
SWIDTH 863 0
DWIDTH 19 0
BBX 17 16 1 -1
BITMAP
7C0C00
7C1800
603800
783000
7C6000
0C6000
0CC000
FDCF00
F99F80
031980
030F00
060F80
0E1980
0C1980
181F80
000F00
ENDCHAR
STARTCHAR 215E
ENCODING 8542
SWIDTH 863 0
DWIDTH 19 0
BBX 17 16 1 -1
BITMAP
FC1800
FC3000
087000
186000
30C000
30C000
318000
638F00
631F80
061980
060F00
0C0F80
1C1980
181980
301F80
000F00
ENDCHAR
STARTCHAR 2202
ENCODING 8706
SWIDTH 590 0
DWIDTH 13 0
BBX 11 17 1 0
BITMAP
7E00
7F80
01C0
00C0
00E0
0060
1F60
3FE0
70E0
E060
C060
C060
C0C0
C0C0
E180
7F80
3E00
ENDCHAR
STARTCHAR 2206
ENCODING 8710
SWIDTH 636 0
DWIDTH 14 0
BBX 14 15 0 0
BITMAP
0700
0F80
0D80
1DC0
1CC0
18E0
3860
3060
3070
3030
7030
6018
6018
FFFC
FFFC
ENDCHAR
STARTCHAR 220F
ENCODING 8719
SWIDTH 681 0
DWIDTH 15 0
BBX 11 18 2 -3
BITMAP
FFE0
FFE0
C060
C060
C060
C060
C060
C060
C060
C060
C060
C060
C060
C060
C060
C060
C060
C060
ENDCHAR
STARTCHAR 2211
ENCODING 8721
SWIDTH 500 0
DWIDTH 11 0
BBX 11 17 0 -2
BITMAP
FFE0
FFE0
6000
3000
3000
1800
0C00
0600
0300
0600
0C00
1800
3000
6000
4000
FFE0
FFE0
ENDCHAR
STARTCHAR 2212
ENCODING 8722
SWIDTH 545 0
DWIDTH 12 0
BBX 10 2 1 6
BITMAP
FFC0
FFC0
ENDCHAR
STARTCHAR 2215
ENCODING 8725
SWIDTH 136 0
DWIDTH 3 0
BBX 11 15 -4 0
BITMAP
0060
00C0
01C0
0180
0300
0300
0600
0E00
0C00
1800
1800
3000
7000
6000
C000
ENDCHAR
STARTCHAR 2219
ENCODING 8729
SWIDTH 227 0
DWIDTH 5 0
BBX 3 3 1 5
BITMAP
E0
E0
E0
ENDCHAR
STARTCHAR 221A
ENCODING 8730
SWIDTH 545 0
DWIDTH 12 0
BBX 12 18 0 -1
BITMAP
0030
0030
0060
0060
0060
0060
00E0
00C0
60C0
F0C0
F0C0
1980
1980
0D80
0D80
0700
0700
0300
ENDCHAR
STARTCHAR 221E
ENCODING 8734
SWIDTH 590 0
DWIDTH 13 0
BBX 10 7 1 3
BITMAP
7380
FFC0
CCC0
CCC0
CCC0
FFC0
7380
ENDCHAR
STARTCHAR 222B
ENCODING 8747
SWIDTH 363 0
DWIDTH 8 0
BBX 8 21 0 -4
BITMAP
07
0F
1C
18
18
18
18
18
18
18
18
18
18
18
18
18
18
18
38
F0
E0
ENDCHAR
STARTCHAR 2248
ENCODING 8776
SWIDTH 545 0
DWIDTH 12 0
BBX 11 8 1 3
BITMAP
3860
7CE0
E7C0
C3C0
3860
7CE0
E7C0
C3C0
ENDCHAR
STARTCHAR 2260
ENCODING 8800
SWIDTH 545 0
DWIDTH 12 0
BBX 10 13 1 0
BITMAP
0100
0300
0300
FFC0
FFC0
0400
0C00
0800
FFC0
FFC0
3000
3000
2000
ENDCHAR
STARTCHAR 2264
ENCODING 8804
SWIDTH 545 0
DWIDTH 12 0
BBX 10 13 1 0
BITMAP
00C0
07C0
3F00
F800
C000
F800
3F00
07C0
00C0
0000
0000
FFC0
FFC0
ENDCHAR
STARTCHAR 2265
ENCODING 8805
SWIDTH 545 0
DWIDTH 12 0
BBX 10 13 1 0
BITMAP
4000
7800
3F00
07C0
00C0
07C0
3F00
7800
4000
0000
0000
FFC0
FFC0
ENDCHAR
STARTCHAR 25CA
ENCODING 9674
SWIDTH 545 0
DWIDTH 12 0
BBX 11 17 1 0
BITMAP
0400
0C00
0E00
1B00
1100
3180
60C0
60C0
C060
60C0
60C0
3180
1100
1B00
0E00
0C00
0400
ENDCHAR
STARTCHAR E0FF
ENCODING 57599
SWIDTH 772 0
DWIDTH 17 0
BBX 16 15 1 0
BITMAP
07E0
1FF0
3F9C
7C9C
F47E
E7CE
E7CE
9FFF
E7CE
E7CE
F43E
7CDC
3F9C
1FF0
07E0
ENDCHAR
STARTCHAR EFFD
ENCODING 61437
SWIDTH 1681 0
DWIDTH 37 0
BBX 35 9 1 -1
BITMAP
7803C3C3C0
7807E3C3C0
CC06666660
CC03C66660
CC03E66660
CCE6666660
CCE6666660
78E7E3C3C0
7803C3C3C0
ENDCHAR
STARTCHAR F000
ENCODING 61440
SWIDTH 1000 0
DWIDTH 22 0
BBX 18 15 2 0
BITMAP
7E1F80
010040
010040
010040
010040
010040
010040
7E1F80
802000
802000
802000
802000
802000
802000
7E1F80
ENDCHAR
STARTCHAR F001
ENCODING 61441
SWIDTH 636 0
DWIDTH 14 0
BBX 10 17 2 0
BITMAP
3C00
7CC0
E0C0
C000
C000
FCC0
FCC0
C0C0
C0C0
C0C0
C0C0
C0C0
C0C0
C0C0
C0C0
C0C0
C0C0
ENDCHAR
STARTCHAR F002
ENCODING 61442
SWIDTH 681 0
DWIDTH 15 0
BBX 12 17 2 0
BITMAP
3CC0
7CC0
E0C0
C0C0
C0C0
FCC0
FCC0
C0C0
C0C0
C0C0
C0C0
C0C0
C0C0
C0C0
C0C0
C0F0
C070
ENDCHAR
STARTCHAR F0FF
ENCODING 61695
SWIDTH 454 0
DWIDTH 10 0
BBX 10 9 0 8
BITMAP
1E00
7D00
7580
DFC0
BFC0
DCC0
7380
7D80
1E00
ENDCHAR
STARTCHAR F200
ENCODING 61952
SWIDTH 3500 0
DWIDTH 77 0
BBX 76 17 1 0
BITMAP
000C00000000000007C0
000C00000000C0000F60
000C00000000C0001CF0
000C00000000C0001BB0
000C00000000C0001BF0
C18DE0C18FE0FCC19BB0
C18FF8C18FF0FCC19CF0
C18E18C18C38C0C18FE0
C18C1CC18C18C0C187C0
C18C0CC18C18C0C18000
C18C0CC18C18C0C18000
C18C0CC18C18C0C18000
C18C0CC18C18C0C18000
C18C1CC18C18C0C18000
E18C38E18C18E0E18000
7F8FF07F8C187E7F8000
3F8FE03F8C183C3F8000
ENDCHAR
STARTCHAR F506
ENCODING 62726
SWIDTH 863 0
DWIDTH 19 0
BBX 16 16 2 -1
BITMAP
3030
7060
F0E0
B0C0
3180
3180
3300
373F
363F
0C02
0C06
180C
380C
300C
6018
0018
ENDCHAR
STARTCHAR F507
ENCODING 62727
SWIDTH 863 0
DWIDTH 19 0
BBX 17 16 1 -1
BITMAP
780C00
FC1800
0C3800
0C3000
186000
306000
40C000
FDDF80
FD9F80
030100
030300
060600
0E0600
0C0600
180C00
000C00
ENDCHAR
STARTCHAR F508
ENCODING 62728
SWIDTH 863 0
DWIDTH 19 0
BBX 17 16 1 -1
BITMAP
F80C00
FC1800
0C3800
383000
3C6000
0C6000
0CC000
FDDF80
F99F80
030100
030300
060600
0E0600
0C0600
180C00
000C00
ENDCHAR
STARTCHAR F509
ENCODING 62729
SWIDTH 863 0
DWIDTH 19 0
BBX 17 16 1 -1
BITMAP
180C00
381800
783800
583000
D86000
FC6000
FCC000
19DF80
199F80
030100
030300
060600
0E0600
0C0600
180C00
000C00
ENDCHAR
STARTCHAR F50A
ENCODING 62730
SWIDTH 863 0
DWIDTH 19 0
BBX 17 16 1 -1
BITMAP
7C0C00
7C1800
603800
783000
7C6000
0C6000
0CC000
FDDF80
F99F80
030100
030300
060600
0E0600
0C0600
180C00
000C00
ENDCHAR
STARTCHAR F50B
ENCODING 62731
SWIDTH 863 0
DWIDTH 19 0
BBX 17 16 1 -1
BITMAP
180C00
781800
603800
F83000
FC6000
CC6000
CCC000
FDDF80
799F80
030100
030300
060600
0E0600
0C0600
180C00
000C00
ENDCHAR
STARTCHAR F50C
ENCODING 62732
SWIDTH 863 0
DWIDTH 19 0
BBX 16 16 2 -1
BITMAP
3018
7030
F070
B060
30C0
30C0
3180
339E
333F
0633
0633
0C3F
1C1F
1806
303E
0038
ENDCHAR
STARTCHAR F50D
ENCODING 62733
SWIDTH 863 0
DWIDTH 19 0
BBX 17 16 1 -1
BITMAP
780C00
FC1800
0C3800
0C3000
186000
306000
40C000
FDCF00
FD9F80
031980
031980
061F80
0E0F80
0C0300
181F00
001C00
ENDCHAR
STARTCHAR F50E
ENCODING 62734
SWIDTH 863 0
DWIDTH 19 0
BBX 17 16 1 -1
BITMAP
180C00
381800
783800
583000
D86000
FC6000
FCC000
19CF00
199F80
031980
031980
061F80
0E0F80
0C0300
181F00
001C00
ENDCHAR
STARTCHAR F50F
ENCODING 62735
SWIDTH 863 0
DWIDTH 19 0
BBX 17 16 1 -1
BITMAP
7C0C00
7C1800
603800
783000
7C6000
0C6000
0CC000
FDCF00
F99F80
031980
031980
061F80
0E0F80
0C0300
181F00
001C00
ENDCHAR
STARTCHAR F510
ENCODING 62736
SWIDTH 863 0
DWIDTH 19 0
BBX 17 16 1 -1
BITMAP
FC1800
FC3000
087000
186000
30C000
30C000
318000
638F00
631F80
061980
061980
0C1F80
1C0F80
180300
301F00
001C00
ENDCHAR
STARTCHAR F511
ENCODING 62737
SWIDTH 863 0
DWIDTH 19 0
BBX 17 16 1 -1
BITMAP
780C00
FC1800
CC3800
783000
7C6000
CC6000
CCC000
FDCF00
799F80
031980
031980
061F80
0E0F80
0C0300
181F00
001C00
ENDCHAR
STARTCHAR F800
ENCODING 63488
SWIDTH 545 0
DWIDTH 12 0
BBX 10 15 1 0
BITMAP
1E00
3F00
7180
6180
C0C0
C0C0
C0C0
C0C0
C0C0
C0C0
C0C0
6180
7180
3F00
1E00
ENDCHAR
STARTCHAR F801
ENCODING 63489
SWIDTH 363 0
DWIDTH 8 0
BBX 6 15 0 0
BITMAP
0C
1C
7C
FC
CC
0C
0C
0C
0C
0C
0C
0C
0C
0C
0C
ENDCHAR
STARTCHAR F802
ENCODING 63490
SWIDTH 500 0
DWIDTH 11 0
BBX 9 15 1 0
BITMAP
3C00
FE00
C700
0300
0300
0300
0600
0E00
1C00
3800
6000
6000
C000
FF80
FF80
ENDCHAR
STARTCHAR F803
ENCODING 63491
SWIDTH 500 0
DWIDTH 11 0
BBX 9 15 0 0
BITMAP
7C00
FE00
4700
0300
0300
0700
1E00
1E00
0300
0180
0180
0180
8380
FF00
7C00
ENDCHAR
STARTCHAR F804
ENCODING 63492
SWIDTH 545 0
DWIDTH 12 0
BBX 10 15 1 0
BITMAP
0300
0700
0F00
1F00
1B00
3300
6300
6300
C300
FFC0
FFC0
0300
0300
0300
0300
ENDCHAR
STARTCHAR F805
ENCODING 63493
SWIDTH 500 0
DWIDTH 11 0
BBX 9 15 0 0
BITMAP
7F00
7F00
6000
6000
6000
7C00
7F00
0700
0380
0180
0180
0180
8380
FF00
7C00
ENDCHAR
STARTCHAR F806
ENCODING 63494
SWIDTH 545 0
DWIDTH 12 0
BBX 10 15 1 0
BITMAP
0780
1F80
3800
7000
6000
DF00
FF80
C1C0
C0C0
C0C0
C0C0
E0C0
6180
7F80
1E00
ENDCHAR
STARTCHAR F807
ENCODING 63495
SWIDTH 454 0
DWIDTH 10 0
BBX 10 15 0 0
BITMAP
FFC0
FFC0
0080
0180
0300
0600
0600
0C00
0C00
1800
1800
1800
3000
3000
3000
ENDCHAR
STARTCHAR F808
ENCODING 63496
SWIDTH 545 0
DWIDTH 12 0
BBX 10 15 1 0
BITMAP
3F00
7F80
E1C0
C0C0
C0C0
F180
7B80
1E00
7780
41C0
C0C0
C0C0
E1C0
7F80
3F00
ENDCHAR
STARTCHAR F809
ENCODING 63497
SWIDTH 545 0
DWIDTH 12 0
BBX 10 15 1 0
BITMAP
1E00
7F80
6180
C0C0
C0C0
C0C0
E0C0
7FC0
3FC0
01C0
0180
0380
0F00
7E00
7800
ENDCHAR
STARTCHAR F80A
ENCODING 63498
SWIDTH 363 0
DWIDTH 8 0
BBX 6 9 1 9
BITMAP
78
78
CC
CC
CC
CC
CC
78
78
ENDCHAR
STARTCHAR F80B
ENCODING 63499
SWIDTH 363 0
DWIDTH 8 0
BBX 4 9 2 9
BITMAP
30
70
F0
B0
30
30
30
30
30
ENDCHAR
STARTCHAR F80C
ENCODING 63500
SWIDTH 363 0
DWIDTH 8 0
BBX 6 9 1 9
BITMAP
78
FC
0C
0C
18
30
40
FC
FC
ENDCHAR
STARTCHAR F80D
ENCODING 63501
SWIDTH 363 0
DWIDTH 8 0
BBX 6 9 1 9
BITMAP
F8
FC
0C
38
3C
0C
0C
FC
F8
ENDCHAR
STARTCHAR F80E
ENCODING 63502
SWIDTH 363 0
DWIDTH 8 0
BBX 6 9 1 9
BITMAP
18
38
78
58
D8
FC
FC
18
18
ENDCHAR
STARTCHAR F80F
ENCODING 63503
SWIDTH 363 0
DWIDTH 8 0
BBX 6 9 1 9
BITMAP
7C
7C
60
78
7C
0C
0C
FC
F8
ENDCHAR
STARTCHAR F810
ENCODING 63504
SWIDTH 363 0
DWIDTH 8 0
BBX 6 9 1 9
BITMAP
18
78
60
F8
FC
CC
CC
FC
78
ENDCHAR
STARTCHAR F811
ENCODING 63505
SWIDTH 363 0
DWIDTH 8 0
BBX 6 9 1 9
BITMAP
FC
FC
08
18
30
30
30
60
60
ENDCHAR
STARTCHAR F812
ENCODING 63506
SWIDTH 363 0
DWIDTH 8 0
BBX 6 9 1 9
BITMAP
78
FC
CC
78
7C
CC
CC
FC
78
ENDCHAR
STARTCHAR F813
ENCODING 63507
SWIDTH 363 0
DWIDTH 8 0
BBX 6 9 1 9
BITMAP
78
FC
CC
CC
FC
7C
18
F8
E0
ENDCHAR
STARTCHAR F814
ENCODING 63508
SWIDTH 363 0
DWIDTH 8 0
BBX 6 9 1 -4
BITMAP
78
78
CC
CC
CC
CC
CC
78
78
ENDCHAR
STARTCHAR F815
ENCODING 63509
SWIDTH 363 0
DWIDTH 8 0
BBX 4 9 2 -4
BITMAP
30
70
F0
B0
30
30
30
30
30
ENDCHAR
STARTCHAR F816
ENCODING 63510
SWIDTH 363 0
DWIDTH 8 0
BBX 6 9 1 -4
BITMAP
78
FC
0C
0C
18
30
40
FC
FC
ENDCHAR
STARTCHAR F817
ENCODING 63511
SWIDTH 363 0
DWIDTH 8 0
BBX 6 9 1 -4
BITMAP
F8
FC
0C
38
3C
0C
0C
FC
F8
ENDCHAR
STARTCHAR F818
ENCODING 63512
SWIDTH 363 0
DWIDTH 8 0
BBX 6 9 1 -4
BITMAP
18
38
78
58
D8
FC
FC
18
18
ENDCHAR
STARTCHAR F819
ENCODING 63513
SWIDTH 363 0
DWIDTH 8 0
BBX 6 9 1 -4
BITMAP
7C
7C
60
78
7C
0C
0C
FC
F8
ENDCHAR
STARTCHAR F81A
ENCODING 63514
SWIDTH 363 0
DWIDTH 8 0
BBX 6 9 1 -4
BITMAP
18
78
60
F8
FC
CC
CC
FC
78
ENDCHAR
STARTCHAR F81B
ENCODING 63515
SWIDTH 363 0
DWIDTH 8 0
BBX 6 9 1 -4
BITMAP
FC
FC
08
18
30
30
30
60
60
ENDCHAR
STARTCHAR F81C
ENCODING 63516
SWIDTH 363 0
DWIDTH 8 0
BBX 6 9 1 -4
BITMAP
78
FC
CC
78
7C
CC
CC
FC
78
ENDCHAR
STARTCHAR F81D
ENCODING 63517
SWIDTH 363 0
DWIDTH 8 0
BBX 6 9 1 -4
BITMAP
78
FC
CC
CC
FC
7C
18
F8
E0
ENDCHAR
STARTCHAR FB00
ENCODING 64256
SWIDTH 772 0
DWIDTH 17 0
BBX 15 17 2 0
BITMAP
3C1E
7C3E
E070
C060
C060
FC7E
FC7E
C060
C060
C060
C060
C060
C060
C060
C060
C060
C060
ENDCHAR
STARTCHAR FB01
ENCODING 64257
SWIDTH 636 0
DWIDTH 14 0
BBX 10 17 2 0
BITMAP
3C00
7CC0
E0C0
C000
C000
FCC0
FCC0
C0C0
C0C0
C0C0
C0C0
C0C0
C0C0
C0C0
C0C0
C0C0
C0C0
ENDCHAR
STARTCHAR FB02
ENCODING 64258
SWIDTH 681 0
DWIDTH 15 0
BBX 12 17 2 0
BITMAP
3CC0
7CC0
E0C0
C0C0
C0C0
FCC0
FCC0
C0C0
C0C0
C0C0
C0C0
C0C0
C0C0
C0C0
C0C0
C0F0
C070
ENDCHAR
STARTCHAR FB03
ENCODING 64259
SWIDTH 1045 0
DWIDTH 23 0
BBX 19 17 2 0
BITMAP
3C1E00
7C3E60
E07060
C06000
C06000
FC7E60
FC7E60
C06060
C06060
C06060
C06060
C06060
C06060
C06060
C06060
C06060
C06060
ENDCHAR
STARTCHAR FB04
ENCODING 64260
SWIDTH 1045 0
DWIDTH 23 0
BBX 21 17 2 0
BITMAP
3C1E60
7C3E60
E07060
C06060
C06060
FC7E60
FC7E60
C06060
C06060
C06060
C06060
C06060
C06060
C06060
C06060
C06078
C06038
ENDCHAR
ENDFONT
